<svg xmlns="http://www.w3.org/2000/svg" xml:space="preserve" style="fill-rule:evenodd;clip-rule:evenodd;stroke-miterlimit:10" viewBox="0 0 354 159"><path d="M280 385h60" style="fill:none;fill-rule:nonzero;stroke:#56517e;stroke-width:6px" transform="matrix(.67428 0 0 -.67428 -89.619 375.531)"/><path d="M280 385a15 15 0 0 0-6.666-12.472 15 15 0 0 0-14.074-1.386 15.004 15.004 0 0 0-8.118 19.598 15.004 15.004 0 0 0 16.784 8.972 15.02 15.02 0 0 0 11.786-11.786c.192-.964.288-1.944.288-2.926Z" style="fill:#d0cee2;fill-rule:nonzero;stroke:#56517e;stroke-width:1px;stroke-miterlimit:4" transform="matrix(.67428 0 0 -.67428 -89.282 375.868)"/><path d="m240 350 12.5 10H280q10 0 10-10t-10-10h-27.5z" style="fill:#dae8fc;fill-rule:nonzero;stroke:#6c8ebf;stroke-width:1px" transform="matrix(.67428 0 0 -.67428 -89.282 328.669)"/><path d="m240 320 12.5 10H280q10 0 10-10t-10-10h-27.5z" style="fill:#dae8fc;fill-rule:nonzero;stroke:#6c8ebf;stroke-width:1px" transform="matrix(.67428 0 0 -.67428 -89.282 288.212)"/><path d="m240 290 12.5 10H280q10 0 10-10t-10-10h-27.5z" style="fill:#dae8fc;fill-rule:nonzero;stroke:#6c8ebf;stroke-width:1px" transform="matrix(.67428 0 0 -.67428 -89.282 247.756)"/><path d="m240 260 12.5 10H280q10 0 10-10t-10-10h-27.5z" style="fill:#dae8fc;fill-rule:nonzero;stroke:#6c8ebf;stroke-width:1px" transform="matrix(.67428 0 0 -.67428 -89.282 207.299)"/><path d="m240 230 12.5 10H280q10 0 10-10t-10-10h-27.5z" style="fill:#fff2cc;fill-rule:nonzero;stroke:#d6b656;stroke-width:1px" transform="matrix(.67428 0 0 -.67428 -89.282 166.843)"/><path d="M370 385h60" style="fill:none;fill-rule:nonzero;stroke:#56517e;stroke-width:6px" transform="matrix(.67428 0 0 -.67428 -89.619 375.531)"/><path d="M370 385a15 15 0 0 0-6.666-12.472 15 15 0 0 0-14.074-1.386 15.004 15.004 0 0 0-8.118 19.598 15.004 15.004 0 0 0 16.784 8.972 15.02 15.02 0 0 0 11.786-11.786c.192-.964.288-1.944.288-2.926Z" style="fill:#d0cee2;fill-rule:nonzero;stroke:#56517e;stroke-width:1px;stroke-miterlimit:4" transform="matrix(.67428 0 0 -.67428 -89.282 375.868)"/><path d="m330 350 12.5 10H370q10 0 10-10t-10-10h-27.5z" style="fill:#dae8fc;fill-rule:nonzero;stroke:#6c8ebf;stroke-width:1px" transform="matrix(.67428 0 0 -.67428 -89.282 328.669)"/><path d="m330 320 12.5 10H370q10 0 10-10t-10-10h-27.5z" style="fill:#dae8fc;fill-rule:nonzero;stroke:#6c8ebf;stroke-width:1px" transform="matrix(.67428 0 0 -.67428 -89.282 288.212)"/><path d="m330 290 12.5 10H370q10 0 10-10t-10-10h-27.5z" style="fill:#dae8fc;fill-rule:nonzero;stroke:#6c8ebf;stroke-width:1px" transform="matrix(.67428 0 0 -.67428 -89.282 247.756)"/><path d="m330 260 12.5 10H370q10 0 10-10t-10-10h-27.5z" style="fill:#dae8fc;fill-rule:nonzero;stroke:#6c8ebf;stroke-width:1px" transform="matrix(.67428 0 0 -.67428 -89.282 207.299)"/><path d="m330 230 12.5 10H370q10 0 10-10t-10-10h-27.5z" style="fill:#fff2cc;fill-rule:nonzero;stroke:#d6b656;stroke-width:1px" transform="matrix(.67428 0 0 -.67428 -89.282 166.843)"/><path d="M460 385a15 15 0 0 0-6.667-12.472 14.995 14.995 0 0 0-14.073-1.386 15.004 15.004 0 0 0-8.118 19.598 15.004 15.004 0 0 0 16.784 8.972A15 15 0 0 0 460 385Z" style="fill:#d0cee2;fill-rule:nonzero;stroke:#56517e;stroke-width:1px;stroke-miterlimit:4" transform="matrix(.67428 0 0 -.67428 -89.282 375.868)"/><path d="m420 350 12.5 10H460q10 0 10-10t-10-10h-27.5z" style="fill:#dae8fc;fill-rule:nonzero;stroke:#6c8ebf;stroke-width:1px" transform="matrix(.67428 0 0 -.67428 -89.282 328.669)"/><path d="m420 320 12.5 10H460q10 0 10-10t-10-10h-27.5z" style="fill:#dae8fc;fill-rule:nonzero;stroke:#6c8ebf;stroke-width:1px" transform="matrix(.67428 0 0 -.67428 -89.282 288.212)"/><path d="m420 290 12.5 10H460q10 0 10-10t-10-10h-27.5z" style="fill:#dae8fc;fill-rule:nonzero;stroke:#6c8ebf;stroke-width:1px" transform="matrix(.67428 0 0 -.67428 -89.282 247.756)"/><path d="m420 260 12.5 10H460q10 0 10-10t-10-10h-27.5z" style="fill:#dae8fc;fill-rule:nonzero;stroke:#6c8ebf;stroke-width:1px" transform="matrix(.67428 0 0 -.67428 -89.282 207.299)"/><path d="m420 230 12.5 10H460q10 0 10-10t-10-10h-27.5z" style="fill:#fff2cc;fill-rule:nonzero;stroke:#d6b656;stroke-width:1px" transform="matrix(.67428 0 0 -.67428 -89.282 166.843)"/><path d="M550 385h60" style="fill:none;fill-rule:nonzero;stroke:#56517e;stroke-width:6px" transform="matrix(.67428 0 0 -.67428 -89.619 375.531)"/><path d="M550 385a15 15 0 0 0-6.667-12.472 14.995 14.995 0 0 0-14.073-1.386 15.004 15.004 0 0 0-8.118 19.598 15.004 15.004 0 0 0 16.784 8.972 15.02 15.02 0 0 0 11.786-11.786c.192-.964.288-1.944.288-2.926Z" style="fill:#d0cee2;fill-rule:nonzero;stroke:#56517e;stroke-width:1px;stroke-miterlimit:4" transform="matrix(.67428 0 0 -.67428 -89.282 375.868)"/><path d="m510 350 12.5 10H550q10 0 10-10t-10-10h-27.5z" style="fill:#dae8fc;fill-rule:nonzero;stroke:#6c8ebf;stroke-width:1px" transform="matrix(.67428 0 0 -.67428 -89.282 328.669)"/><path d="m510 320 12.5 10H550q10 0 10-10t-10-10h-27.5z" style="fill:#dae8fc;fill-rule:nonzero;stroke:#6c8ebf;stroke-width:1px" transform="matrix(.67428 0 0 -.67428 -89.282 288.212)"/><path d="m510 290 12.5 10H550q10 0 10-10t-10-10h-27.5z" style="fill:#dae8fc;fill-rule:nonzero;stroke:#6c8ebf;stroke-width:1px" transform="matrix(.67428 0 0 -.67428 -89.282 247.756)"/><path d="m510 260 12.5 10H550q10 0 10-10t-10-10h-27.5z" style="fill:#dae8fc;fill-rule:nonzero;stroke:#6c8ebf;stroke-width:1px" transform="matrix(.67428 0 0 -.67428 -89.282 207.299)"/><path d="m510 230 12.5 10H550q10 0 10-10t-10-10h-27.5z" style="fill:#fff2cc;fill-rule:nonzero;stroke:#d6b656;stroke-width:1px" transform="matrix(.67428 0 0 -.67428 -89.282 166.843)"/><path d="M640 385a15 15 0 0 0-6.666-12.472 15 15 0 0 0-14.074-1.386 15.004 15.004 0 0 0-8.118 19.598 15.004 15.004 0 0 0 16.784 8.972A15 15 0 0 0 640 385Z" style="fill:#d0cee2;fill-rule:nonzero;stroke:#56517e;stroke-width:1px;stroke-miterlimit:4" transform="matrix(.67428 0 0 -.67428 -89.282 375.868)"/><path d="m600 350 12.5 10H640q10 0 10-10t-10-10h-27.5z" style="fill:#dae8fc;fill-rule:nonzero;stroke:#6c8ebf;stroke-width:1px" transform="matrix(.67428 0 0 -.67428 -89.282 328.669)"/><path d="m600 320 12.5 10H640q10 0 10-10t-10-10h-27.5z" style="fill:#dae8fc;fill-rule:nonzero;stroke:#6c8ebf;stroke-width:1px" transform="matrix(.67428 0 0 -.67428 -89.282 288.212)"/><path d="m600 290 12.5 10H640q10 0 10-10t-10-10h-27.5z" style="fill:#dae8fc;fill-rule:nonzero;stroke:#6c8ebf;stroke-width:1px" transform="matrix(.67428 0 0 -.67428 -89.282 247.756)"/><path d="m600 260 12.5 10H640q10 0 10-10t-10-10h-27.5z" style="fill:#dae8fc;fill-rule:nonzero;stroke:#6c8ebf;stroke-width:1px" transform="matrix(.67428 0 0 -.67428 -89.282 207.299)"/><path d="m600 230 12.5 10H640q10 0 10-10t-10-10h-27.5z" style="fill:#fff2cc;fill-rule:nonzero;stroke:#d6b656;stroke-width:1px" transform="matrix(.67428 0 0 -.67428 -89.282 166.843)"/><path d="M460 385h60" style="fill:none;fill-rule:nonzero;stroke:#56517e;stroke-width:6px" transform="matrix(.67428 0 0 -.67428 -89.619 375.531)"/><path d="M.067-.717h.088V0H.067z" style="fill-rule:nonzero" transform="translate(82.532 95.033)scale(8.09131)"/><path d="M.132-.139q0 .037.028.06a.1.1 0 0 0 .066.022q.046 0 .089-.022a.12.12 0 0 0 .074-.116v-.071a.3.3 0 0 1-.092.027l-.053.007a.2.2 0 0 0-.072.02q-.04.022-.04.073m.213-.178q.03-.004.04-.025a.1.1 0 0 0 .006-.034q0-.045-.032-.065a.17.17 0 0 0-.091-.02q-.07 0-.098.037a.1.1 0 0 0-.021.061H.067Q.069-.461.13-.498a.26.26 0 0 1 .14-.038q.092 0 .149.036.058.034.058.109v.301q0 .014.005.022.006.008.024.008h.013l.016-.003v.065L.503.01.474.011q-.045 0-.066-.032a.1.1 0 0 1-.015-.048.25.25 0 0 1-.188.087.17.17 0 0 1-.119-.045.14.14 0 0 1-.046-.11q0-.073.045-.113a.2.2 0 0 1 .12-.049z" style="fill-rule:nonzero" transform="translate(84.328 95.033)scale(8.09131)"/><path d="M.082-.669h.089v.146h.083v.072H.171v.341q0 .027.018.037a.1.1 0 0 0 .035.005h.013l.017-.001V0L.223.006a.1.1 0 0 1-.035.002q-.061 0-.084-.031a.14.14 0 0 1-.022-.082v-.346H.011v-.072h.071z" style="fill-rule:nonzero" transform="translate(88.826 95.033)scale(8.09131)"/><path d="M.282-.535q.055 0 .108.026a.2.2 0 0 1 .08.068q.027.042.035.092a1 1 0 0 1 .008.116H.129a.23.23 0 0 0 .038.127q.035.048.109.048a.14.14 0 0 0 .11-.045.2.2 0 0 0 .033-.061h.086a.23.23 0 0 1-.066.122.2.2 0 0 1-.099.053.3.3 0 0 1-.071.008.22.22 0 0 1-.166-.071.28.28 0 0 1-.068-.199.3.3 0 0 1 .069-.205.23.23 0 0 1 .178-.079m.14.232a.2.2 0 0 0-.025-.092Q.361-.458.277-.458a.14.14 0 0 0-.102.044.16.16 0 0 0-.043.111z" style="fill-rule:nonzero" transform="translate(91.071 95.033)scale(8.09131)"/><path d="M.117-.164q0 .037.022.067.033.043.115.043.045 0 .086-.021a.07.07 0 0 0 .037-.066q0-.034-.03-.051a.3.3 0 0 0-.075-.025l-.07-.018a.3.3 0 0 1-.098-.037.11.11 0 0 1-.057-.099q0-.074.053-.12a.22.22 0 0 1 .144-.046q.119 0 .171.07.032.042.031.094H.363a.1.1 0 0 0-.021-.054Q.312-.461.237-.461q-.05 0-.075.019a.06.06 0 0 0-.026.05q0 .034.034.055.028.015.058.021l.058.014q.094.023.127.045.051.033.051.106a.16.16 0 0 1-.053.12Q.358.02.25.02.133.02.084-.033a.2.2 0 0 1-.052-.131z" style="fill-rule:nonzero" transform="translate(95.569 95.033)scale(8.09131)"/><path d="M.082-.669h.089v.146h.083v.072H.171v.341q0 .027.018.037a.1.1 0 0 0 .035.005h.013l.017-.001V0L.223.006a.1.1 0 0 1-.035.002q-.061 0-.084-.031a.14.14 0 0 1-.022-.082v-.346H.011v-.072h.071z" style="fill-rule:nonzero" transform="translate(99.613 95.033)scale(8.09131)"/><path d="m.107-.523.14.426.146-.426h.096L.292 0H.198L.005-.523z" style="fill-rule:nonzero" transform="translate(93.321 74.804)scale(8.09131)"/><path d="M.096-.495v-.068a.4.4 0 0 0 .133-.031q.037-.021.056-.102h.069V0H.26v-.495z" style="fill-rule:nonzero" transform="translate(97.366 74.804)scale(8.09131)"/><path d="m.107-.523.14.426.146-.426h.096L.292 0H.198L.005-.523z" style="fill-rule:nonzero" transform="translate(86.578 54.576)scale(8.09131)"/><path d="M.096-.495v-.068a.4.4 0 0 0 .133-.031q.037-.021.056-.102h.069V0H.26v-.495z" style="fill-rule:nonzero" transform="translate(90.621 54.576)scale(8.09131)"/><path d="M.085-.106h.102V0H.085z" style="fill-rule:nonzero" transform="translate(95.118 54.576)scale(8.09131)"/><path d="M.271-.699q.135 0 .196.112a.5.5 0 0 1 .047.236.6.6 0 0 1-.043.236Q.41.019.27.019A.2.2 0 0 1 .083-.09a.5.5 0 0 1-.052-.245q0-.12.031-.205.057-.159.209-.159M.27-.061q.068 0 .108-.061.04-.06.041-.225 0-.12-.029-.196A.11.11 0 0 0 .276-.62a.12.12 0 0 0-.114.073.5.5 0 0 0-.036.215q0 .107.023.172.036.099.121.099" style="fill-rule:nonzero" transform="translate(97.364 54.576)scale(8.09131)"/><path d="m.107-.523.14.426.146-.426h.096L.292 0H.198L.005-.523z" style="fill-rule:nonzero" transform="translate(79.825 34.348)scale(8.09131)"/><path d="M.096-.495v-.068a.4.4 0 0 0 .133-.031q.037-.021.056-.102h.069V0H.26v-.495z" style="fill-rule:nonzero" transform="translate(83.867 34.348)scale(8.09131)"/><path d="M.085-.106h.102V0H.085z" style="fill-rule:nonzero" transform="translate(88.364 34.348)scale(8.09131)"/><path d="M.271-.699q.135 0 .196.112a.5.5 0 0 1 .047.236.6.6 0 0 1-.043.236Q.41.019.27.019A.2.2 0 0 1 .083-.09a.5.5 0 0 1-.052-.245q0-.12.031-.205.057-.159.209-.159M.27-.061q.068 0 .108-.061.04-.06.041-.225 0-.12-.029-.196A.11.11 0 0 0 .276-.62a.12.12 0 0 0-.114.073.5.5 0 0 0-.036.215q0 .107.023.172.036.099.121.099" style="fill-rule:nonzero" transform="translate(90.609 34.348)scale(8.09131)"/><path d="M.085-.106h.102V0H.085z" style="fill-rule:nonzero" transform="translate(95.105 34.348)scale(8.09131)"/><path d="M.271-.699q.135 0 .196.112a.5.5 0 0 1 .047.236.6.6 0 0 1-.043.236Q.41.019.27.019A.2.2 0 0 1 .083-.09a.5.5 0 0 1-.052-.245q0-.12.031-.205.057-.159.209-.159M.27-.061q.068 0 .108-.061.04-.06.041-.225 0-.12-.029-.196A.11.11 0 0 0 .276-.62a.12.12 0 0 0-.114.073.5.5 0 0 0-.036.215q0 .107.023.172.036.099.121.099" style="fill-rule:nonzero" transform="translate(97.35 34.348)scale(8.09131)"/><path d="M.096-.495v-.068a.4.4 0 0 0 .133-.031q.037-.021.056-.102h.069V0H.26v-.495z" style="fill-rule:nonzero" transform="translate(83.87 14.12)scale(8.09131)"/><path d="M.085-.106h.102V0H.085z" style="fill-rule:nonzero" transform="translate(88.366 14.12)scale(8.09131)"/><path d="M.271-.699q.135 0 .196.112a.5.5 0 0 1 .047.236.6.6 0 0 1-.043.236Q.41.019.27.019A.2.2 0 0 1 .083-.09a.5.5 0 0 1-.052-.245q0-.12.031-.205.057-.159.209-.159M.27-.061q.068 0 .108-.061.04-.06.041-.225 0-.12-.029-.196A.11.11 0 0 0 .276-.62a.12.12 0 0 0-.114.073.5.5 0 0 0-.036.215q0 .107.023.172.036.099.121.099" style="fill-rule:nonzero" transform="translate(90.61 14.12)scale(8.09131)"/><path d="M.085-.106h.102V0H.085z" style="fill-rule:nonzero" transform="translate(95.106 14.12)scale(8.09131)"/><path d="M.271-.699q.135 0 .196.112a.5.5 0 0 1 .047.236.6.6 0 0 1-.043.236Q.41.019.27.019A.2.2 0 0 1 .083-.09a.5.5 0 0 1-.052-.245q0-.12.031-.205.057-.159.209-.159M.27-.061q.068 0 .108-.061.04-.06.041-.225 0-.12-.029-.196A.11.11 0 0 0 .276-.62a.12.12 0 0 0-.114.073.5.5 0 0 0-.036.215q0 .107.023.172.036.099.121.099" style="fill-rule:nonzero" transform="translate(97.35 14.12)scale(8.09131)"/><path d="M.067-.717h.088V0H.067z" style="fill-rule:nonzero" transform="translate(143.217 95.033)scale(8.09131)"/><path d="M.132-.139q0 .037.028.06a.1.1 0 0 0 .066.022q.046 0 .089-.022a.12.12 0 0 0 .074-.116v-.071a.3.3 0 0 1-.092.027l-.053.007a.2.2 0 0 0-.072.02q-.04.022-.04.073m.213-.178q.03-.004.04-.025a.1.1 0 0 0 .006-.034q0-.045-.032-.065a.17.17 0 0 0-.091-.02q-.07 0-.098.037a.1.1 0 0 0-.021.061H.067Q.069-.461.13-.498a.26.26 0 0 1 .14-.038q.092 0 .149.036.058.034.058.109v.301q0 .014.005.022.006.008.024.008h.013l.016-.003v.065L.503.01.474.011q-.045 0-.066-.032a.1.1 0 0 1-.015-.048.25.25 0 0 1-.188.087.17.17 0 0 1-.119-.045.14.14 0 0 1-.046-.11q0-.073.045-.113a.2.2 0 0 1 .12-.049z" style="fill-rule:nonzero" transform="translate(145.012 95.033)scale(8.09131)"/><path d="M.082-.669h.089v.146h.083v.072H.171v.341q0 .027.018.037a.1.1 0 0 0 .035.005h.013l.017-.001V0L.223.006a.1.1 0 0 1-.035.002q-.061 0-.084-.031a.14.14 0 0 1-.022-.082v-.346H.011v-.072h.071z" style="fill-rule:nonzero" transform="translate(149.51 95.033)scale(8.09131)"/><path d="M.282-.535q.055 0 .108.026a.2.2 0 0 1 .08.068q.027.042.035.092a1 1 0 0 1 .008.116H.129a.23.23 0 0 0 .038.127q.035.048.109.048a.14.14 0 0 0 .11-.045.2.2 0 0 0 .033-.061h.086a.23.23 0 0 1-.066.122.2.2 0 0 1-.099.053.3.3 0 0 1-.071.008.22.22 0 0 1-.166-.071.28.28 0 0 1-.068-.199.3.3 0 0 1 .069-.205.23.23 0 0 1 .178-.079m.14.232a.2.2 0 0 0-.025-.092Q.361-.458.277-.458a.14.14 0 0 0-.102.044.16.16 0 0 0-.043.111z" style="fill-rule:nonzero" transform="translate(151.756 95.033)scale(8.09131)"/><path d="M.117-.164q0 .037.022.067.033.043.115.043.045 0 .086-.021a.07.07 0 0 0 .037-.066q0-.034-.03-.051a.3.3 0 0 0-.075-.025l-.07-.018a.3.3 0 0 1-.098-.037.11.11 0 0 1-.057-.099q0-.074.053-.12a.22.22 0 0 1 .144-.046q.119 0 .171.07.032.042.031.094H.363a.1.1 0 0 0-.021-.054Q.312-.461.237-.461q-.05 0-.075.019a.06.06 0 0 0-.026.05q0 .034.034.055.028.015.058.021l.058.014q.094.023.127.045.051.033.051.106a.16.16 0 0 1-.053.12Q.358.02.25.02.133.02.084-.033a.2.2 0 0 1-.052-.131z" style="fill-rule:nonzero" transform="translate(156.254 95.033)scale(8.09131)"/><path d="M.082-.669h.089v.146h.083v.072H.171v.341q0 .027.018.037a.1.1 0 0 0 .035.005h.013l.017-.001V0L.223.006a.1.1 0 0 1-.035.002q-.061 0-.084-.031a.14.14 0 0 1-.022-.082v-.346H.011v-.072h.071z" style="fill-rule:nonzero" transform="translate(160.298 95.033)scale(8.09131)"/><path d="m.107-.523.14.426.146-.426h.096L.292 0H.198L.005-.523z" style="fill-rule:nonzero" transform="translate(154.005 74.804)scale(8.09131)"/><path d="M.096-.495v-.068a.4.4 0 0 0 .133-.031q.037-.021.056-.102h.069V0H.26v-.495z" style="fill-rule:nonzero" transform="translate(158.051 74.804)scale(8.09131)"/><path d="m.107-.523.14.426.146-.426h.096L.292 0H.198L.005-.523z" style="fill-rule:nonzero" transform="translate(147.263 54.576)scale(8.09131)"/><path d="M.096-.495v-.068a.4.4 0 0 0 .133-.031q.037-.021.056-.102h.069V0H.26v-.495z" style="fill-rule:nonzero" transform="translate(151.306 54.576)scale(8.09131)"/><path d="M.085-.106h.102V0H.085z" style="fill-rule:nonzero" transform="translate(155.803 54.576)scale(8.09131)"/><path d="M.271-.699q.135 0 .196.112a.5.5 0 0 1 .047.236.6.6 0 0 1-.043.236Q.41.019.27.019A.2.2 0 0 1 .083-.09a.5.5 0 0 1-.052-.245q0-.12.031-.205.057-.159.209-.159M.27-.061q.068 0 .108-.061.04-.06.041-.225 0-.12-.029-.196A.11.11 0 0 0 .276-.62a.12.12 0 0 0-.114.073.5.5 0 0 0-.036.215q0 .107.023.172.036.099.121.099" style="fill-rule:nonzero" transform="translate(158.048 54.576)scale(8.09131)"/><path d="m.107-.523.14.426.146-.426h.096L.292 0H.198L.005-.523z" style="fill-rule:nonzero" transform="translate(140.509 34.348)scale(8.09131)"/><path d="M.096-.495v-.068a.4.4 0 0 0 .133-.031q.037-.021.056-.102h.069V0H.26v-.495z" style="fill-rule:nonzero" transform="translate(144.552 34.348)scale(8.09131)"/><path d="M.085-.106h.102V0H.085z" style="fill-rule:nonzero" transform="translate(149.049 34.348)scale(8.09131)"/><path d="M.271-.699q.135 0 .196.112a.5.5 0 0 1 .047.236.6.6 0 0 1-.043.236Q.41.019.27.019A.2.2 0 0 1 .083-.09a.5.5 0 0 1-.052-.245q0-.12.031-.205.057-.159.209-.159M.27-.061q.068 0 .108-.061.04-.06.041-.225 0-.12-.029-.196A.11.11 0 0 0 .276-.62a.12.12 0 0 0-.114.073.5.5 0 0 0-.036.215q0 .107.023.172.036.099.121.099" style="fill-rule:nonzero" transform="translate(151.293 34.348)scale(8.09131)"/><path d="M.085-.106h.102V0H.085z" style="fill-rule:nonzero" transform="translate(155.79 34.348)scale(8.09131)"/><path d="M.096-.495v-.068a.4.4 0 0 0 .133-.031q.037-.021.056-.102h.069V0H.26v-.495z" style="fill-rule:nonzero" transform="translate(158.035 34.348)scale(8.09131)"/><path d="M.096-.495v-.068a.4.4 0 0 0 .133-.031q.037-.021.056-.102h.069V0H.26v-.495z" style="fill-rule:nonzero" transform="translate(144.555 14.12)scale(8.09131)"/><path d="M.085-.106h.102V0H.085z" style="fill-rule:nonzero" transform="translate(149.051 14.12)scale(8.09131)"/><path d="M.271-.699q.135 0 .196.112a.5.5 0 0 1 .047.236.6.6 0 0 1-.043.236Q.41.019.27.019A.2.2 0 0 1 .083-.09a.5.5 0 0 1-.052-.245q0-.12.031-.205.057-.159.209-.159M.27-.061q.068 0 .108-.061.04-.06.041-.225 0-.12-.029-.196A.11.11 0 0 0 .276-.62a.12.12 0 0 0-.114.073.5.5 0 0 0-.036.215q0 .107.023.172.036.099.121.099" style="fill-rule:nonzero" transform="translate(151.295 14.12)scale(8.09131)"/><path d="M.085-.106h.102V0H.085z" style="fill-rule:nonzero" transform="translate(155.791 14.12)scale(8.09131)"/><path d="M.096-.495v-.068a.4.4 0 0 0 .133-.031q.037-.021.056-.102h.069V0H.26v-.495z" style="fill-rule:nonzero" transform="translate(158.035 14.12)scale(8.09131)"/><path d="M.067-.717h.088V0H.067z" style="fill-rule:nonzero" transform="translate(203.902 95.033)scale(8.09131)"/><path d="M.132-.139q0 .037.028.06a.1.1 0 0 0 .066.022q.046 0 .089-.022a.12.12 0 0 0 .074-.116v-.071a.3.3 0 0 1-.092.027l-.053.007a.2.2 0 0 0-.072.02q-.04.022-.04.073m.213-.178q.03-.004.04-.025a.1.1 0 0 0 .006-.034q0-.045-.032-.065a.17.17 0 0 0-.091-.02q-.07 0-.098.037a.1.1 0 0 0-.021.061H.067Q.069-.461.13-.498a.26.26 0 0 1 .14-.038q.092 0 .149.036.058.034.058.109v.301q0 .014.005.022.006.008.024.008h.013l.016-.003v.065L.503.01.474.011q-.045 0-.066-.032a.1.1 0 0 1-.015-.048.25.25 0 0 1-.188.087.17.17 0 0 1-.119-.045.14.14 0 0 1-.046-.11q0-.073.045-.113a.2.2 0 0 1 .12-.049z" style="fill-rule:nonzero" transform="translate(205.697 95.033)scale(8.09131)"/><path d="M.082-.669h.089v.146h.083v.072H.171v.341q0 .027.018.037a.1.1 0 0 0 .035.005h.013l.017-.001V0L.223.006a.1.1 0 0 1-.035.002q-.061 0-.084-.031a.14.14 0 0 1-.022-.082v-.346H.011v-.072h.071z" style="fill-rule:nonzero" transform="translate(210.195 95.033)scale(8.09131)"/><path d="M.282-.535q.055 0 .108.026a.2.2 0 0 1 .08.068q.027.042.035.092a1 1 0 0 1 .008.116H.129a.23.23 0 0 0 .038.127q.035.048.109.048a.14.14 0 0 0 .11-.045.2.2 0 0 0 .033-.061h.086a.23.23 0 0 1-.066.122.2.2 0 0 1-.099.053.3.3 0 0 1-.071.008.22.22 0 0 1-.166-.071.28.28 0 0 1-.068-.199.3.3 0 0 1 .069-.205.23.23 0 0 1 .178-.079m.14.232a.2.2 0 0 0-.025-.092Q.361-.458.277-.458a.14.14 0 0 0-.102.044.16.16 0 0 0-.043.111z" style="fill-rule:nonzero" transform="translate(212.441 95.033)scale(8.09131)"/><path d="M.117-.164q0 .037.022.067.033.043.115.043.045 0 .086-.021a.07.07 0 0 0 .037-.066q0-.034-.03-.051a.3.3 0 0 0-.075-.025l-.07-.018a.3.3 0 0 1-.098-.037.11.11 0 0 1-.057-.099q0-.074.053-.12a.22.22 0 0 1 .144-.046q.119 0 .171.07.032.042.031.094H.363a.1.1 0 0 0-.021-.054Q.312-.461.237-.461q-.05 0-.075.019a.06.06 0 0 0-.026.05q0 .034.034.055.028.015.058.021l.058.014q.094.023.127.045.051.033.051.106a.16.16 0 0 1-.053.12Q.358.02.25.02.133.02.084-.033a.2.2 0 0 1-.052-.131z" style="fill-rule:nonzero" transform="translate(216.939 95.033)scale(8.09131)"/><path d="M.082-.669h.089v.146h.083v.072H.171v.341q0 .027.018.037a.1.1 0 0 0 .035.005h.013l.017-.001V0L.223.006a.1.1 0 0 1-.035.002q-.061 0-.084-.031a.14.14 0 0 1-.022-.082v-.346H.011v-.072h.071z" style="fill-rule:nonzero" transform="translate(220.983 95.033)scale(8.09131)"/><path d="m.107-.523.14.426.146-.426h.096L.292 0H.198L.005-.523z" style="fill-rule:nonzero" transform="translate(214.69 74.804)scale(8.09131)"/><path d="M.096-.495v-.068a.4.4 0 0 0 .133-.031q.037-.021.056-.102h.069V0H.26v-.495z" style="fill-rule:nonzero" transform="translate(218.736 74.804)scale(8.09131)"/><path d="m.107-.523.14.426.146-.426h.096L.292 0H.198L.005-.523z" style="fill-rule:nonzero" transform="translate(207.947 54.576)scale(8.09131)"/><path d="M.096-.495v-.068a.4.4 0 0 0 .133-.031q.037-.021.056-.102h.069V0H.26v-.495z" style="fill-rule:nonzero" transform="translate(211.99 54.576)scale(8.09131)"/><path d="M.085-.106h.102V0H.085z" style="fill-rule:nonzero" transform="translate(216.488 54.576)scale(8.09131)"/><path d="M.096-.495v-.068a.4.4 0 0 0 .133-.031q.037-.021.056-.102h.069V0H.26v-.495z" style="fill-rule:nonzero" transform="translate(218.733 54.576)scale(8.09131)"/><path d="m.107-.523.14.426.146-.426h.096L.292 0H.198L.005-.523z" style="fill-rule:nonzero" transform="translate(201.194 34.348)scale(8.09131)"/><path d="M.096-.495v-.068a.4.4 0 0 0 .133-.031q.037-.021.056-.102h.069V0H.26v-.495z" style="fill-rule:nonzero" transform="translate(205.237 34.348)scale(8.09131)"/><path d="M.085-.106h.102V0H.085z" style="fill-rule:nonzero" transform="translate(209.733 34.348)scale(8.09131)"/><path d="M.096-.495v-.068a.4.4 0 0 0 .133-.031q.037-.021.056-.102h.069V0H.26v-.495z" style="fill-rule:nonzero" transform="translate(211.978 34.348)scale(8.09131)"/><path d="M.085-.106h.102V0H.085z" style="fill-rule:nonzero" transform="translate(216.475 34.348)scale(8.09131)"/><path d="M.271-.699q.135 0 .196.112a.5.5 0 0 1 .047.236.6.6 0 0 1-.043.236Q.41.019.27.019A.2.2 0 0 1 .083-.09a.5.5 0 0 1-.052-.245q0-.12.031-.205.057-.159.209-.159M.27-.061q.068 0 .108-.061.04-.06.041-.225 0-.12-.029-.196A.11.11 0 0 0 .276-.62a.12.12 0 0 0-.114.073.5.5 0 0 0-.036.215q0 .107.023.172.036.099.121.099" style="fill-rule:nonzero" transform="translate(218.72 34.348)scale(8.09131)"/><path d="M.096-.495v-.068a.4.4 0 0 0 .133-.031q.037-.021.056-.102h.069V0H.26v-.495z" style="fill-rule:nonzero" transform="translate(205.24 14.12)scale(8.09131)"/><path d="M.085-.106h.102V0H.085z" style="fill-rule:nonzero" transform="translate(209.736 14.12)scale(8.09131)"/><path d="M.096-.495v-.068a.4.4 0 0 0 .133-.031q.037-.021.056-.102h.069V0H.26v-.495z" style="fill-rule:nonzero" transform="translate(211.98 14.12)scale(8.09131)"/><path d="M.085-.106h.102V0H.085z" style="fill-rule:nonzero" transform="translate(216.476 14.12)scale(8.09131)"/><path d="M.271-.699q.135 0 .196.112a.5.5 0 0 1 .047.236.6.6 0 0 1-.043.236Q.41.019.27.019A.2.2 0 0 1 .083-.09a.5.5 0 0 1-.052-.245q0-.12.031-.205.057-.159.209-.159M.27-.061q.068 0 .108-.061.04-.06.041-.225 0-.12-.029-.196A.11.11 0 0 0 .276-.62a.12.12 0 0 0-.114.073.5.5 0 0 0-.036.215q0 .107.023.172.036.099.121.099" style="fill-rule:nonzero" transform="translate(218.72 14.12)scale(8.09131)"/><path d="M.067-.717h.088V0H.067z" style="fill-rule:nonzero" transform="translate(264.587 95.033)scale(8.09131)"/><path d="M.132-.139q0 .037.028.06a.1.1 0 0 0 .066.022q.046 0 .089-.022a.12.12 0 0 0 .074-.116v-.071a.3.3 0 0 1-.092.027l-.053.007a.2.2 0 0 0-.072.02q-.04.022-.04.073m.213-.178q.03-.004.04-.025a.1.1 0 0 0 .006-.034q0-.045-.032-.065a.17.17 0 0 0-.091-.02q-.07 0-.098.037a.1.1 0 0 0-.021.061H.067Q.069-.461.13-.498a.26.26 0 0 1 .14-.038q.092 0 .149.036.058.034.058.109v.301q0 .014.005.022.006.008.024.008h.013l.016-.003v.065L.503.01.474.011q-.045 0-.066-.032a.1.1 0 0 1-.015-.048.25.25 0 0 1-.188.087.17.17 0 0 1-.119-.045.14.14 0 0 1-.046-.11q0-.073.045-.113a.2.2 0 0 1 .12-.049z" style="fill-rule:nonzero" transform="translate(266.382 95.033)scale(8.09131)"/><path d="M.082-.669h.089v.146h.083v.072H.171v.341q0 .027.018.037a.1.1 0 0 0 .035.005h.013l.017-.001V0L.223.006a.1.1 0 0 1-.035.002q-.061 0-.084-.031a.14.14 0 0 1-.022-.082v-.346H.011v-.072h.071z" style="fill-rule:nonzero" transform="translate(270.88 95.033)scale(8.09131)"/><path d="M.282-.535q.055 0 .108.026a.2.2 0 0 1 .08.068q.027.042.035.092a1 1 0 0 1 .008.116H.129a.23.23 0 0 0 .038.127q.035.048.109.048a.14.14 0 0 0 .11-.045.2.2 0 0 0 .033-.061h.086a.23.23 0 0 1-.066.122.2.2 0 0 1-.099.053.3.3 0 0 1-.071.008.22.22 0 0 1-.166-.071.28.28 0 0 1-.068-.199.3.3 0 0 1 .069-.205.23.23 0 0 1 .178-.079m.14.232a.2.2 0 0 0-.025-.092Q.361-.458.277-.458a.14.14 0 0 0-.102.044.16.16 0 0 0-.043.111z" style="fill-rule:nonzero" transform="translate(273.126 95.033)scale(8.09131)"/><path d="M.117-.164q0 .037.022.067.033.043.115.043.045 0 .086-.021a.07.07 0 0 0 .037-.066q0-.034-.03-.051a.3.3 0 0 0-.075-.025l-.07-.018a.3.3 0 0 1-.098-.037.11.11 0 0 1-.057-.099q0-.074.053-.12a.22.22 0 0 1 .144-.046q.119 0 .171.07.032.042.031.094H.363a.1.1 0 0 0-.021-.054Q.312-.461.237-.461q-.05 0-.075.019a.06.06 0 0 0-.026.05q0 .034.034.055.028.015.058.021l.058.014q.094.023.127.045.051.033.051.106a.16.16 0 0 1-.053.12Q.358.02.25.02.133.02.084-.033a.2.2 0 0 1-.052-.131z" style="fill-rule:nonzero" transform="translate(277.624 95.033)scale(8.09131)"/><path d="M.082-.669h.089v.146h.083v.072H.171v.341q0 .027.018.037a.1.1 0 0 0 .035.005h.013l.017-.001V0L.223.006a.1.1 0 0 1-.035.002q-.061 0-.084-.031a.14.14 0 0 1-.022-.082v-.346H.011v-.072h.071z" style="fill-rule:nonzero" transform="translate(281.667 95.033)scale(8.09131)"/><path d="m.107-.523.14.426.146-.426h.096L.292 0H.198L.005-.523z" style="fill-rule:nonzero" transform="translate(275.375 74.804)scale(8.09131)"/><path d="M.096-.495v-.068a.4.4 0 0 0 .133-.031q.037-.021.056-.102h.069V0H.26v-.495z" style="fill-rule:nonzero" transform="translate(279.421 74.804)scale(8.09131)"/><path d="m.107-.523.14.426.146-.426h.096L.292 0H.198L.005-.523z" style="fill-rule:nonzero" transform="translate(268.632 54.576)scale(8.09131)"/><path d="M.096-.495v-.068a.4.4 0 0 0 .133-.031q.037-.021.056-.102h.069V0H.26v-.495z" style="fill-rule:nonzero" transform="translate(272.675 54.576)scale(8.09131)"/><path d="M.085-.106h.102V0H.085z" style="fill-rule:nonzero" transform="translate(277.173 54.576)scale(8.09131)"/><path d="M.096-.495v-.068a.4.4 0 0 0 .133-.031q.037-.021.056-.102h.069V0H.26v-.495z" style="fill-rule:nonzero" transform="translate(279.418 54.576)scale(8.09131)"/><path d="m.107-.523.14.426.146-.426h.096L.292 0H.198L.005-.523z" style="fill-rule:nonzero" transform="translate(261.879 34.348)scale(8.09131)"/><path d="M.096-.495v-.068a.4.4 0 0 0 .133-.031q.037-.021.056-.102h.069V0H.26v-.495z" style="fill-rule:nonzero" transform="translate(265.921 34.348)scale(8.09131)"/><path d="M.085-.106h.102V0H.085z" style="fill-rule:nonzero" transform="translate(270.418 34.348)scale(8.09131)"/><path d="M.096-.495v-.068a.4.4 0 0 0 .133-.031q.037-.021.056-.102h.069V0H.26v-.495z" style="fill-rule:nonzero" transform="translate(272.663 34.348)scale(8.09131)"/><path d="M.085-.106h.102V0H.085z" style="fill-rule:nonzero" transform="translate(277.16 34.348)scale(8.09131)"/><path d="M.096-.495v-.068a.4.4 0 0 0 .133-.031q.037-.021.056-.102h.069V0H.26v-.495z" style="fill-rule:nonzero" transform="translate(279.405 34.348)scale(8.09131)"/><path d="M.096-.495v-.068a.4.4 0 0 0 .133-.031q.037-.021.056-.102h.069V0H.26v-.495z" style="fill-rule:nonzero" transform="translate(265.925 14.12)scale(8.09131)"/><path d="M.085-.106h.102V0H.085z" style="fill-rule:nonzero" transform="translate(270.421 14.12)scale(8.09131)"/><path d="M.096-.495v-.068a.4.4 0 0 0 .133-.031q.037-.021.056-.102h.069V0H.26v-.495z" style="fill-rule:nonzero" transform="translate(272.665 14.12)scale(8.09131)"/><path d="M.085-.106h.102V0H.085z" style="fill-rule:nonzero" transform="translate(277.161 14.12)scale(8.09131)"/><path d="M.096-.495v-.068a.4.4 0 0 0 .133-.031q.037-.021.056-.102h.069V0H.26v-.495z" style="fill-rule:nonzero" transform="translate(279.405 14.12)scale(8.09131)"/><path d="M.067-.717h.088V0H.067z" style="fill-rule:nonzero" transform="translate(325.271 95.033)scale(8.09131)"/><path d="M.132-.139q0 .037.028.06a.1.1 0 0 0 .066.022q.046 0 .089-.022a.12.12 0 0 0 .074-.116v-.071a.3.3 0 0 1-.092.027l-.053.007a.2.2 0 0 0-.072.02q-.04.022-.04.073m.213-.178q.03-.004.04-.025a.1.1 0 0 0 .006-.034q0-.045-.032-.065a.17.17 0 0 0-.091-.02q-.07 0-.098.037a.1.1 0 0 0-.021.061H.067Q.069-.461.13-.498a.26.26 0 0 1 .14-.038q.092 0 .149.036.058.034.058.109v.301q0 .014.005.022.006.008.024.008h.013l.016-.003v.065L.503.01.474.011q-.045 0-.066-.032a.1.1 0 0 1-.015-.048.25.25 0 0 1-.188.087.17.17 0 0 1-.119-.045.14.14 0 0 1-.046-.11q0-.073.045-.113a.2.2 0 0 1 .12-.049z" style="fill-rule:nonzero" transform="translate(327.067 95.033)scale(8.09131)"/><path d="M.082-.669h.089v.146h.083v.072H.171v.341q0 .027.018.037a.1.1 0 0 0 .035.005h.013l.017-.001V0L.223.006a.1.1 0 0 1-.035.002q-.061 0-.084-.031a.14.14 0 0 1-.022-.082v-.346H.011v-.072h.071z" style="fill-rule:nonzero" transform="translate(331.565 95.033)scale(8.09131)"/><path d="M.282-.535q.055 0 .108.026a.2.2 0 0 1 .08.068q.027.042.035.092a1 1 0 0 1 .008.116H.129a.23.23 0 0 0 .038.127q.035.048.109.048a.14.14 0 0 0 .11-.045.2.2 0 0 0 .033-.061h.086a.23.23 0 0 1-.066.122.2.2 0 0 1-.099.053.3.3 0 0 1-.071.008.22.22 0 0 1-.166-.071.28.28 0 0 1-.068-.199.3.3 0 0 1 .069-.205.23.23 0 0 1 .178-.079m.14.232a.2.2 0 0 0-.025-.092Q.361-.458.277-.458a.14.14 0 0 0-.102.044.16.16 0 0 0-.043.111z" style="fill-rule:nonzero" transform="translate(333.811 95.033)scale(8.09131)"/><path d="M.117-.164q0 .037.022.067.033.043.115.043.045 0 .086-.021a.07.07 0 0 0 .037-.066q0-.034-.03-.051a.3.3 0 0 0-.075-.025l-.07-.018a.3.3 0 0 1-.098-.037.11.11 0 0 1-.057-.099q0-.074.053-.12a.22.22 0 0 1 .144-.046q.119 0 .171.07.032.042.031.094H.363a.1.1 0 0 0-.021-.054Q.312-.461.237-.461q-.05 0-.075.019a.06.06 0 0 0-.026.05q0 .034.034.055.028.015.058.021l.058.014q.094.023.127.045.051.033.051.106a.16.16 0 0 1-.053.12Q.358.02.25.02.133.02.084-.033a.2.2 0 0 1-.052-.131z" style="fill-rule:nonzero" transform="translate(338.309 95.033)scale(8.09131)"/><path d="M.082-.669h.089v.146h.083v.072H.171v.341q0 .027.018.037a.1.1 0 0 0 .035.005h.013l.017-.001V0L.223.006a.1.1 0 0 1-.035.002q-.061 0-.084-.031a.14.14 0 0 1-.022-.082v-.346H.011v-.072h.071z" style="fill-rule:nonzero" transform="translate(342.352 95.033)scale(8.09131)"/><path d="m.107-.523.14.426.146-.426h.096L.292 0H.198L.005-.523z" style="fill-rule:nonzero" transform="translate(336.06 74.804)scale(8.09131)"/><path d="M.031 0a.4.4 0 0 1 .038-.157.3.3 0 0 1 .126-.122l.094-.054a.4.4 0 0 0 .088-.063.13.13 0 0 0 .04-.092.13.13 0 0 0-.036-.097.14.14 0 0 0-.098-.036q-.09 0-.125.068a.3.3 0 0 0-.02.102h-.09A.3.3 0 0 1 .082-.6q.057-.102.202-.102.12 0 .175.065.055.062.056.145 0 .084-.059.143a.6.6 0 0 1-.123.084l-.067.037a.4.4 0 0 0-.075.051.2.2 0 0 0-.062.094h.382V0z" style="fill-rule:nonzero" transform="translate(340.105 74.804)scale(8.09131)"/><path d="m.107-.523.14.426.146-.426h.096L.292 0H.198L.005-.523z" style="fill-rule:nonzero" transform="translate(329.317 54.576)scale(8.09131)"/><path d="M.031 0a.4.4 0 0 1 .038-.157.3.3 0 0 1 .126-.122l.094-.054a.4.4 0 0 0 .088-.063.13.13 0 0 0 .04-.092.13.13 0 0 0-.036-.097.14.14 0 0 0-.098-.036q-.09 0-.125.068a.3.3 0 0 0-.02.102h-.09A.3.3 0 0 1 .082-.6q.057-.102.202-.102.12 0 .175.065.055.062.056.145 0 .084-.059.143a.6.6 0 0 1-.123.084l-.067.037a.4.4 0 0 0-.075.051.2.2 0 0 0-.062.094h.382V0z" style="fill-rule:nonzero" transform="translate(333.36 54.576)scale(8.09131)"/><path d="M.085-.106h.102V0H.085z" style="fill-rule:nonzero" transform="translate(337.857 54.576)scale(8.09131)"/><path d="M.271-.699q.135 0 .196.112a.5.5 0 0 1 .047.236.6.6 0 0 1-.043.236Q.41.019.27.019A.2.2 0 0 1 .083-.09a.5.5 0 0 1-.052-.245q0-.12.031-.205.057-.159.209-.159M.27-.061q.068 0 .108-.061.04-.06.041-.225 0-.12-.029-.196A.11.11 0 0 0 .276-.62a.12.12 0 0 0-.114.073.5.5 0 0 0-.036.215q0 .107.023.172.036.099.121.099" style="fill-rule:nonzero" transform="translate(340.103 54.576)scale(8.09131)"/><path d="m.107-.523.14.426.146-.426h.096L.292 0H.198L.005-.523z" style="fill-rule:nonzero" transform="translate(322.564 34.348)scale(8.09131)"/><path d="M.031 0a.4.4 0 0 1 .038-.157.3.3 0 0 1 .126-.122l.094-.054a.4.4 0 0 0 .088-.063.13.13 0 0 0 .04-.092.13.13 0 0 0-.036-.097.14.14 0 0 0-.098-.036q-.09 0-.125.068a.3.3 0 0 0-.02.102h-.09A.3.3 0 0 1 .082-.6q.057-.102.202-.102.12 0 .175.065.055.062.056.145 0 .084-.059.143a.6.6 0 0 1-.123.084l-.067.037a.4.4 0 0 0-.075.051.2.2 0 0 0-.062.094h.382V0z" style="fill-rule:nonzero" transform="translate(326.606 34.348)scale(8.09131)"/><path d="M.085-.106h.102V0H.085z" style="fill-rule:nonzero" transform="translate(331.103 34.348)scale(8.09131)"/><path d="M.271-.699q.135 0 .196.112a.5.5 0 0 1 .047.236.6.6 0 0 1-.043.236Q.41.019.27.019A.2.2 0 0 1 .083-.09a.5.5 0 0 1-.052-.245q0-.12.031-.205.057-.159.209-.159M.27-.061q.068 0 .108-.061.04-.06.041-.225 0-.12-.029-.196A.11.11 0 0 0 .276-.62a.12.12 0 0 0-.114.073.5.5 0 0 0-.036.215q0 .107.023.172.036.099.121.099" style="fill-rule:nonzero" transform="translate(333.348 34.348)scale(8.09131)"/><path d="M.085-.106h.102V0H.085z" style="fill-rule:nonzero" transform="translate(337.845 34.348)scale(8.09131)"/><path d="M.271-.699q.135 0 .196.112a.5.5 0 0 1 .047.236.6.6 0 0 1-.043.236Q.41.019.27.019A.2.2 0 0 1 .083-.09a.5.5 0 0 1-.052-.245q0-.12.031-.205.057-.159.209-.159M.27-.061q.068 0 .108-.061.04-.06.041-.225 0-.12-.029-.196A.11.11 0 0 0 .276-.62a.12.12 0 0 0-.114.073.5.5 0 0 0-.036.215q0 .107.023.172.036.099.121.099" style="fill-rule:nonzero" transform="translate(340.09 34.348)scale(8.09131)"/><path d="M.031 0a.4.4 0 0 1 .038-.157.3.3 0 0 1 .126-.122l.094-.054a.4.4 0 0 0 .088-.063.13.13 0 0 0 .04-.092.13.13 0 0 0-.036-.097.14.14 0 0 0-.098-.036q-.09 0-.125.068a.3.3 0 0 0-.02.102h-.09A.3.3 0 0 1 .082-.6q.057-.102.202-.102.12 0 .175.065.055.062.056.145 0 .084-.059.143a.6.6 0 0 1-.123.084l-.067.037a.4.4 0 0 0-.075.051.2.2 0 0 0-.062.094h.382V0z" style="fill-rule:nonzero" transform="translate(326.609 14.12)scale(8.09131)"/><path d="M.085-.106h.102V0H.085z" style="fill-rule:nonzero" transform="translate(331.105 14.12)scale(8.09131)"/><path d="M.271-.699q.135 0 .196.112a.5.5 0 0 1 .047.236.6.6 0 0 1-.043.236Q.41.019.27.019A.2.2 0 0 1 .083-.09a.5.5 0 0 1-.052-.245q0-.12.031-.205.057-.159.209-.159M.27-.061q.068 0 .108-.061.04-.06.041-.225 0-.12-.029-.196A.11.11 0 0 0 .276-.62a.12.12 0 0 0-.114.073.5.5 0 0 0-.036.215q0 .107.023.172.036.099.121.099" style="fill-rule:nonzero" transform="translate(333.349 14.12)scale(8.09131)"/><path d="M.085-.106h.102V0H.085z" style="fill-rule:nonzero" transform="translate(337.845 14.12)scale(8.09131)"/><path d="M.271-.699q.135 0 .196.112a.5.5 0 0 1 .047.236.6.6 0 0 1-.043.236Q.41.019.27.019A.2.2 0 0 1 .083-.09a.5.5 0 0 1-.052-.245q0-.12.031-.205.057-.159.209-.159M.27-.061q.068 0 .108-.061.04-.06.041-.225 0-.12-.029-.196A.11.11 0 0 0 .276-.62a.12.12 0 0 0-.114.073.5.5 0 0 0-.036.215q0 .107.023.172.036.099.121.099" style="fill-rule:nonzero" transform="translate(340.09 14.12)scale(8.09131)"/><path d="M290 350h29.76" style="fill:none;fill-rule:nonzero;stroke:#6c8ebf;stroke-width:2px" transform="matrix(.67428 0 0 -.67428 -89.619 328.332)"/><path d="m327.76 350-8-2.67v5.34z" style="fill:#6c8ebf;fill-rule:nonzero;stroke:#6c8ebf;stroke-width:2px" transform="matrix(.67428 0 0 -.67428 -89.619 328.332)"/><path d="M380 350h29.76" style="fill:none;fill-rule:nonzero;stroke:#6c8ebf;stroke-width:2px" transform="matrix(.67428 0 0 -.67428 -89.619 328.332)"/><path d="m417.76 350-8-2.67v5.34z" style="fill:#6c8ebf;fill-rule:nonzero;stroke:#6c8ebf;stroke-width:2px" transform="matrix(.67428 0 0 -.67428 -89.619 328.332)"/><path d="M470 350h29.76" style="fill:none;fill-rule:nonzero;stroke:#6c8ebf;stroke-width:2px" transform="matrix(.67428 0 0 -.67428 -89.619 328.332)"/><path d="m507.76 350-8-2.67v5.34z" style="fill:#6c8ebf;fill-rule:nonzero;stroke:#6c8ebf;stroke-width:2px" transform="matrix(.67428 0 0 -.67428 -89.619 328.332)"/><path d="M560 350h29.76" style="fill:none;fill-rule:nonzero;stroke:#6c8ebf;stroke-width:2px" transform="matrix(.67428 0 0 -.67428 -89.619 328.332)"/><path d="m597.76 350-8-2.67v5.34z" style="fill:#6c8ebf;fill-rule:nonzero;stroke:#6c8ebf;stroke-width:2px" transform="matrix(.67428 0 0 -.67428 -89.619 328.332)"/><path d="M290 320h29.76" style="fill:none;fill-rule:nonzero;stroke:#6c8ebf;stroke-width:2px" transform="matrix(.67428 0 0 -.67428 -89.619 287.875)"/><path d="m327.76 320-8-2.67v5.34z" style="fill:#6c8ebf;fill-rule:nonzero;stroke:#6c8ebf;stroke-width:2px" transform="matrix(.67428 0 0 -.67428 -89.619 287.875)"/><path d="M380 320h29.76" style="fill:none;fill-rule:nonzero;stroke:#6c8ebf;stroke-width:2px" transform="matrix(.67428 0 0 -.67428 -89.619 287.875)"/><path d="m417.76 320-8-2.67v5.34z" style="fill:#6c8ebf;fill-rule:nonzero;stroke:#6c8ebf;stroke-width:2px" transform="matrix(.67428 0 0 -.67428 -89.619 287.875)"/><path d="M470 320h29.76" style="fill:none;fill-rule:nonzero;stroke:#6c8ebf;stroke-width:2px" transform="matrix(.67428 0 0 -.67428 -89.619 287.875)"/><path d="m507.76 320-8-2.67v5.34z" style="fill:#6c8ebf;fill-rule:nonzero;stroke:#6c8ebf;stroke-width:2px" transform="matrix(.67428 0 0 -.67428 -89.619 287.875)"/><path d="M290 290h29.76" style="fill:none;fill-rule:nonzero;stroke:#6c8ebf;stroke-width:2px" transform="matrix(.67428 0 0 -.67428 -89.619 247.419)"/><path d="m327.76 290-8-2.67v5.34z" style="fill:#6c8ebf;fill-rule:nonzero;stroke:#6c8ebf;stroke-width:2px" transform="matrix(.67428 0 0 -.67428 -89.619 247.419)"/><path d="M470 290h29.76" style="fill:none;fill-rule:nonzero;stroke:#6c8ebf;stroke-width:2px" transform="matrix(.67428 0 0 -.67428 -89.619 247.419)"/><path d="m507.76 290-8-2.67v5.34z" style="fill:#6c8ebf;fill-rule:nonzero;stroke:#6c8ebf;stroke-width:2px" transform="matrix(.67428 0 0 -.67428 -89.619 247.419)"/><path d="M230 360h-5q-5 0-5-10v-35q0-10-5-10h-2.5 5q2.5 0 2.5-10v-35q0-10 5-10h5" style="fill:none;fill-rule:nonzero;stroke:#000;stroke-width:1px" transform="matrix(.67428 0 0 -.67428 -89.282 267.984)"/><path d="M163 395h34a2.98 2.98 0 0 0 2.121-.879A2.98 2.98 0 0 0 200 392v-14a2.98 2.98 0 0 0-.879-2.121A3 3 0 0 0 197 375h-34q-.597 0-1.148.228a3 3 0 0 0-.973.651A3 3 0 0 0 160 378v14q0 .597.228 1.148.23.552.651.973A2.98 2.98 0 0 0 163 395Z" style="fill:#d0cee2;fill-rule:nonzero;stroke:#56517e;stroke-width:1px;stroke-miterlimit:4" transform="matrix(.67428 0 0 -.67428 -89.282 375.868)"/><path d="M.064-.523h.087v.074a.3.3 0 0 1 .057-.056.17.17 0 0 1 .099-.03q.062 0 .1.031.026.022.039.052a.19.19 0 0 1 .158-.083q.105 0 .144.077.02.04.02.11V0H.677v-.363q0-.052-.026-.072a.1.1 0 0 0-.064-.02.13.13 0 0 0-.089.035Q.46-.385.46-.304V0H.371v-.341a.2.2 0 0 0-.013-.078Q.338-.455.284-.456a.13.13 0 0 0-.091.039q-.04.04-.041.14V0H.064z" style="fill-rule:nonzero" transform="translate(23.712 118.632)scale(7.41703)"/><path d="M.132-.139q0 .037.028.06a.1.1 0 0 0 .066.022q.046 0 .089-.022a.12.12 0 0 0 .074-.116v-.071a.3.3 0 0 1-.092.027l-.053.007a.2.2 0 0 0-.072.02q-.04.022-.04.073m.213-.178q.03-.004.04-.025a.1.1 0 0 0 .006-.034q0-.045-.032-.065a.17.17 0 0 0-.091-.02q-.07 0-.098.037a.1.1 0 0 0-.021.061H.067Q.069-.461.13-.498a.26.26 0 0 1 .14-.038q.092 0 .149.036.058.034.058.109v.301q0 .014.005.022.006.008.024.008h.013l.016-.003v.065L.503.01.474.011q-.045 0-.066-.032a.1.1 0 0 1-.015-.048.25.25 0 0 1-.188.087.17.17 0 0 1-.119-.045.14.14 0 0 1-.046-.11q0-.073.045-.113a.2.2 0 0 1 .12-.049z" style="fill-rule:nonzero" transform="translate(29.89 118.632)scale(7.41703)"/><path d="M.064-.521h.09V0h-.09zm0-.196h.09v.099h-.09z" style="fill-rule:nonzero" transform="translate(34.014 118.632)scale(7.41703)"/><path d="M.064-.523h.084v.074a.3.3 0 0 1 .079-.066.2.2 0 0 1 .092-.02q.111 0 .15.078a.3.3 0 0 1 .022.122V0h-.09v-.33a.2.2 0 0 0-.014-.077Q.364-.455.302-.456a.2.2 0 0 0-.051.007.13.13 0 0 0-.063.043.1.1 0 0 0-.029.053.4.4 0 0 0-.007.079V0H.064z" style="fill-rule:nonzero" transform="translate(35.661 118.632)scale(7.41703)"/><path d="M.074-.717h.139l.206.606.205-.606h.137V0H.669v-.423L.67-.496l.001-.109L.466 0H.37L.164-.605v.022l.001.08.002.08V0H.074z" style="fill-rule:nonzero" transform="translate(4.569 64.69)scale(7.41703)"/><path d="M.272-.057q.087 0 .12-.066A.34.34 0 0 0 .424-.27a.26.26 0 0 0-.023-.119Q.363-.461.273-.461q-.081 0-.117.061a.3.3 0 0 0-.037.149q0 .083.037.139.036.055.116.055m.003-.481q.102 0 .171.067t.07.199a.34.34 0 0 1-.061.209Q.393.019.264.019a.22.22 0 0 1-.172-.073.3.3 0 0 1-.063-.196.3.3 0 0 1 .067-.21.22.22 0 0 1 .179-.078" style="fill-rule:nonzero" transform="translate(10.746 64.69)scale(7.41703)"/><path d="m.107-.523.14.426.146-.426h.096L.292 0H.198L.005-.523z" style="fill-rule:nonzero" transform="translate(14.87 64.69)scale(7.41703)"/><path d="M.064-.521h.09V0h-.09zm0-.196h.09v.099h-.09z" style="fill-rule:nonzero" transform="translate(18.577 64.69)scale(7.41703)"/><path d="M.064-.523h.084v.074a.3.3 0 0 1 .079-.066.2.2 0 0 1 .092-.02q.111 0 .15.078a.3.3 0 0 1 .022.122V0h-.09v-.33a.2.2 0 0 0-.014-.077Q.364-.455.302-.456a.2.2 0 0 0-.051.007.13.13 0 0 0-.063.043.1.1 0 0 0-.029.053.4.4 0 0 0-.007.079V0H.064z" style="fill-rule:nonzero" transform="translate(20.223 64.69)scale(7.41703)"/><path d="M.249-.532q.058 0 .107.03.03.02.051.05v-.066h.081v.476a.34.34 0 0 1-.029.157Q.405.221.252.221A.25.25 0 0 1 .11.183.14.14 0 0 1 .046.065h.089q.005.03.026.054.03.03.093.029.102 0 .133-.071a.4.4 0 0 0 .017-.15.2.2 0 0 1-.064.06.2.2 0 0 1-.098.019.2.2 0 0 1-.148-.06Q.03-.114.03-.253a.3.3 0 0 1 .064-.205.2.2 0 0 1 .155-.074m.158.268q0-.096-.04-.144a.13.13 0 0 0-.102-.047.13.13 0 0 0-.127.087.4.4 0 0 0-.018.122q0 .089.036.134a.12.12 0 0 0 .096.047.14.14 0 0 0 .134-.086.3.3 0 0 0 .021-.113" style="fill-rule:nonzero" transform="translate(24.347 64.69)scale(7.41703)"/><path d="M.082-.669h.089v.146h.083v.072H.171v.341q0 .027.018.037a.1.1 0 0 0 .035.005h.013l.017-.001V0L.223.006a.1.1 0 0 1-.035.002q-.061 0-.084-.031a.14.14 0 0 1-.022-.082v-.346H.011v-.072h.071z" style="fill-rule:nonzero" transform="translate(30.529 64.69)scale(7.41703)"/><path d="M.132-.139q0 .037.028.06a.1.1 0 0 0 .066.022q.046 0 .089-.022a.12.12 0 0 0 .074-.116v-.071a.3.3 0 0 1-.092.027l-.053.007a.2.2 0 0 0-.072.02q-.04.022-.04.073m.213-.178q.03-.004.04-.025a.1.1 0 0 0 .006-.034q0-.045-.032-.065a.17.17 0 0 0-.091-.02q-.07 0-.098.037a.1.1 0 0 0-.021.061H.067Q.069-.461.13-.498a.26.26 0 0 1 .14-.038q.092 0 .149.036.058.034.058.109v.301q0 .014.005.022.006.008.024.008h.013l.016-.003v.065L.503.01.474.011q-.045 0-.066-.032a.1.1 0 0 1-.015-.048.25.25 0 0 1-.188.087.17.17 0 0 1-.119-.045.14.14 0 0 1-.046-.11q0-.073.045-.113a.2.2 0 0 1 .12-.049z" style="fill-rule:nonzero" transform="translate(32.589 64.69)scale(7.41703)"/><path d="M.249-.532q.058 0 .107.03.03.02.051.05v-.066h.081v.476a.34.34 0 0 1-.029.157Q.405.221.252.221A.25.25 0 0 1 .11.183.14.14 0 0 1 .046.065h.089q.005.03.026.054.03.03.093.029.102 0 .133-.071a.4.4 0 0 0 .017-.15.2.2 0 0 1-.064.06.2.2 0 0 1-.098.019.2.2 0 0 1-.148-.06Q.03-.114.03-.253a.3.3 0 0 1 .064-.205.2.2 0 0 1 .155-.074m.158.268q0-.096-.04-.144a.13.13 0 0 0-.102-.047.13.13 0 0 0-.127.087.4.4 0 0 0-.018.122q0 .089.036.134a.12.12 0 0 0 .096.047.14.14 0 0 0 .134-.086.3.3 0 0 0 .021-.113" style="fill-rule:nonzero" transform="translate(36.712 64.69)scale(7.41703)"/><path d="M.117-.164q0 .037.022.067.033.043.115.043.045 0 .086-.021a.07.07 0 0 0 .037-.066q0-.034-.03-.051a.3.3 0 0 0-.075-.025l-.07-.018a.3.3 0 0 1-.098-.037.11.11 0 0 1-.057-.099q0-.074.053-.12a.22.22 0 0 1 .144-.046q.119 0 .171.07.032.042.031.094H.363a.1.1 0 0 0-.021-.054Q.312-.461.237-.461q-.05 0-.075.019a.06.06 0 0 0-.026.05q0 .034.034.055.028.015.058.021l.058.014q.094.023.127.045.051.033.051.106a.16.16 0 0 1-.053.12Q.358.02.25.02.133.02.084-.033a.2.2 0 0 1-.052-.131z" style="fill-rule:nonzero" transform="translate(40.836 64.69)scale(7.41703)"/><path d="M.352-.083a.3.3 0 0 0 .081-.01.2.2 0 0 0 .092-.074.38.38 0 0 0 .049-.186.35.35 0 0 0-.053-.207Q.468-.634.351-.634H.178v.551zM.081-.717h.29q.148 0 .23.105a.4.4 0 0 1 .072.242.5.5 0 0 1-.043.207A.26.26 0 0 1 .37 0H.081z" style="fill-rule:nonzero" transform="translate(4.98 14.12)scale(7.41703)"/><path d="M.282-.535q.055 0 .108.026a.2.2 0 0 1 .08.068q.027.042.035.092a1 1 0 0 1 .008.116H.129a.23.23 0 0 0 .038.127q.035.048.109.048a.14.14 0 0 0 .11-.045.2.2 0 0 0 .033-.061h.086a.23.23 0 0 1-.066.122.2.2 0 0 1-.099.053.3.3 0 0 1-.071.008.22.22 0 0 1-.166-.071.28.28 0 0 1-.068-.199.3.3 0 0 1 .069-.205.23.23 0 0 1 .178-.079m.14.232a.2.2 0 0 0-.025-.092Q.361-.458.277-.458a.14.14 0 0 0-.102.044.16.16 0 0 0-.043.111z" style="fill-rule:nonzero" transform="translate(10.334 14.12)scale(7.41703)"/><path d="M.086-.603a.2.2 0 0 1 .019-.08q.032-.045.119-.045l.017.001.02.001v.08l-.02-.001H.23q-.04 0-.048.021a.4.4 0 0 0-.008.105h.087v.07H.173V0H.086v-.451H.014v-.07h.072z" style="fill-rule:nonzero" transform="translate(14.456 14.12)scale(7.41703)"/><path d="M.132-.139q0 .037.028.06a.1.1 0 0 0 .066.022q.046 0 .089-.022a.12.12 0 0 0 .074-.116v-.071a.3.3 0 0 1-.092.027l-.053.007a.2.2 0 0 0-.072.02q-.04.022-.04.073m.213-.178q.03-.004.04-.025a.1.1 0 0 0 .006-.034q0-.045-.032-.065a.17.17 0 0 0-.091-.02q-.07 0-.098.037a.1.1 0 0 0-.021.061H.067Q.069-.461.13-.498a.26.26 0 0 1 .14-.038q.092 0 .149.036.058.034.058.109v.301q0 .014.005.022.006.008.024.008h.013l.016-.003v.065L.503.01.474.011q-.045 0-.066-.032a.1.1 0 0 1-.015-.048.25.25 0 0 1-.188.087.17.17 0 0 1-.119-.045.14.14 0 0 1-.046-.11q0-.073.045-.113a.2.2 0 0 1 .12-.049z" style="fill-rule:nonzero" transform="translate(16.514 14.12)scale(7.41703)"/><path d="M.152-.523v.347q0 .04.013.066.024.047.087.047.092 0 .125-.083a.3.3 0 0 0 .019-.12v-.257h.087V0H.4l.001-.077a.2.2 0 0 1-.042.05.2.2 0 0 1-.122.041q-.113 0-.153-.075a.2.2 0 0 1-.021-.106v-.356z" style="fill-rule:nonzero" transform="translate(20.636 14.12)scale(7.41703)"/><path d="M.067-.717h.088V0H.067z" style="fill-rule:nonzero" transform="translate(24.759 14.12)scale(7.41703)"/><path d="M.082-.669h.089v.146h.083v.072H.171v.341q0 .027.018.037a.1.1 0 0 0 .035.005h.013l.017-.001V0L.223.006a.1.1 0 0 1-.035.002q-.061 0-.084-.031a.14.14 0 0 1-.022-.082v-.346H.011v-.072h.071z" style="fill-rule:nonzero" transform="translate(26.404 14.12)scale(7.41703)"/><path d="M.082-.669h.089v.146h.083v.072H.171v.341q0 .027.018.037a.1.1 0 0 0 .035.005h.013l.017-.001V0L.223.006a.1.1 0 0 1-.035.002q-.061 0-.084-.031a.14.14 0 0 1-.022-.082v-.346H.011v-.072h.071z" style="fill-rule:nonzero" transform="translate(30.52 14.12)scale(7.41703)"/><path d="M.132-.139q0 .037.028.06a.1.1 0 0 0 .066.022q.046 0 .089-.022a.12.12 0 0 0 .074-.116v-.071a.3.3 0 0 1-.092.027l-.053.007a.2.2 0 0 0-.072.02q-.04.022-.04.073m.213-.178q.03-.004.04-.025a.1.1 0 0 0 .006-.034q0-.045-.032-.065a.17.17 0 0 0-.091-.02q-.07 0-.098.037a.1.1 0 0 0-.021.061H.067Q.069-.461.13-.498a.26.26 0 0 1 .14-.038q.092 0 .149.036.058.034.058.109v.301q0 .014.005.022.006.008.024.008h.013l.016-.003v.065L.503.01.474.011q-.045 0-.066-.032a.1.1 0 0 1-.015-.048.25.25 0 0 1-.188.087.17.17 0 0 1-.119-.045.14.14 0 0 1-.046-.11q0-.073.045-.113a.2.2 0 0 1 .12-.049z" style="fill-rule:nonzero" transform="translate(32.578 14.12)scale(7.41703)"/><path d="M.249-.532q.058 0 .107.03.03.02.051.05v-.066h.081v.476a.34.34 0 0 1-.029.157Q.405.221.252.221A.25.25 0 0 1 .11.183.14.14 0 0 1 .046.065h.089q.005.03.026.054.03.03.093.029.102 0 .133-.071a.4.4 0 0 0 .017-.15.2.2 0 0 1-.064.06.2.2 0 0 1-.098.019.2.2 0 0 1-.148-.06Q.03-.114.03-.253a.3.3 0 0 1 .064-.205.2.2 0 0 1 .155-.074m.158.268q0-.096-.04-.144a.13.13 0 0 0-.102-.047.13.13 0 0 0-.127.087.4.4 0 0 0-.018.122q0 .089.036.134a.12.12 0 0 0 .096.047.14.14 0 0 0 .134-.086.3.3 0 0 0 .021-.113" style="fill-rule:nonzero" transform="translate(36.7 14.12)scale(7.41703)"/><path d="M.117-.164q0 .037.022.067.033.043.115.043.045 0 .086-.021a.07.07 0 0 0 .037-.066q0-.034-.03-.051a.3.3 0 0 0-.075-.025l-.07-.018a.3.3 0 0 1-.098-.037.11.11 0 0 1-.057-.099q0-.074.053-.12a.22.22 0 0 1 .144-.046q.119 0 .171.07.032.042.031.094H.363a.1.1 0 0 0-.021-.054Q.312-.461.237-.461q-.05 0-.075.019a.06.06 0 0 0-.026.05q0 .034.034.055.028.015.058.021l.058.014q.094.023.127.045.051.033.051.106a.16.16 0 0 1-.053.12Q.358.02.25.02.133.02.084-.033a.2.2 0 0 1-.052-.131z" style="fill-rule:nonzero" transform="translate(40.823 14.12)scale(7.41703)"/><path d="M.266-.538q.089 0 .144.043t.067.148H.391a.15.15 0 0 0-.036-.08Q.328-.459.266-.459q-.084 0-.12.082a.3.3 0 0 0-.023.131q0 .078.033.132T.26-.06a.1.1 0 0 0 .087-.034.2.2 0 0 0 .044-.091h.086a.23.23 0 0 1-.074.152.23.23 0 0 1-.15.048A.2.2 0 0 1 .09-.06a.3.3 0 0 1-.061-.187q0-.138.067-.214a.21.21 0 0 1 .17-.077" style="fill-rule:nonzero" transform="scale(7.41703)rotate(-45 29.696 -.445)"/><path d="M.272-.057q.087 0 .12-.066A.34.34 0 0 0 .424-.27a.26.26 0 0 0-.023-.119Q.363-.461.273-.461q-.081 0-.117.061a.3.3 0 0 0-.037.149q0 .083.037.139.036.055.116.055m.003-.481q.102 0 .171.067t.07.199a.34.34 0 0 1-.061.209Q.393.019.264.019a.22.22 0 0 1-.172-.073.3.3 0 0 1-.063-.196.3.3 0 0 1 .067-.21.22.22 0 0 1 .179-.078" style="fill-rule:nonzero" transform="scale(7.41703)rotate(-45 29.446 -1.049)"/><path d="M.064-.523h.087v.074a.3.3 0 0 1 .057-.056.17.17 0 0 1 .099-.03q.062 0 .1.031.026.022.039.052a.19.19 0 0 1 .158-.083q.105 0 .144.077.02.04.02.11V0H.677v-.363q0-.052-.026-.072a.1.1 0 0 0-.064-.02.13.13 0 0 0-.089.035Q.46-.385.46-.304V0H.371v-.341a.2.2 0 0 0-.013-.078Q.338-.455.284-.456a.13.13 0 0 0-.091.039q-.04.04-.041.14V0H.064z" style="fill-rule:nonzero" transform="scale(7.41703)rotate(-45 29.168 -1.72)"/><path d="M.064-.523h.087v.074a.3.3 0 0 1 .057-.056.17.17 0 0 1 .099-.03q.062 0 .1.031.026.022.039.052a.19.19 0 0 1 .158-.083q.105 0 .144.077.02.04.02.11V0H.677v-.363q0-.052-.026-.072a.1.1 0 0 0-.064-.02.13.13 0 0 0-.089.035Q.46-.385.46-.304V0H.371v-.341a.2.2 0 0 0-.013-.078Q.338-.455.284-.456a.13.13 0 0 0-.091.039q-.04.04-.041.14V0H.064z" style="fill-rule:nonzero" transform="scale(7.41703)rotate(-45 28.752 -2.725)"/><path d="M.064-.521h.09V0h-.09zm0-.196h.09v.099h-.09z" style="fill-rule:nonzero" transform="scale(7.41703)rotate(-45 28.335 -3.73)"/><path d="M.082-.669h.089v.146h.083v.072H.171v.341q0 .027.018.037a.1.1 0 0 0 .035.005h.013l.017-.001V0L.223.006a.1.1 0 0 1-.035.002q-.061 0-.084-.031a.14.14 0 0 1-.022-.082v-.346H.011v-.072h.071z" style="fill-rule:nonzero" transform="scale(7.41703)rotate(-45 28.224 -3.998)"/><path d="M.096-.495v-.068a.4.4 0 0 0 .133-.031q.037-.021.056-.102h.069V0H.26v-.495z" style="fill-rule:nonzero" transform="scale(7.41703)rotate(-45 27.947 -4.669)"/><path d="M.266-.538q.089 0 .144.043t.067.148H.391a.15.15 0 0 0-.036-.08Q.328-.459.266-.459q-.084 0-.12.082a.3.3 0 0 0-.023.131q0 .078.033.132T.26-.06a.1.1 0 0 0 .087-.034.2.2 0 0 0 .044-.091h.086a.23.23 0 0 1-.074.152.23.23 0 0 1-.15.048A.2.2 0 0 1 .09-.06a.3.3 0 0 1-.061-.187q0-.138.067-.214a.21.21 0 0 1 .17-.077" style="fill-rule:nonzero" transform="scale(7.41703)rotate(-45 33.787 -10.322)"/><path d="M.272-.057q.087 0 .12-.066A.34.34 0 0 0 .424-.27a.26.26 0 0 0-.023-.119Q.363-.461.273-.461q-.081 0-.117.061a.3.3 0 0 0-.037.149q0 .083.037.139.036.055.116.055m.003-.481q.102 0 .171.067t.07.199a.34.34 0 0 1-.061.209Q.393.019.264.019a.22.22 0 0 1-.172-.073.3.3 0 0 1-.063-.196.3.3 0 0 1 .067-.21.22.22 0 0 1 .179-.078" style="fill-rule:nonzero" transform="scale(7.41703)rotate(-45 33.537 -10.925)"/><path d="M.064-.523h.087v.074a.3.3 0 0 1 .057-.056.17.17 0 0 1 .099-.03q.062 0 .1.031.026.022.039.052a.19.19 0 0 1 .158-.083q.105 0 .144.077.02.04.02.11V0H.677v-.363q0-.052-.026-.072a.1.1 0 0 0-.064-.02.13.13 0 0 0-.089.035Q.46-.385.46-.304V0H.371v-.341a.2.2 0 0 0-.013-.078Q.338-.455.284-.456a.13.13 0 0 0-.091.039q-.04.04-.041.14V0H.064z" style="fill-rule:nonzero" transform="scale(7.41703)rotate(-45 33.26 -11.596)"/><path d="M.064-.523h.087v.074a.3.3 0 0 1 .057-.056.17.17 0 0 1 .099-.03q.062 0 .1.031.026.022.039.052a.19.19 0 0 1 .158-.083q.105 0 .144.077.02.04.02.11V0H.677v-.363q0-.052-.026-.072a.1.1 0 0 0-.064-.02.13.13 0 0 0-.089.035Q.46-.385.46-.304V0H.371v-.341a.2.2 0 0 0-.013-.078Q.338-.455.284-.456a.13.13 0 0 0-.091.039q-.04.04-.041.14V0H.064z" style="fill-rule:nonzero" transform="scale(7.41703)rotate(-45 32.843 -12.602)"/><path d="M.064-.521h.09V0h-.09zm0-.196h.09v.099h-.09z" style="fill-rule:nonzero" transform="scale(7.41703)rotate(-45 32.426 -13.607)"/><path d="M.082-.669h.089v.146h.083v.072H.171v.341q0 .027.018.037a.1.1 0 0 0 .035.005h.013l.017-.001V0L.223.006a.1.1 0 0 1-.035.002q-.061 0-.084-.031a.14.14 0 0 1-.022-.082v-.346H.011v-.072h.071z" style="fill-rule:nonzero" transform="scale(7.41703)rotate(-45 32.315 -13.875)"/><path d="M.031 0a.4.4 0 0 1 .038-.157.3.3 0 0 1 .126-.122l.094-.054a.4.4 0 0 0 .088-.063.13.13 0 0 0 .04-.092.13.13 0 0 0-.036-.097.14.14 0 0 0-.098-.036q-.09 0-.125.068a.3.3 0 0 0-.02.102h-.09A.3.3 0 0 1 .082-.6q.057-.102.202-.102.12 0 .175.065.055.062.056.145 0 .084-.059.143a.6.6 0 0 1-.123.084l-.067.037a.4.4 0 0 0-.075.051.2.2 0 0 0-.062.094h.382V0z" style="fill-rule:nonzero" transform="scale(7.41703)rotate(-45 32.038 -14.545)"/><path d="M.266-.538q.089 0 .144.043t.067.148H.391a.15.15 0 0 0-.036-.08Q.328-.459.266-.459q-.084 0-.12.082a.3.3 0 0 0-.023.131q0 .078.033.132T.26-.06a.1.1 0 0 0 .087-.034.2.2 0 0 0 .044-.091h.086a.23.23 0 0 1-.074.152.23.23 0 0 1-.15.048A.2.2 0 0 1 .09-.06a.3.3 0 0 1-.061-.187q0-.138.067-.214a.21.21 0 0 1 .17-.077" style="fill-rule:nonzero" transform="scale(7.41703)rotate(-45 37.878 -20.198)"/><path d="M.272-.057q.087 0 .12-.066A.34.34 0 0 0 .424-.27a.26.26 0 0 0-.023-.119Q.363-.461.273-.461q-.081 0-.117.061a.3.3 0 0 0-.037.149q0 .083.037.139.036.055.116.055m.003-.481q.102 0 .171.067t.07.199a.34.34 0 0 1-.061.209Q.393.019.264.019a.22.22 0 0 1-.172-.073.3.3 0 0 1-.063-.196.3.3 0 0 1 .067-.21.22.22 0 0 1 .179-.078" style="fill-rule:nonzero" transform="scale(7.41703)rotate(-45 37.628 -20.801)"/><path d="M.064-.523h.087v.074a.3.3 0 0 1 .057-.056.17.17 0 0 1 .099-.03q.062 0 .1.031.026.022.039.052a.19.19 0 0 1 .158-.083q.105 0 .144.077.02.04.02.11V0H.677v-.363q0-.052-.026-.072a.1.1 0 0 0-.064-.02.13.13 0 0 0-.089.035Q.46-.385.46-.304V0H.371v-.341a.2.2 0 0 0-.013-.078Q.338-.455.284-.456a.13.13 0 0 0-.091.039q-.04.04-.041.14V0H.064z" style="fill-rule:nonzero" transform="scale(7.41703)rotate(-45 37.35 -21.472)"/><path d="M.064-.523h.087v.074a.3.3 0 0 1 .057-.056.17.17 0 0 1 .099-.03q.062 0 .1.031.026.022.039.052a.19.19 0 0 1 .158-.083q.105 0 .144.077.02.04.02.11V0H.677v-.363q0-.052-.026-.072a.1.1 0 0 0-.064-.02.13.13 0 0 0-.089.035Q.46-.385.46-.304V0H.371v-.341a.2.2 0 0 0-.013-.078Q.338-.455.284-.456a.13.13 0 0 0-.091.039q-.04.04-.041.14V0H.064z" style="fill-rule:nonzero" transform="scale(7.41703)rotate(-45 36.934 -22.478)"/><path d="M.064-.521h.09V0h-.09zm0-.196h.09v.099h-.09z" style="fill-rule:nonzero" transform="scale(7.41703)rotate(-45 36.517 -23.483)"/><path d="M.082-.669h.089v.146h.083v.072H.171v.341q0 .027.018.037a.1.1 0 0 0 .035.005h.013l.017-.001V0L.223.006a.1.1 0 0 1-.035.002q-.061 0-.084-.031a.14.14 0 0 1-.022-.082v-.346H.011v-.072h.071z" style="fill-rule:nonzero" transform="scale(7.41703)rotate(-45 36.406 -23.751)"/><path d="M.26.019q-.124 0-.18-.068a.25.25 0 0 1-.056-.166h.092q.002.052.025.099.034.055.124.055a.16.16 0 0 0 .111-.037.12.12 0 0 0 .042-.096q0-.072-.044-.101a.23.23 0 0 0-.123-.029l-.018.001H.215V-.4l.023.002h.02q.05 0 .081-.016.056-.027.056-.097a.1.1 0 0 0-.038-.081.14.14 0 0 0-.086-.028q-.088 0-.122.058a.2.2 0 0 0-.021.092H.042q0-.078.031-.133Q.127-.7.262-.7a.26.26 0 0 1 .165.047c.04.034.062.085.059.138a.16.16 0 0 1-.035.105.2.2 0 0 1-.055.039q.054.015.086.058a.2.2 0 0 1 .031.106.22.22 0 0 1-.066.163.26.26 0 0 1-.187.063" style="fill-rule:nonzero" transform="scale(7.41703)rotate(-45 36.129 -24.421)"/><path d="M.266-.538q.089 0 .144.043t.067.148H.391a.15.15 0 0 0-.036-.08Q.328-.459.266-.459q-.084 0-.12.082a.3.3 0 0 0-.023.131q0 .078.033.132T.26-.06a.1.1 0 0 0 .087-.034.2.2 0 0 0 .044-.091h.086a.23.23 0 0 1-.074.152.23.23 0 0 1-.15.048A.2.2 0 0 1 .09-.06a.3.3 0 0 1-.061-.187q0-.138.067-.214a.21.21 0 0 1 .17-.077" style="fill-rule:nonzero" transform="scale(7.41703)rotate(-45 41.969 -30.074)"/><path d="M.272-.057q.087 0 .12-.066A.34.34 0 0 0 .424-.27a.26.26 0 0 0-.023-.119Q.363-.461.273-.461q-.081 0-.117.061a.3.3 0 0 0-.037.149q0 .083.037.139.036.055.116.055m.003-.481q.102 0 .171.067t.07.199a.34.34 0 0 1-.061.209Q.393.019.264.019a.22.22 0 0 1-.172-.073.3.3 0 0 1-.063-.196.3.3 0 0 1 .067-.21.22.22 0 0 1 .179-.078" style="fill-rule:nonzero" transform="scale(7.41703)rotate(-45 41.719 -30.678)"/><path d="M.064-.523h.087v.074a.3.3 0 0 1 .057-.056.17.17 0 0 1 .099-.03q.062 0 .1.031.026.022.039.052a.19.19 0 0 1 .158-.083q.105 0 .144.077.02.04.02.11V0H.677v-.363q0-.052-.026-.072a.1.1 0 0 0-.064-.02.13.13 0 0 0-.089.035Q.46-.385.46-.304V0H.371v-.341a.2.2 0 0 0-.013-.078Q.338-.455.284-.456a.13.13 0 0 0-.091.039q-.04.04-.041.14V0H.064z" style="fill-rule:nonzero" transform="scale(7.41703)rotate(-45 41.44 -31.349)"/><path d="M.064-.523h.087v.074a.3.3 0 0 1 .057-.056.17.17 0 0 1 .099-.03q.062 0 .1.031.026.022.039.052a.19.19 0 0 1 .158-.083q.105 0 .144.077.02.04.02.11V0H.677v-.363q0-.052-.026-.072a.1.1 0 0 0-.064-.02.13.13 0 0 0-.089.035Q.46-.385.46-.304V0H.371v-.341a.2.2 0 0 0-.013-.078Q.338-.455.284-.456a.13.13 0 0 0-.091.039q-.04.04-.041.14V0H.064z" style="fill-rule:nonzero" transform="scale(7.41703)rotate(-45 41.024 -32.354)"/><path d="M.064-.521h.09V0h-.09zm0-.196h.09v.099h-.09z" style="fill-rule:nonzero" transform="scale(7.41703)rotate(-45 40.608 -33.36)"/><path d="M.082-.669h.089v.146h.083v.072H.171v.341q0 .027.018.037a.1.1 0 0 0 .035.005h.013l.017-.001V0L.223.006a.1.1 0 0 1-.035.002q-.061 0-.084-.031a.14.14 0 0 1-.022-.082v-.346H.011v-.072h.071z" style="fill-rule:nonzero" transform="scale(7.41703)rotate(-45 40.497 -33.627)"/><path d="M.331-.248v-.316l-.225.316zM.332 0v-.171H.025v-.086l.321-.444H.42v.453h.103v.077H.42V0z" style="fill-rule:nonzero" transform="scale(7.41703)rotate(-45 40.22 -34.298)"/><path d="M.266-.538q.089 0 .144.043t.067.148H.391a.15.15 0 0 0-.036-.08Q.328-.459.266-.459q-.084 0-.12.082a.3.3 0 0 0-.023.131q0 .078.033.132T.26-.06a.1.1 0 0 0 .087-.034.2.2 0 0 0 .044-.091h.086a.23.23 0 0 1-.074.152.23.23 0 0 1-.15.048A.2.2 0 0 1 .09-.06a.3.3 0 0 1-.061-.187q0-.138.067-.214a.21.21 0 0 1 .17-.077" style="fill-rule:nonzero" transform="scale(7.41703)rotate(-45 46.06 -39.95)"/><path d="M.272-.057q.087 0 .12-.066A.34.34 0 0 0 .424-.27a.26.26 0 0 0-.023-.119Q.363-.461.273-.461q-.081 0-.117.061a.3.3 0 0 0-.037.149q0 .083.037.139.036.055.116.055m.003-.481q.102 0 .171.067t.07.199a.34.34 0 0 1-.061.209Q.393.019.264.019a.22.22 0 0 1-.172-.073.3.3 0 0 1-.063-.196.3.3 0 0 1 .067-.21.22.22 0 0 1 .179-.078" style="fill-rule:nonzero" transform="scale(7.41703)rotate(-45 45.81 -40.554)"/><path d="M.064-.523h.087v.074a.3.3 0 0 1 .057-.056.17.17 0 0 1 .099-.03q.062 0 .1.031.026.022.039.052a.19.19 0 0 1 .158-.083q.105 0 .144.077.02.04.02.11V0H.677v-.363q0-.052-.026-.072a.1.1 0 0 0-.064-.02.13.13 0 0 0-.089.035Q.46-.385.46-.304V0H.371v-.341a.2.2 0 0 0-.013-.078Q.338-.455.284-.456a.13.13 0 0 0-.091.039q-.04.04-.041.14V0H.064z" style="fill-rule:nonzero" transform="scale(7.41703)rotate(-45 45.532 -41.225)"/><path d="M.064-.523h.087v.074a.3.3 0 0 1 .057-.056.17.17 0 0 1 .099-.03q.062 0 .1.031.026.022.039.052a.19.19 0 0 1 .158-.083q.105 0 .144.077.02.04.02.11V0H.677v-.363q0-.052-.026-.072a.1.1 0 0 0-.064-.02.13.13 0 0 0-.089.035Q.46-.385.46-.304V0H.371v-.341a.2.2 0 0 0-.013-.078Q.338-.455.284-.456a.13.13 0 0 0-.091.039q-.04.04-.041.14V0H.064z" style="fill-rule:nonzero" transform="scale(7.41703)rotate(-45 45.116 -42.23)"/><path d="M.064-.521h.09V0h-.09zm0-.196h.09v.099h-.09z" style="fill-rule:nonzero" transform="scale(7.41703)rotate(-45 44.699 -43.236)"/><path d="M.082-.669h.089v.146h.083v.072H.171v.341q0 .027.018.037a.1.1 0 0 0 .035.005h.013l.017-.001V0L.223.006a.1.1 0 0 1-.035.002q-.061 0-.084-.031a.14.14 0 0 1-.022-.082v-.346H.011v-.072h.071z" style="fill-rule:nonzero" transform="scale(7.41703)rotate(-45 44.588 -43.504)"/><path d="M.124-.178a.12.12 0 0 0 .069.104.2.2 0 0 0 .073.014q.078 0 .115-.049A.2.2 0 0 0 .419-.22a.14.14 0 0 0-.045-.113.15.15 0 0 0-.107-.04.16.16 0 0 0-.133.066L.058-.311l.053-.377h.363v.085H.177l-.03.195a.2.2 0 0 1 .137-.044q.096 0 .163.062a.2.2 0 0 1 .067.157.27.27 0 0 1-.062.175Q.392.018.257.018a.24.24 0 0 1-.151-.049.19.19 0 0 1-.074-.147z" style="fill-rule:nonzero" transform="scale(7.41703)rotate(-45 44.31 -44.174)"/></svg>
