<svg xmlns="http://www.w3.org/2000/svg" xml:space="preserve" style="fill-rule:evenodd;clip-rule:evenodd;stroke-linejoin:round;stroke-miterlimit:2" viewBox="0 0 188 115"><path d="M549.75 299.249c3.383 0 13.411-2.88 13.411-12.816 0-4.752-3.262-6.912-4.953-8.64 2.235-21.168 10.753-57.312 13.532-83.376.543-5.184-.846-9.36-3.444-9.36-3.443 0-10.27 19.152-10.27 26.928 0 4.752 1.511 7.92 3.263 9.504-2.236 15.264-7.371 43.344-9.606 58.608-2.718.144-8.759 1.872-8.759 10.8 0 7.488 4.168 8.352 6.826 8.352" style="fill-rule:nonzero" transform="matrix(2.38369 0 0 1 -1294.16 -185.057)"/><path d="M574.82 294.641c2.961 0 5.196-4.176 5.196-11.52 0-5.472-1.329-12.816-4.048-12.816-2.597 0-5.739 6.48-5.739 12.96 0 6.048 1.994 11.376 4.591 11.376" style="fill-rule:nonzero" transform="matrix(2.38369 0 0 1 -1296.18 -185.057)"/><path d="M591.615 285.137c1.268-.288 1.631-2.448 2.174-4.32 2.477-7.2 6.041-15.408 9.908-23.616 1.631 12.816 3.624 23.184 5.98 22.896 1.148-.144 2.296-3.168 2.296-5.76 0-1.296-.906-3.6-1.389-7.056-.665-5.184-1.329-12.384-2.115-20.016 4.35-8.928 8.76-17.712 12.143-25.2 2.356-.72 3.926-5.616 3.806-9.792-.182-4.176-1.209-6.192-3.263-6.192-1.087 0-3.02 3.312-4.108 5.184-3.745 6.336-7.007 13.536-10.209 21.024-1.45-12.24-3.262-22.32-5.618-21.888-1.39.288-2.598 1.296-2.598 3.744 0 2.304.846 4.32 1.208 8.208.665 5.616 1.39 13.248 2.236 21.024a268 268 0 0 1-2.719 6.192c-3.806 8.352-6.645 14.112-10.511 21.6-.665 1.152-.846 3.024-.786 4.608.182 3.6 1.209 9.648 3.565 9.36" style="fill:#c03b3b;fill-rule:nonzero" transform="matrix(2.38369 0 0 1 -1301.41 -190.476)"/></svg>
