<?xml version="1.0" encoding="UTF-8" standalone="no"?>
<!DOCTYPE svg PUBLIC "-//W3C//DTD SVG 1.1//EN" "http://www.w3.org/Graphics/SVG/1.1/DTD/svg11.dtd">
<svg width="100%" height="100%" viewBox="0 0 542 330" version="1.1" xmlns="http://www.w3.org/2000/svg" xmlns:xlink="http://www.w3.org/1999/xlink" xml:space="preserve" xmlns:serif="http://www.serif.com/" style="fill-rule:evenodd;clip-rule:evenodd;">
    <g transform="matrix(1,0,0,1,-698.691,-19.4007)">
        <g transform="matrix(1,0,0,1,689.58,0)">
            <g transform="matrix(0.720917,0,0,-0.720917,0,115.347)">
                <path d="M96.4,120L557.6,120C557.918,120 558.224,119.939 558.518,119.817C558.812,119.696 559.072,119.522 559.297,119.297C559.522,119.072 559.695,118.812 559.817,118.518C559.939,118.224 560,117.918 560,117.6L560,42.4C560,42.082 559.939,41.776 559.817,41.482C559.695,41.188 559.522,40.928 559.297,40.703C559.072,40.478 558.812,40.304 558.518,40.183C558.224,40.061 557.918,40 557.6,40L96.4,40C96.082,40 95.776,40.061 95.482,40.183C95.188,40.304 94.928,40.478 94.703,40.703C94.478,40.928 94.304,41.188 94.183,41.482C94.061,41.776 94,42.082 94,42.4L94,117.6C94,117.918 94.061,118.224 94.183,118.518C94.304,118.812 94.478,119.072 94.703,119.297C94.928,119.522 95.188,119.696 95.482,119.817C95.776,119.939 96.082,120 96.4,120Z" style="fill:rgb(249,247,237);fill-rule:nonzero;stroke:rgb(153,153,153);stroke-width:2px;"/>
            </g>
        </g>
        <g transform="matrix(1,0,0,1,689.58,0)">
            <g transform="matrix(0.720917,0,0,-0.720917,0,273.948)">
                <path d="M160,310L190,310C196.667,310 200,306.667 200,300L200,80C200,73.333 203.333,70 210,70L240,70" style="fill:none;fill-rule:nonzero;stroke:rgb(108,142,191);stroke-width:2px;stroke-miterlimit:10;"/>
            </g>
        </g>
        <g transform="matrix(1,0,0,1,689.58,0)">
            <g transform="matrix(0.720917,0,0,-0.720917,0,360.458)">
                <path d="M160,430L180,430C186.667,430 190,426.667 190,420L190,80C190,73.333 193.333,70 200,70L240,70" style="fill:none;fill-rule:nonzero;stroke:rgb(214,182,86);stroke-width:2px;stroke-miterlimit:10;"/>
            </g>
        </g>
        <g transform="matrix(1,0,0,1,689.58,0)">
            <g transform="matrix(0.720917,0,0,-0.720917,0,187.438)">
                <path d="M160,190L200,190C206.667,190 210,186.667 210,180L210,80C210,73.333 213.333,70 220,70L240,70" style="fill:none;fill-rule:nonzero;stroke:rgb(130,179,102);stroke-width:2px;stroke-miterlimit:10;"/>
            </g>
        </g>
        <g transform="matrix(1,0,0,1,689.58,0)">
            <g transform="matrix(0.720917,0,0,-0.720917,0,187.438)">
                <path d="M500,70L520,70C526.667,70 530,73.333 530,80L530,180C530,186.667 533.333,190 540,190L589.76,190" style="fill:none;fill-rule:nonzero;stroke:rgb(130,179,102);stroke-width:2px;stroke-miterlimit:10;"/>
            </g>
        </g>
        <g transform="matrix(1,0,0,1,689.58,0)">
            <g transform="matrix(0.720917,0,0,-0.720917,0,100.928)">
                <path d="M597.76,70L589.76,67.33L589.76,72.67L597.76,70Z" style="fill:rgb(130,179,102);fill-rule:nonzero;stroke:rgb(130,179,102);stroke-width:2px;stroke-miterlimit:10;"/>
            </g>
        </g>
        <g transform="matrix(1,0,0,1,689.58,0)">
            <g transform="matrix(0.720917,0,0,-0.720917,0,273.948)">
                <path d="M500,70L530,70C536.667,70 540,73.333 540,80L540,300C540,306.667 543.333,310 550,310L589.76,310" style="fill:none;fill-rule:nonzero;stroke:rgb(108,142,191);stroke-width:2px;stroke-miterlimit:10;"/>
            </g>
        </g>
        <g transform="matrix(1,0,0,1,689.58,0)">
            <g transform="matrix(0.720917,0,0,-0.720917,0,100.928)">
                <path d="M597.76,70L589.76,67.33L589.76,72.67L597.76,70Z" style="fill:rgb(108,142,191);fill-rule:nonzero;stroke:rgb(108,142,191);stroke-width:2px;stroke-miterlimit:10;"/>
            </g>
        </g>
        <g transform="matrix(1,0,0,1,689.58,0)">
            <g transform="matrix(0.720917,0,0,-0.720917,0,360.458)">
                <path d="M500,70L540,70C546.667,70 550,73.333 550,80L550,420C550,426.667 553.333,430 560,430L589.76,430" style="fill:none;fill-rule:nonzero;stroke:rgb(214,182,86);stroke-width:2px;stroke-miterlimit:10;"/>
            </g>
        </g>
        <g transform="matrix(1,0,0,1,689.58,0)">
            <g transform="matrix(0.720917,0,0,-0.720917,0,100.928)">
                <path d="M597.76,70L589.76,67.33L589.76,72.67L597.76,70Z" style="fill:rgb(214,182,86);fill-rule:nonzero;stroke:rgb(214,182,86);stroke-width:2px;stroke-miterlimit:10;"/>
            </g>
        </g>
        <g transform="matrix(1,0,0,1,689.58,0)">
            <g transform="matrix(0.720917,0,0,-0.720917,0,100.928)">
                <path d="M390,70L589.76,70" style="fill:none;fill-rule:nonzero;stroke:rgb(35,68,93);stroke-width:2px;stroke-miterlimit:10;"/>
            </g>
        </g>
        <g transform="matrix(1,0,0,1,689.58,0)">
            <g transform="matrix(0.720917,0,0,-0.720917,0,100.928)">
                <path d="M597.76,70L589.76,67.33L589.76,72.67L597.76,70Z" style="fill:rgb(35,68,93);fill-rule:nonzero;stroke:rgb(35,68,93);stroke-width:2px;stroke-miterlimit:10;"/>
            </g>
        </g>
        <g transform="matrix(1,0,0,1,689.58,0)">
            <g transform="matrix(0.720917,0,0,-0.720917,0,273.948)">
                <rect x="240" y="170" width="40" height="40" style="fill:rgb(245,245,245);stroke:rgb(102,102,102);stroke-width:2px;"/>
            </g>
        </g>
        <g transform="matrix(1,0,0,1,689.58,0)">
            <g transform="matrix(0.720917,0,0,-0.720917,0,446.968)">
                <rect x="240" y="290" width="40" height="40" style="fill:rgb(245,245,245);stroke:rgb(102,102,102);stroke-width:2px;"/>
            </g>
        </g>
        <g transform="matrix(1,0,0,1,689.58,0)">
            <g transform="matrix(0.720917,0,0,-0.720917,0,619.988)">
                <rect x="240" y="410" width="40" height="40" style="fill:rgb(245,245,245);stroke:rgb(102,102,102);stroke-width:2px;"/>
            </g>
        </g>
        <g transform="matrix(1,0,0,1,689.58,0)">
            <g transform="matrix(0.339255,0,0,-0.339255,83.9658,67.4092)">
                <path d="M50.358,65.732C50.856,66.365 51.087,67.162 51.496,67.846C51.908,68.534 51.673,68.659 50.978,68.654C48.229,68.631 45.479,68.665 42.73,68.634C41.997,68.625 41.746,68.786 41.886,69.587C42.495,73.063 43.08,76.543 43.966,79.961C44.49,81.985 45.05,84.01 46.169,85.813C47.284,87.611 48.837,88.078 50.749,87.148C52.347,86.372 53.647,85.212 54.72,83.803C55.189,83.187 55.806,82.704 56.521,83.115C57.898,83.907 59.107,84.873 59.808,86.429C60.213,87.329 60.441,88.338 59.97,89.26C59.316,90.538 58.107,91.429 56.779,91.92C54.573,92.735 52.189,92.543 50.002,91.774C47.478,90.887 45.055,89.421 42.953,87.777C42.177,87.17 41.424,86.528 40.714,85.843C38.103,83.326 36.16,80.331 34.792,76.978C33.82,74.594 33.044,72.162 32.653,69.613C32.582,69.144 32.43,68.724 31.912,68.644C31.273,68.545 30.519,68.642 29.87,68.64C28.417,68.636 26.912,68.947 25.836,67.688C25.357,67.128 24.852,66.475 24.442,65.861C24.037,65.252 24.068,64.657 24.783,64.387C25.568,64.092 26.599,64.282 27.402,64.308C28.463,64.342 29.524,64.288 30.585,64.311C31.315,64.326 31.553,64.189 31.413,63.365C31.279,62.566 31.122,61.802 31.005,61.011C30.604,58.292 30.148,55.58 29.69,52.869C29.053,49.109 28.425,45.346 27.737,41.592C27.08,38.006 26.614,34.387 25.802,30.824C25.168,28.036 24.763,25.194 24.088,22.417C23.522,20.089 23.038,17.709 21.748,15.615C20.809,14.091 19.437,13.447 17.714,13.854C16.156,14.225 14.687,14.811 13.418,15.844C12.58,16.527 11.622,17.036 10.598,16.448C9.635,15.895 8.942,14.869 8.41,13.921C6.702,10.874 9.489,7.978 12.497,7.519C14.517,7.212 16.51,7.937 18.285,8.836C20.655,10.037 22.703,11.726 24.421,13.718C25.829,15.351 27.304,16.908 28.477,18.726C29.259,19.939 29.976,21.193 30.629,22.478C32.944,27.039 34.383,31.961 35.571,36.916C36.142,39.299 36.764,41.667 37.291,44.061C38.009,47.318 38.6,50.63 39.138,53.921C39.405,55.554 39.63,57.184 39.971,58.804C40.252,60.14 40.485,61.524 40.665,62.876C40.875,64.449 41.873,64.351 43.234,64.501C44.382,64.628 45.538,64.687 46.69,64.772C47.614,64.839 48.675,64.756 49.545,65.125C49.856,65.257 50.137,65.449 50.358,65.732Z" style="fill-rule:nonzero;"/>
            </g>
        </g>
        <g transform="matrix(1,0,0,1,689.58,0)">
            <g transform="matrix(0.339255,0,0,-0.339255,83.9658,67.8224)">
                <path d="M91.938,68.238C91.75,68.867 91.409,69.433 90.966,69.917C90.561,70.359 89.989,70.938 89.444,71.199C87.678,72.045 85.295,71.303 83.766,70.267C82.953,69.715 82.227,69.025 81.5,68.364C80.779,67.708 80.08,67.032 79.439,66.297C78.107,64.77 76.902,63.133 75.746,61.471C75.184,60.661 73.601,57.714 73.118,58.004C72.609,58.309 71.972,61.25 71.73,62.077C71.394,63.226 71.17,64.414 70.634,65.494C69.902,66.97 69.445,68.582 68.417,69.912C67.282,71.383 65.979,71.806 64.206,71.269C62.464,70.742 61.059,69.645 59.68,68.534C57.659,66.907 56.153,64.819 54.639,62.743C53.507,61.189 53.497,61.196 54.819,59.783C55.647,58.896 55.632,58.907 56.38,59.817C57.448,61.121 58.485,62.462 59.919,63.4C60.967,64.087 61.595,63.949 62.243,62.868C62.561,62.336 62.832,61.764 63.046,61.18C64.392,57.514 65.413,53.744 66.623,50.037C66.776,49.565 66.578,49.259 66.354,48.92C64.924,46.759 63.469,44.612 61.85,42.589C60.565,40.98 59.27,39.365 57.543,38.187C56.79,37.67 55.908,37.314 54.993,37.558C54.055,37.81 53.494,38.66 52.637,39.056C52.613,39.068 52.586,39.077 52.561,39.088C52.161,39.251 51.559,39.244 51.145,39.151C49.324,38.74 48.347,36.688 47.976,35.045C47.64,33.554 47.971,31.924 49.024,30.784C49.942,29.79 51.319,29.375 52.64,29.355C53.398,29.344 54.244,29.542 54.948,29.814C57.636,30.865 59.687,33.372 61.385,35.596C62.53,37.098 63.593,38.66 64.712,40.182C65.637,41.44 67.463,45.186 67.984,45.198C68.299,45.205 68.382,44.453 68.442,44.231C68.576,43.735 68.709,43.239 68.852,42.746C69.524,40.426 70.231,38.108 70.958,35.806C71.443,34.265 72.225,32.667 73.207,31.381C73.505,30.99 73.878,30.616 74.262,30.311C75.751,29.12 77.626,29.21 79.34,29.817C80.108,30.088 80.824,30.471 81.503,30.922C84.639,33.007 86.88,35.912 88.997,38.953C89.496,39.67 89.428,40.071 88.859,40.67C87.386,42.219 87.427,42.233 86.031,40.59C84.984,39.361 83.917,38.133 82.504,37.306C81.518,36.726 80.846,36.892 80.127,37.781C79.531,38.517 79.139,39.372 78.798,40.247C77.395,43.861 76.436,47.621 75.248,51.306C74.376,54.01 74.352,54.035 76.088,56.314C77.883,58.671 79.6,61.114 81.952,62.977C83.681,64.347 84.887,64.271 86.48,62.74C86.796,62.436 87.312,62.183 87.751,62.148C89.234,62.029 90.523,63.361 91.284,64.471C92.038,65.565 92.324,66.951 91.938,68.238Z" style="fill-rule:nonzero;"/>
            </g>
        </g>
        <g transform="matrix(1,0,0,1,689.58,0)">
            <g transform="matrix(0.720917,0,0,-0.720917,0,100.928)">
                <path d="M73,70L109.76,70" style="fill:none;fill-rule:nonzero;stroke:rgb(108,142,191);stroke-width:2px;stroke-miterlimit:10;"/>
            </g>
        </g>
        <g transform="matrix(1,0,0,1,689.58,0)">
            <g transform="matrix(0.720917,0,0,-0.720917,0,100.928)">
                <path d="M117.76,70L109.76,67.33L109.76,72.67L117.76,70Z" style="fill:rgb(108,142,191);fill-rule:nonzero;stroke:rgb(108,142,191);stroke-width:2px;stroke-miterlimit:10;"/>
            </g>
        </g>
        <g transform="matrix(1,0,0,1,689.58,0)">
            <g transform="matrix(0.720917,0,0,-0.720917,0,288.367)">
                <path d="M312.4,240L437.6,240C437.918,240 438.224,239.939 438.518,239.817C438.812,239.696 439.072,239.522 439.297,239.297C439.522,239.072 439.695,238.813 439.817,238.518C439.939,238.224 440,237.918 440,237.6L440,162.4C440,162.082 439.939,161.776 439.817,161.482C439.695,161.188 439.522,160.928 439.297,160.703C439.072,160.478 438.812,160.305 438.518,160.183C438.224,160.061 437.918,160 437.6,160L312.4,160C312.082,160 311.776,160.061 311.482,160.183C311.187,160.305 310.928,160.478 310.703,160.703C310.478,160.928 310.304,161.188 310.183,161.482C310.061,161.776 310,162.082 310,162.4L310,237.6C310,237.918 310.061,238.224 310.183,238.518C310.304,238.813 310.478,239.072 310.703,239.297C310.928,239.522 311.188,239.696 311.482,239.817C311.776,239.939 312.082,240 312.4,240Z" style="fill:rgb(213,232,212);fill-rule:nonzero;stroke:rgb(130,179,102);stroke-width:2px;"/>
            </g>
        </g>
        <g transform="matrix(1,0,0,1,689.58,0)">
            <g transform="matrix(0.339255,0,0,-0.339255,253.381,153.919)">
                <path d="M50.358,65.732C50.856,66.365 51.087,67.162 51.496,67.846C51.908,68.534 51.673,68.659 50.978,68.654C48.229,68.631 45.479,68.665 42.73,68.634C41.997,68.625 41.746,68.786 41.886,69.587C42.495,73.063 43.08,76.543 43.966,79.961C44.49,81.985 45.05,84.01 46.169,85.813C47.284,87.611 48.837,88.078 50.749,87.148C52.347,86.372 53.647,85.212 54.72,83.803C55.189,83.187 55.806,82.704 56.521,83.115C57.898,83.907 59.107,84.873 59.808,86.429C60.213,87.329 60.441,88.338 59.97,89.26C59.316,90.538 58.107,91.429 56.779,91.92C54.573,92.735 52.189,92.543 50.002,91.774C47.478,90.887 45.055,89.421 42.953,87.777C42.177,87.17 41.424,86.528 40.714,85.843C38.103,83.326 36.16,80.331 34.792,76.978C33.82,74.594 33.044,72.162 32.653,69.613C32.582,69.144 32.43,68.724 31.912,68.644C31.273,68.545 30.519,68.642 29.87,68.64C28.417,68.636 26.912,68.947 25.836,67.688C25.357,67.128 24.852,66.475 24.442,65.861C24.037,65.252 24.068,64.657 24.783,64.387C25.568,64.092 26.599,64.282 27.402,64.308C28.463,64.342 29.524,64.288 30.585,64.311C31.315,64.326 31.553,64.189 31.413,63.365C31.279,62.566 31.122,61.802 31.005,61.011C30.604,58.292 30.148,55.58 29.69,52.869C29.053,49.109 28.425,45.346 27.737,41.592C27.08,38.006 26.614,34.387 25.802,30.824C25.168,28.036 24.763,25.194 24.088,22.417C23.522,20.089 23.038,17.709 21.748,15.615C20.809,14.091 19.437,13.447 17.714,13.854C16.156,14.225 14.687,14.811 13.418,15.844C12.58,16.527 11.622,17.036 10.598,16.448C9.635,15.895 8.942,14.869 8.41,13.921C6.702,10.874 9.489,7.978 12.497,7.519C14.517,7.212 16.51,7.937 18.285,8.836C20.655,10.037 22.703,11.726 24.421,13.718C25.829,15.351 27.304,16.908 28.477,18.726C29.259,19.939 29.976,21.193 30.629,22.478C32.944,27.039 34.383,31.961 35.571,36.916C36.142,39.299 36.764,41.667 37.291,44.061C38.009,47.318 38.6,50.63 39.138,53.921C39.405,55.554 39.63,57.184 39.971,58.804C40.252,60.14 40.485,61.524 40.665,62.876C40.875,64.449 41.873,64.351 43.234,64.501C44.382,64.628 45.538,64.687 46.69,64.772C47.614,64.839 48.675,64.756 49.545,65.125C49.856,65.257 50.137,65.449 50.358,65.732Z" style="fill-rule:nonzero;"/>
            </g>
        </g>
        <g transform="matrix(1,0,0,1,689.58,0)">
            <g transform="matrix(0.339255,0,0,-0.339255,253.381,154.332)">
                <path d="M91.938,68.238C91.75,68.867 91.409,69.433 90.966,69.917C90.561,70.359 89.989,70.938 89.444,71.199C87.678,72.045 85.295,71.303 83.766,70.267C82.953,69.715 82.227,69.025 81.5,68.364C80.779,67.708 80.08,67.032 79.439,66.297C78.107,64.77 76.902,63.133 75.746,61.471C75.184,60.661 73.601,57.714 73.118,58.004C72.609,58.309 71.972,61.25 71.73,62.077C71.394,63.226 71.17,64.414 70.634,65.494C69.902,66.97 69.445,68.582 68.417,69.912C67.282,71.383 65.979,71.806 64.206,71.269C62.464,70.742 61.059,69.645 59.68,68.534C57.659,66.907 56.153,64.819 54.639,62.743C53.507,61.189 53.497,61.196 54.819,59.783C55.647,58.896 55.632,58.907 56.38,59.817C57.448,61.121 58.485,62.462 59.919,63.4C60.967,64.087 61.595,63.949 62.243,62.868C62.561,62.336 62.832,61.764 63.046,61.18C64.392,57.514 65.413,53.744 66.623,50.037C66.776,49.565 66.578,49.259 66.354,48.92C64.924,46.759 63.469,44.612 61.85,42.589C60.565,40.98 59.27,39.365 57.543,38.187C56.79,37.67 55.908,37.314 54.993,37.558C54.055,37.81 53.494,38.66 52.637,39.056C52.613,39.068 52.586,39.077 52.561,39.088C52.161,39.251 51.559,39.244 51.145,39.151C49.324,38.74 48.347,36.688 47.976,35.045C47.64,33.554 47.971,31.924 49.024,30.784C49.942,29.79 51.319,29.375 52.64,29.355C53.398,29.344 54.244,29.542 54.948,29.814C57.636,30.865 59.687,33.372 61.385,35.596C62.53,37.098 63.593,38.66 64.712,40.182C65.637,41.44 67.463,45.186 67.984,45.198C68.299,45.205 68.382,44.453 68.442,44.231C68.576,43.735 68.709,43.239 68.852,42.746C69.524,40.426 70.231,38.108 70.958,35.806C71.443,34.265 72.225,32.667 73.207,31.381C73.505,30.99 73.878,30.616 74.262,30.311C75.751,29.12 77.626,29.21 79.34,29.817C80.108,30.088 80.824,30.471 81.503,30.922C84.639,33.007 86.88,35.912 88.997,38.953C89.496,39.67 89.428,40.071 88.859,40.67C87.386,42.219 87.427,42.233 86.031,40.59C84.984,39.361 83.917,38.133 82.504,37.306C81.518,36.726 80.846,36.892 80.127,37.781C79.531,38.517 79.139,39.372 78.798,40.247C77.395,43.861 76.436,47.621 75.248,51.306C74.376,54.01 74.352,54.035 76.088,56.314C77.883,58.671 79.6,61.114 81.952,62.977C83.681,64.347 84.887,64.271 86.48,62.74C86.796,62.436 87.312,62.183 87.751,62.148C89.234,62.029 90.523,63.361 91.284,64.471C92.038,65.565 92.324,66.951 91.938,68.238Z" style="fill-rule:nonzero;"/>
            </g>
        </g>
        <g transform="matrix(1,0,0,1,689.58,0)">
            <clipPath id="_clip1">
                <rect x="338.831" y="122.556" width="21.628" height="28.837"/>
            </clipPath>
            <g clip-path="url(#_clip1)">
                <g transform="matrix(0.720917,0,0,-0.720917,338.831,151.392)">
                    <path d="M28.1,40C29.149,40 30,39.149 30,38.1L30,1.9C30,0.851 29.149,0 28.1,0L1.9,0C0.851,0 0,0.851 0,1.9L0,38.085C0,38.593 0.202,39.08 0.561,39.439C0.92,39.798 1.407,40 1.915,40L28.1,40Z" style="fill:rgb(243,243,243);"/>
                </g>
                <g transform="matrix(0.720917,0,0,-0.720917,338.831,151.392)">
                    <path d="M28.1,40C29.149,40 30,39.149 30,38.1L30,1.9C30,0.851 29.149,0 28.1,0L1.9,0C0.851,0 0,0.851 0,1.9L0,38.085C0,38.593 0.202,39.08 0.561,39.439C0.92,39.798 1.407,40 1.915,40L28.1,40ZM28.1,38.267L1.915,38.267C1.867,38.267 1.821,38.248 1.787,38.213C1.752,38.179 1.733,38.133 1.733,38.085L1.733,1.9C1.733,1.808 1.808,1.733 1.9,1.733L28.1,1.733C28.192,1.733 28.267,1.808 28.267,1.9L28.267,38.1C28.267,38.192 28.192,38.267 28.1,38.267Z"/>
                </g>
                <g transform="matrix(1.84457,0,0,-1.84457,321.638,125.326)">
                    <path d="M14.303,-0.394L14.303,3.35C14.303,4.15 14.372,4.691 14.511,4.974C14.65,5.257 14.874,5.398 15.183,5.398C15.492,5.398 15.716,5.257 15.855,4.974C15.994,4.691 16.063,4.15 16.063,3.35L16.063,-0.394C16.063,-1.194 15.994,-1.735 15.855,-2.018C15.716,-2.301 15.492,-2.442 15.183,-2.442C14.874,-2.442 14.65,-2.301 14.511,-2.018C14.372,-1.735 14.303,-1.194 14.303,-0.394ZM11.327,1.478C11.327,0.326 11.404,-0.621 11.559,-1.362C11.714,-2.103 11.948,-2.69 12.263,-3.122C12.578,-3.554 12.978,-3.85 13.463,-4.01C13.948,-4.17 14.522,-4.25 15.183,-4.25C15.844,-4.25 16.418,-4.17 16.903,-4.01C17.388,-3.85 17.788,-3.554 18.103,-3.122C18.418,-2.69 18.652,-2.103 18.807,-1.362C18.962,-0.621 19.039,0.326 19.039,1.478C19.039,2.619 18.962,3.563 18.807,4.31C18.652,5.057 18.418,5.649 18.103,6.086C17.788,6.523 17.388,6.827 16.903,6.998C16.418,7.169 15.844,7.254 15.183,7.254C14.522,7.254 13.948,7.169 13.463,6.998C12.978,6.827 12.578,6.523 12.263,6.086C11.948,5.649 11.714,5.057 11.559,4.31C11.404,3.563 11.327,2.619 11.327,1.478Z" style="fill-rule:nonzero;"/>
                </g>
                <g transform="matrix(1.84457,0,0,-1.84457,323.144,181.54)">
                    <path d="M13.951,11.383L16.927,11.383L16.927,22.711L14.783,22.711C14.687,22.38 14.564,22.1 14.415,21.871C14.266,21.641 14.074,21.46 13.839,21.327C13.604,21.193 13.322,21.097 12.991,21.039C12.66,20.98 12.266,20.951 11.807,20.951L11.807,19.095L13.951,19.095L13.951,11.383Z" style="fill-rule:nonzero;"/>
                </g>
                <g transform="matrix(0.639213,0,0,-0.623172,340.08,136.245)">
                    <rect x="0" y="0" width="30" height="20" style="fill-opacity:0.2;"/>
                </g>
                <g transform="matrix(0.639213,0,0,-0.659639,340.08,150.167)">
                    <path d="M30,40L30,0L0,0L0,40L30,40ZM28.045,38.106L1.955,38.106L1.955,1.894L28.045,1.894L28.045,38.106Z" style="fill:white;"/>
                </g>
            </g>
        </g>
        <g transform="matrix(1,0,0,1,689.58,0)">
            <g transform="matrix(0.720917,0,0,-0.720917,0,273.948)">
                <path d="M395,190L470,190" style="fill:none;fill-rule:nonzero;stroke:rgb(130,179,102);stroke-width:2px;stroke-miterlimit:10;"/>
            </g>
        </g>
        <g transform="matrix(1,0,0,1,689.58,0)">
            <g transform="matrix(0.720917,0,0,-0.720917,0,461.387)">
                <path d="M312.4,360L437.6,360C437.918,360 438.224,359.939 438.518,359.817C438.812,359.696 439.072,359.522 439.297,359.297C439.522,359.072 439.695,358.813 439.817,358.518C439.939,358.224 440,357.918 440,357.6L440,282.4C440,282.082 439.939,281.776 439.817,281.482C439.695,281.188 439.522,280.928 439.297,280.703C439.072,280.478 438.812,280.305 438.518,280.183C438.224,280.061 437.918,280 437.6,280L312.4,280C312.082,280 311.776,280.061 311.482,280.183C311.187,280.305 310.928,280.478 310.703,280.703C310.478,280.928 310.304,281.188 310.183,281.482C310.061,281.776 310,282.082 310,282.4L310,357.6C310,357.918 310.061,358.224 310.183,358.518C310.304,358.813 310.478,359.072 310.703,359.297C310.928,359.522 311.188,359.696 311.482,359.817C311.776,359.939 312.082,360 312.4,360Z" style="fill:rgb(218,232,252);fill-rule:nonzero;stroke:rgb(108,142,191);stroke-width:2px;"/>
            </g>
        </g>
        <g transform="matrix(1,0,0,1,689.58,0)">
            <g transform="matrix(0.339255,0,0,-0.339255,253.381,240.429)">
                <path d="M50.358,65.732C50.856,66.365 51.087,67.162 51.496,67.846C51.908,68.534 51.673,68.659 50.978,68.654C48.229,68.631 45.479,68.665 42.73,68.634C41.997,68.625 41.746,68.786 41.886,69.587C42.495,73.063 43.08,76.543 43.966,79.961C44.49,81.985 45.05,84.01 46.169,85.813C47.284,87.611 48.837,88.078 50.749,87.148C52.347,86.372 53.647,85.212 54.72,83.803C55.189,83.187 55.806,82.704 56.521,83.115C57.898,83.907 59.107,84.873 59.808,86.429C60.213,87.329 60.441,88.338 59.97,89.26C59.316,90.538 58.107,91.429 56.779,91.92C54.573,92.735 52.189,92.543 50.002,91.774C47.478,90.887 45.055,89.421 42.953,87.777C42.177,87.17 41.424,86.528 40.714,85.843C38.103,83.326 36.16,80.331 34.792,76.978C33.82,74.594 33.044,72.162 32.653,69.613C32.582,69.144 32.43,68.724 31.912,68.644C31.273,68.545 30.519,68.642 29.87,68.64C28.417,68.636 26.912,68.947 25.836,67.688C25.357,67.128 24.852,66.475 24.442,65.861C24.037,65.252 24.068,64.657 24.783,64.387C25.568,64.092 26.599,64.282 27.402,64.308C28.463,64.342 29.524,64.288 30.585,64.311C31.315,64.326 31.553,64.189 31.413,63.365C31.279,62.566 31.122,61.802 31.005,61.011C30.604,58.292 30.148,55.58 29.69,52.869C29.053,49.109 28.425,45.346 27.737,41.592C27.08,38.006 26.614,34.387 25.802,30.824C25.168,28.036 24.763,25.194 24.088,22.417C23.522,20.089 23.038,17.709 21.748,15.615C20.809,14.091 19.437,13.447 17.714,13.854C16.156,14.225 14.687,14.811 13.418,15.844C12.58,16.527 11.622,17.036 10.598,16.448C9.635,15.895 8.942,14.869 8.41,13.921C6.702,10.874 9.489,7.978 12.497,7.519C14.517,7.212 16.51,7.937 18.285,8.836C20.655,10.037 22.703,11.726 24.421,13.718C25.829,15.351 27.304,16.908 28.477,18.726C29.259,19.939 29.976,21.193 30.629,22.478C32.944,27.039 34.383,31.961 35.571,36.916C36.142,39.299 36.764,41.667 37.291,44.061C38.009,47.318 38.6,50.63 39.138,53.921C39.405,55.554 39.63,57.184 39.971,58.804C40.252,60.14 40.485,61.524 40.665,62.876C40.875,64.449 41.873,64.351 43.234,64.501C44.382,64.628 45.538,64.687 46.69,64.772C47.614,64.839 48.675,64.756 49.545,65.125C49.856,65.257 50.137,65.449 50.358,65.732Z" style="fill-rule:nonzero;"/>
            </g>
        </g>
        <g transform="matrix(1,0,0,1,689.58,0)">
            <g transform="matrix(0.339255,0,0,-0.339255,253.381,240.842)">
                <path d="M91.938,68.238C91.75,68.867 91.409,69.433 90.966,69.917C90.561,70.359 89.989,70.938 89.444,71.199C87.678,72.045 85.295,71.303 83.766,70.267C82.953,69.715 82.227,69.025 81.5,68.364C80.779,67.708 80.08,67.032 79.439,66.297C78.107,64.77 76.902,63.133 75.746,61.471C75.184,60.661 73.601,57.714 73.118,58.004C72.609,58.309 71.972,61.25 71.73,62.077C71.394,63.226 71.17,64.414 70.634,65.494C69.902,66.97 69.445,68.582 68.417,69.912C67.282,71.383 65.979,71.806 64.206,71.269C62.464,70.742 61.059,69.645 59.68,68.534C57.659,66.907 56.153,64.819 54.639,62.743C53.507,61.189 53.497,61.196 54.819,59.783C55.647,58.896 55.632,58.907 56.38,59.817C57.448,61.121 58.485,62.462 59.919,63.4C60.967,64.087 61.595,63.949 62.243,62.868C62.561,62.336 62.832,61.764 63.046,61.18C64.392,57.514 65.413,53.744 66.623,50.037C66.776,49.565 66.578,49.259 66.354,48.92C64.924,46.759 63.469,44.612 61.85,42.589C60.565,40.98 59.27,39.365 57.543,38.187C56.79,37.67 55.908,37.314 54.993,37.558C54.055,37.81 53.494,38.66 52.637,39.056C52.613,39.068 52.586,39.077 52.561,39.088C52.161,39.251 51.559,39.244 51.145,39.151C49.324,38.74 48.347,36.688 47.976,35.045C47.64,33.554 47.971,31.924 49.024,30.784C49.942,29.79 51.319,29.375 52.64,29.355C53.398,29.344 54.244,29.542 54.948,29.814C57.636,30.865 59.687,33.372 61.385,35.596C62.53,37.098 63.593,38.66 64.712,40.182C65.637,41.44 67.463,45.186 67.984,45.198C68.299,45.205 68.382,44.453 68.442,44.231C68.576,43.735 68.709,43.239 68.852,42.746C69.524,40.426 70.231,38.108 70.958,35.806C71.443,34.265 72.225,32.667 73.207,31.381C73.505,30.99 73.878,30.616 74.262,30.311C75.751,29.12 77.626,29.21 79.34,29.817C80.108,30.088 80.824,30.471 81.503,30.922C84.639,33.007 86.88,35.912 88.997,38.953C89.496,39.67 89.428,40.071 88.859,40.67C87.386,42.219 87.427,42.233 86.031,40.59C84.984,39.361 83.917,38.133 82.504,37.306C81.518,36.726 80.846,36.892 80.127,37.781C79.531,38.517 79.139,39.372 78.798,40.247C77.395,43.861 76.436,47.621 75.248,51.306C74.376,54.01 74.352,54.035 76.088,56.314C77.883,58.671 79.6,61.114 81.952,62.977C83.681,64.347 84.887,64.271 86.48,62.74C86.796,62.436 87.312,62.183 87.751,62.148C89.234,62.029 90.523,63.361 91.284,64.471C92.038,65.565 92.324,66.951 91.938,68.238Z" style="fill-rule:nonzero;"/>
            </g>
        </g>
        <g transform="matrix(1,0,0,1,689.58,0)">
            <clipPath id="_clip2">
                <rect x="338.831" y="209.066" width="21.628" height="28.837"/>
            </clipPath>
            <g clip-path="url(#_clip2)">
                <g transform="matrix(0.720917,0,0,-0.720917,338.831,237.902)">
                    <path d="M28.1,40C29.149,40 30,39.149 30,38.1L30,1.9C30,0.851 29.149,0 28.1,0L1.9,0C0.851,0 0,0.851 0,1.9L0,38.085C0,38.593 0.202,39.08 0.561,39.439C0.92,39.798 1.407,40 1.915,40L28.1,40Z" style="fill:rgb(243,243,243);"/>
                </g>
                <g transform="matrix(0.720917,0,0,-0.720917,338.831,237.902)">
                    <path d="M28.1,40C29.149,40 30,39.149 30,38.1L30,1.9C30,0.851 29.149,0 28.1,0L1.9,0C0.851,0 0,0.851 0,1.9L0,38.085C0,38.593 0.202,39.08 0.561,39.439C0.92,39.798 1.407,40 1.915,40L28.1,40ZM28.1,38.267L1.915,38.267C1.867,38.267 1.821,38.248 1.787,38.213C1.752,38.179 1.733,38.133 1.733,38.085L1.733,1.9C1.733,1.808 1.808,1.733 1.9,1.733L28.1,1.733C28.192,1.733 28.267,1.808 28.267,1.9L28.267,38.1C28.267,38.192 28.192,38.267 28.1,38.267Z"/>
                </g>
                <g transform="matrix(1.84457,0,0,-1.84457,321.638,211.836)">
                    <path d="M14.303,-0.394L14.303,3.35C14.303,4.15 14.372,4.691 14.511,4.974C14.65,5.257 14.874,5.398 15.183,5.398C15.492,5.398 15.716,5.257 15.855,4.974C15.994,4.691 16.063,4.15 16.063,3.35L16.063,-0.394C16.063,-1.194 15.994,-1.735 15.855,-2.018C15.716,-2.301 15.492,-2.442 15.183,-2.442C14.874,-2.442 14.65,-2.301 14.511,-2.018C14.372,-1.735 14.303,-1.194 14.303,-0.394ZM11.327,1.478C11.327,0.326 11.404,-0.621 11.559,-1.362C11.714,-2.103 11.948,-2.69 12.263,-3.122C12.578,-3.554 12.978,-3.85 13.463,-4.01C13.948,-4.17 14.522,-4.25 15.183,-4.25C15.844,-4.25 16.418,-4.17 16.903,-4.01C17.388,-3.85 17.788,-3.554 18.103,-3.122C18.418,-2.69 18.652,-2.103 18.807,-1.362C18.962,-0.621 19.039,0.326 19.039,1.478C19.039,2.619 18.962,3.563 18.807,4.31C18.652,5.057 18.418,5.649 18.103,6.086C17.788,6.523 17.388,6.827 16.903,6.998C16.418,7.169 15.844,7.254 15.183,7.254C14.522,7.254 13.948,7.169 13.463,6.998C12.978,6.827 12.578,6.523 12.263,6.086C11.948,5.649 11.714,5.057 11.559,4.31C11.404,3.563 11.327,2.619 11.327,1.478Z" style="fill-rule:nonzero;"/>
                </g>
                <g transform="matrix(1.84457,0,0,-1.84457,323.144,268.05)">
                    <path d="M13.951,11.383L16.927,11.383L16.927,22.711L14.783,22.711C14.687,22.38 14.564,22.1 14.415,21.871C14.266,21.641 14.074,21.46 13.839,21.327C13.604,21.193 13.322,21.097 12.991,21.039C12.66,20.98 12.266,20.951 11.807,20.951L11.807,19.095L13.951,19.095L13.951,11.383Z" style="fill-rule:nonzero;"/>
                </g>
                <g transform="matrix(0.639213,0,0,-0.623172,340.08,222.755)">
                    <rect x="0" y="0" width="30" height="20" style="fill-opacity:0.2;"/>
                </g>
                <g transform="matrix(0.639213,0,0,-0.659639,340.08,236.677)">
                    <path d="M30,40L30,0L0,0L0,40L30,40ZM28.045,38.106L1.955,38.106L1.955,1.894L28.045,1.894L28.045,38.106Z" style="fill:white;"/>
                </g>
            </g>
        </g>
        <g transform="matrix(1,0,0,1,689.58,0)">
            <g transform="matrix(0.720917,0,0,-0.720917,0,446.968)">
                <path d="M395,310L470,310" style="fill:none;fill-rule:nonzero;stroke:rgb(108,142,191);stroke-width:2px;stroke-miterlimit:10;"/>
            </g>
        </g>
        <g transform="matrix(1,0,0,1,689.58,0)">
            <g transform="matrix(0.720917,0,0,-0.720917,0,634.407)">
                <path d="M312.4,480L437.6,480C437.918,480 438.224,479.939 438.518,479.817C438.812,479.696 439.072,479.522 439.297,479.297C439.522,479.072 439.695,478.813 439.817,478.518C439.939,478.224 440,477.918 440,477.6L440,402.4C440,402.082 439.939,401.776 439.817,401.482C439.695,401.188 439.522,400.928 439.297,400.703C439.072,400.478 438.812,400.305 438.518,400.183C438.224,400.061 437.918,400 437.6,400L312.4,400C312.082,400 311.776,400.061 311.482,400.183C311.187,400.305 310.928,400.478 310.703,400.703C310.478,400.928 310.304,401.188 310.183,401.482C310.061,401.776 310,402.082 310,402.4L310,477.6C310,477.918 310.061,478.224 310.183,478.518C310.304,478.813 310.478,479.072 310.703,479.297C310.928,479.522 311.188,479.696 311.482,479.817C311.776,479.939 312.082,480 312.4,480Z" style="fill:rgb(255,242,204);fill-rule:nonzero;stroke:rgb(214,182,86);stroke-width:2px;"/>
            </g>
        </g>
        <g transform="matrix(1,0,0,1,689.58,0)">
            <g transform="matrix(0.339255,0,0,-0.339255,253.381,326.939)">
                <path d="M50.358,65.732C50.856,66.365 51.087,67.162 51.496,67.846C51.908,68.534 51.673,68.659 50.978,68.654C48.229,68.631 45.479,68.665 42.73,68.634C41.997,68.625 41.746,68.786 41.886,69.587C42.495,73.063 43.08,76.543 43.966,79.961C44.49,81.985 45.05,84.01 46.169,85.813C47.284,87.611 48.837,88.078 50.749,87.148C52.347,86.372 53.647,85.212 54.72,83.803C55.189,83.187 55.806,82.704 56.521,83.115C57.898,83.907 59.107,84.873 59.808,86.429C60.213,87.329 60.441,88.338 59.97,89.26C59.316,90.538 58.107,91.429 56.779,91.92C54.573,92.735 52.189,92.543 50.002,91.774C47.478,90.887 45.055,89.421 42.953,87.777C42.177,87.17 41.424,86.528 40.714,85.843C38.103,83.326 36.16,80.331 34.792,76.978C33.82,74.594 33.044,72.162 32.653,69.613C32.582,69.144 32.43,68.724 31.912,68.644C31.273,68.545 30.519,68.642 29.87,68.64C28.417,68.636 26.912,68.947 25.836,67.688C25.357,67.128 24.852,66.475 24.442,65.861C24.037,65.252 24.068,64.657 24.783,64.387C25.568,64.092 26.599,64.282 27.402,64.308C28.463,64.342 29.524,64.288 30.585,64.311C31.315,64.326 31.553,64.189 31.413,63.365C31.279,62.566 31.122,61.802 31.005,61.011C30.604,58.292 30.148,55.58 29.69,52.869C29.053,49.109 28.425,45.346 27.737,41.592C27.08,38.006 26.614,34.387 25.802,30.824C25.168,28.036 24.763,25.194 24.088,22.417C23.522,20.089 23.038,17.709 21.748,15.615C20.809,14.091 19.437,13.447 17.714,13.854C16.156,14.225 14.687,14.811 13.418,15.844C12.58,16.527 11.622,17.036 10.598,16.448C9.635,15.895 8.942,14.869 8.41,13.921C6.702,10.874 9.489,7.978 12.497,7.519C14.517,7.212 16.51,7.937 18.285,8.836C20.655,10.037 22.703,11.726 24.421,13.718C25.829,15.351 27.304,16.908 28.477,18.726C29.259,19.939 29.976,21.193 30.629,22.478C32.944,27.039 34.383,31.961 35.571,36.916C36.142,39.299 36.764,41.667 37.291,44.061C38.009,47.318 38.6,50.63 39.138,53.921C39.405,55.554 39.63,57.184 39.971,58.804C40.252,60.14 40.485,61.524 40.665,62.876C40.875,64.449 41.873,64.351 43.234,64.501C44.382,64.628 45.538,64.687 46.69,64.772C47.614,64.839 48.675,64.756 49.545,65.125C49.856,65.257 50.137,65.449 50.358,65.732Z" style="fill-rule:nonzero;"/>
            </g>
        </g>
        <g transform="matrix(1,0,0,1,689.58,0)">
            <g transform="matrix(0.339255,0,0,-0.339255,253.381,327.352)">
                <path d="M91.938,68.238C91.75,68.867 91.409,69.433 90.966,69.917C90.561,70.359 89.989,70.938 89.444,71.199C87.678,72.045 85.295,71.303 83.766,70.267C82.953,69.715 82.227,69.025 81.5,68.364C80.779,67.708 80.08,67.032 79.439,66.297C78.107,64.77 76.902,63.133 75.746,61.471C75.184,60.661 73.601,57.714 73.118,58.004C72.609,58.309 71.972,61.25 71.73,62.077C71.394,63.226 71.17,64.414 70.634,65.494C69.902,66.97 69.445,68.582 68.417,69.912C67.282,71.383 65.979,71.806 64.206,71.269C62.464,70.742 61.059,69.645 59.68,68.534C57.659,66.907 56.153,64.819 54.639,62.743C53.507,61.189 53.497,61.196 54.819,59.783C55.647,58.896 55.632,58.907 56.38,59.817C57.448,61.121 58.485,62.462 59.919,63.4C60.967,64.087 61.595,63.949 62.243,62.868C62.561,62.336 62.832,61.764 63.046,61.18C64.392,57.514 65.413,53.744 66.623,50.037C66.776,49.565 66.578,49.259 66.354,48.92C64.924,46.759 63.469,44.612 61.85,42.589C60.565,40.98 59.27,39.365 57.543,38.187C56.79,37.67 55.908,37.314 54.993,37.558C54.055,37.81 53.494,38.66 52.637,39.056C52.613,39.068 52.586,39.077 52.561,39.088C52.161,39.251 51.559,39.244 51.145,39.151C49.324,38.74 48.347,36.688 47.976,35.045C47.64,33.554 47.971,31.924 49.024,30.784C49.942,29.79 51.319,29.375 52.64,29.355C53.398,29.344 54.244,29.542 54.948,29.814C57.636,30.865 59.687,33.372 61.385,35.596C62.53,37.098 63.593,38.66 64.712,40.182C65.637,41.44 67.463,45.186 67.984,45.198C68.299,45.205 68.382,44.453 68.442,44.231C68.576,43.735 68.709,43.239 68.852,42.746C69.524,40.426 70.231,38.108 70.958,35.806C71.443,34.265 72.225,32.667 73.207,31.381C73.505,30.99 73.878,30.616 74.262,30.311C75.751,29.12 77.626,29.21 79.34,29.817C80.108,30.088 80.824,30.471 81.503,30.922C84.639,33.007 86.88,35.912 88.997,38.953C89.496,39.67 89.428,40.071 88.859,40.67C87.386,42.219 87.427,42.233 86.031,40.59C84.984,39.361 83.917,38.133 82.504,37.306C81.518,36.726 80.846,36.892 80.127,37.781C79.531,38.517 79.139,39.372 78.798,40.247C77.395,43.861 76.436,47.621 75.248,51.306C74.376,54.01 74.352,54.035 76.088,56.314C77.883,58.671 79.6,61.114 81.952,62.977C83.681,64.347 84.887,64.271 86.48,62.74C86.796,62.436 87.312,62.183 87.751,62.148C89.234,62.029 90.523,63.361 91.284,64.471C92.038,65.565 92.324,66.951 91.938,68.238Z" style="fill-rule:nonzero;"/>
            </g>
        </g>
        <g transform="matrix(1,0,0,1,689.58,0)">
            <clipPath id="_clip3">
                <rect x="338.831" y="295.576" width="21.628" height="28.837"/>
            </clipPath>
            <g clip-path="url(#_clip3)">
                <g transform="matrix(0.720917,0,0,-0.720917,338.831,324.412)">
                    <path d="M28.1,40C29.149,40 30,39.149 30,38.1L30,1.9C30,0.851 29.149,0 28.1,0L1.9,0C0.851,0 0,0.851 0,1.9L0,38.085C0,38.593 0.202,39.08 0.561,39.439C0.92,39.798 1.407,40 1.915,40L28.1,40Z" style="fill:rgb(243,243,243);"/>
                </g>
                <g transform="matrix(0.720917,0,0,-0.720917,338.831,324.412)">
                    <path d="M28.1,40C29.149,40 30,39.149 30,38.1L30,1.9C30,0.851 29.149,0 28.1,0L1.9,0C0.851,0 0,0.851 0,1.9L0,38.085C0,38.593 0.202,39.08 0.561,39.439C0.92,39.798 1.407,40 1.915,40L28.1,40ZM28.1,38.267L1.915,38.267C1.867,38.267 1.821,38.248 1.787,38.213C1.752,38.179 1.733,38.133 1.733,38.085L1.733,1.9C1.733,1.808 1.808,1.733 1.9,1.733L28.1,1.733C28.192,1.733 28.267,1.808 28.267,1.9L28.267,38.1C28.267,38.192 28.192,38.267 28.1,38.267Z"/>
                </g>
                <g transform="matrix(1.84457,0,0,-1.84457,321.638,298.346)">
                    <path d="M14.303,-0.394L14.303,3.35C14.303,4.15 14.372,4.691 14.511,4.974C14.65,5.257 14.874,5.398 15.183,5.398C15.492,5.398 15.716,5.257 15.855,4.974C15.994,4.691 16.063,4.15 16.063,3.35L16.063,-0.394C16.063,-1.194 15.994,-1.735 15.855,-2.018C15.716,-2.301 15.492,-2.442 15.183,-2.442C14.874,-2.442 14.65,-2.301 14.511,-2.018C14.372,-1.735 14.303,-1.194 14.303,-0.394ZM11.327,1.478C11.327,0.326 11.404,-0.621 11.559,-1.362C11.714,-2.103 11.948,-2.69 12.263,-3.122C12.578,-3.554 12.978,-3.85 13.463,-4.01C13.948,-4.17 14.522,-4.25 15.183,-4.25C15.844,-4.25 16.418,-4.17 16.903,-4.01C17.388,-3.85 17.788,-3.554 18.103,-3.122C18.418,-2.69 18.652,-2.103 18.807,-1.362C18.962,-0.621 19.039,0.326 19.039,1.478C19.039,2.619 18.962,3.563 18.807,4.31C18.652,5.057 18.418,5.649 18.103,6.086C17.788,6.523 17.388,6.827 16.903,6.998C16.418,7.169 15.844,7.254 15.183,7.254C14.522,7.254 13.948,7.169 13.463,6.998C12.978,6.827 12.578,6.523 12.263,6.086C11.948,5.649 11.714,5.057 11.559,4.31C11.404,3.563 11.327,2.619 11.327,1.478Z" style="fill-rule:nonzero;"/>
                </g>
                <g transform="matrix(1.84457,0,0,-1.84457,323.144,354.56)">
                    <path d="M13.951,11.383L16.927,11.383L16.927,22.711L14.783,22.711C14.687,22.38 14.564,22.1 14.415,21.871C14.266,21.641 14.074,21.46 13.839,21.327C13.604,21.193 13.322,21.097 12.991,21.039C12.66,20.98 12.266,20.951 11.807,20.951L11.807,19.095L13.951,19.095L13.951,11.383Z" style="fill-rule:nonzero;"/>
                </g>
                <g transform="matrix(0.639213,0,0,-0.623172,340.08,309.265)">
                    <rect x="0" y="0" width="30" height="20" style="fill-opacity:0.2;"/>
                </g>
                <g transform="matrix(0.639213,0,0,-0.659639,340.08,323.187)">
                    <path d="M30,40L30,0L0,0L0,40L30,40ZM28.045,38.106L1.955,38.106L1.955,1.894L28.045,1.894L28.045,38.106Z" style="fill:white;"/>
                </g>
            </g>
        </g>
        <g transform="matrix(1,0,0,1,689.58,0)">
            <g transform="matrix(0.720917,0,0,-0.720917,0,619.988)">
                <path d="M395,430L470,430" style="fill:none;fill-rule:nonzero;stroke:rgb(214,182,86);stroke-width:2px;stroke-miterlimit:10;"/>
            </g>
        </g>
        <g transform="matrix(1,0,0,1,689.58,0)">
            <g transform="matrix(0.0569145,0,0,-0.0569145,256.058,64.7497)">
                <path d="M431,502L71,502C65.478,502 61,497.523 61,492L61,10C61,4.477 65.478,0 71,0L431,0C436.522,0 441,4.477 441,10L441,492C441,497.523 436.522,502 431,502Z"/>
            </g>
        </g>
        <g transform="matrix(1,0,0,1,689.58,0)">
            <g transform="matrix(0.0569145,0,0,-0.0569145,256.058,64.7497)">
                <rect x="81" y="20" width="340" height="462" style="fill:white;"/>
            </g>
        </g>
        <g transform="matrix(1,0,0,1,689.58,0)">
            <g transform="matrix(0.0569145,0,0,-0.0569145,256.058,64.9204)">
                <path d="M126,199L213,199C218.522,199 223,203.477 223,209L223,228C223,233.523 218.522,238 213,238C207.478,238 203,233.523 203,228L203,219L136,219L136,286L198,286C203.522,286 208,290.477 208,296C208,301.523 203.522,306 198,306L126,306C120.478,306 116,301.523 116,296L116,209C116,203.477 120.478,199 126,199Z" style="fill:rgb(0,116,22);fill-rule:nonzero;"/>
            </g>
        </g>
        <g transform="matrix(1,0,0,1,689.58,0)">
            <g transform="matrix(0.0569145,0,0,-0.0569145,256.058,72.8885)">
                <path d="M126,199L213,199C218.522,199 223,203.477 223,209L223,228C223,233.523 218.522,238 213,238C207.478,238 203,233.523 203,228L203,219L136,219L136,286L198,286C203.522,286 208,290.477 208,296C208,301.523 203.522,306 198,306L126,306C120.478,306 116,301.523 116,296L116,209C116,203.477 120.478,199 126,199Z" style="fill:rgb(0,116,22);fill-rule:nonzero;"/>
            </g>
        </g>
        <g transform="matrix(1,0,0,1,689.58,0)">
            <g transform="matrix(0.0569145,0,0,-0.0569145,256.115,56.8839)">
                <path d="M126,199L213,199C218.522,199 223,203.477 223,209L223,228C223,233.523 218.522,238 213,238C207.478,238 203,233.523 203,228L203,219L136,219L136,286L198,286C203.522,286 208,290.477 208,296C208,301.523 203.522,306 198,306L126,306C120.478,306 116,301.523 116,296L116,209C116,203.477 120.478,199 126,199Z" style="fill:rgb(0,116,22);fill-rule:nonzero;"/>
            </g>
        </g>
        <g transform="matrix(1,0,0,1,689.58,0)">
            <g transform="matrix(0.0569145,0,0,-0.0569145,256.058,46.3094)">
                <path d="M327,79L377,79C382.522,79 387,83.477 387,89C387,94.523 382.522,99 377,99L327,99C321.478,99 317,94.523 317,89C317,83.477 321.478,79 327,79Z" style="fill:rgb(0,116,22);fill-rule:nonzero;"/>
            </g>
        </g>
        <g transform="matrix(1,0,0,1,689.58,0)">
            <g transform="matrix(0.0569145,0,0,-0.0569145,256.058,46.3094)">
                <path d="M268,79L285,79C290.522,79 295,83.477 295,89C295,94.523 290.522,99 285,99L268,99C262.478,99 258,94.523 258,89C258,83.477 262.478,79 268,79Z" style="fill:rgb(0,116,22);fill-rule:nonzero;"/>
            </g>
        </g>
        <g transform="matrix(1,0,0,1,689.58,0)">
            <g transform="matrix(0.0569145,0,0,-0.0569145,256.058,50.9764)">
                <path d="M268,120L377,120C382.522,120 387,124.477 387,130C387,135.523 382.522,140 377,140L268,140C262.478,140 258,135.523 258,130C258,124.477 262.478,120 268,120Z" style="fill:rgb(0,116,22);fill-rule:nonzero;"/>
            </g>
        </g>
        <g transform="matrix(1,0,0,1,689.58,0)">
            <g transform="matrix(0.0569145,0,0,-0.0569145,256.058,62.4731)">
                <path d="M377,241L327,241C321.478,241 317,236.523 317,231C317,225.477 321.478,221 327,221L377,221C382.522,221 387,225.477 387,231C387,236.523 382.522,241 377,241Z" style="fill:rgb(0,116,22);fill-rule:nonzero;"/>
            </g>
        </g>
        <g transform="matrix(1,0,0,1,689.58,0)">
            <g transform="matrix(0.0569145,0,0,-0.0569145,256.058,62.4731)">
                <path d="M268,221L285,221C290.522,221 295,225.477 295,231C295,236.523 290.522,241 285,241L268,241C262.478,241 258,236.523 258,231C258,225.477 262.478,221 268,221Z" style="fill:rgb(0,116,22);fill-rule:nonzero;"/>
            </g>
        </g>
        <g transform="matrix(1,0,0,1,689.58,0)">
            <g transform="matrix(0.0569145,0,0,-0.0569145,256.058,67.1401)">
                <path d="M268,262L377,262C382.522,262 387,266.477 387,272C387,277.523 382.522,282 377,282L268,282C262.478,282 258,277.523 258,272C258,266.477 262.478,262 268,262Z" style="fill:rgb(0,116,22);fill-rule:nonzero;"/>
            </g>
        </g>
        <g transform="matrix(1,0,0,1,689.58,0)">
            <g transform="matrix(0.0569145,0,0,-0.0569145,256.058,78.2953)">
                <path d="M377,380L327,380C321.478,380 317,375.523 317,370C317,364.477 321.478,360 327,360L377,360C382.522,360 387,364.477 387,370C387,375.523 382.522,380 377,380Z" style="fill:rgb(0,116,22);fill-rule:nonzero;"/>
            </g>
        </g>
        <g transform="matrix(1,0,0,1,689.58,0)">
            <g transform="matrix(0.0569145,0,0,-0.0569145,256.058,78.2953)">
                <path d="M268,360L285,360C290.522,360 295,364.477 295,370C295,375.523 290.522,380 285,380L268,380C262.478,380 258,375.523 258,370C258,364.477 262.478,360 268,360Z" style="fill:rgb(0,116,22);fill-rule:nonzero;"/>
            </g>
        </g>
        <g transform="matrix(1,0,0,1,689.58,0)">
            <g transform="matrix(0.0569145,0,0,-0.0569145,256.058,82.9623)">
                <path d="M268,401L377,401C382.522,401 387,405.477 387,411C387,416.523 382.522,421 377,421L268,421C262.478,421 258,416.523 258,411C258,405.477 262.478,401 268,401Z" style="fill:rgb(0,116,22);fill-rule:nonzero;"/>
            </g>
        </g>
        <g transform="matrix(1,0,0,1,689.58,0)">
            <g transform="matrix(0.0569145,0,0,-0.0569145,256.058,63.2428)">
                <path d="M161.907,239.253C157.916,243.068 151.584,242.925 147.769,238.932C143.953,234.939 144.097,228.609 148.09,224.793L173.429,200.452C175.382,198.499 177.941,197.523 180.5,197.523C183.059,197.523 185.618,198.499 187.571,200.452L247.071,259.952C250.976,263.857 250.976,270.189 247.071,274.095C243.165,278 236.835,278 232.928,274.095L180.408,221.575L161.907,239.253Z" style="fill:rgb(0,116,22);fill-rule:nonzero;"/>
            </g>
        </g>
        <g transform="matrix(1,0,0,1,689.58,0)">
            <g transform="matrix(0.0569145,0,0,-0.0569145,256.058,71.2108)">
                <path d="M161.907,239.253C157.916,243.068 151.584,242.925 147.769,238.932C143.953,234.939 144.097,228.609 148.09,224.793L173.429,200.452C175.382,198.499 177.941,197.523 180.5,197.523C183.059,197.523 185.618,198.499 187.571,200.452L247.071,259.952C250.976,263.857 250.976,270.189 247.071,274.095C243.165,278 236.835,278 232.928,274.095L180.408,221.575L161.907,239.253Z" style="fill:rgb(0,116,22);fill-rule:nonzero;"/>
            </g>
        </g>
        <g transform="matrix(1,0,0,1,689.58,0)">
            <g transform="matrix(0.0569145,0,0,-0.0569145,256.115,55.2063)">
                <path d="M161.907,239.253C157.916,243.068 151.584,242.925 147.769,238.932C143.953,234.939 144.097,228.609 148.09,224.793L173.429,200.452C175.382,198.499 177.941,197.523 180.5,197.523C183.059,197.523 185.618,198.499 187.571,200.452L247.071,259.952C250.976,263.857 250.976,270.189 247.071,274.095C243.165,278 236.835,278 232.928,274.095L180.408,221.575L161.907,239.253Z" style="fill:rgb(0,116,22);fill-rule:nonzero;"/>
            </g>
        </g>
        <g transform="matrix(1,0,0,1,689.58,0)">
            <g transform="matrix(0.720917,0,0,-0.720917,0,100.928)">
                <path d="M160,70L360,70" style="fill:none;fill-rule:nonzero;stroke:rgb(35,68,93);stroke-width:2px;stroke-miterlimit:10;"/>
            </g>
        </g>
        <g transform="matrix(1,0,0,1,689.58,0)">
            <g transform="matrix(7.93008,0,0,7.93008,115.924,25.2321)">
            </g>
            <text x="69.208px" y="25.232px" style="font-family:'Helvetica';font-size:7.93px;">V<tspan x="74.062px 78.471px " y="25.232px 25.232px ">er</tspan>sion Spec</text>
        </g>
        <g transform="matrix(1,0,0,1,689.58,0)">
            <g transform="matrix(7.93008,0,0,7.93008,196.908,163.648)">
            </g>
            <text x="177.954px" y="163.648px" style="font-family:'Helvetica';font-size:7.93px;fill:rgb(51,51,51);">value</text>
        </g>
        <g transform="matrix(1,0,0,1,689.58,0)">
            <g transform="matrix(12.9765,0,0,12.9765,183.266,141.3)">
            </g>
            <text x="175.453px" y="141.3px" style="font-family:'Menlo-Regular', 'Menlo', monospace;font-size:12.976px;fill:rgb(77,153,0);">&quot;</text>
        </g>
        <g transform="matrix(1,0,0,1,689.58,0)">
            <g transform="matrix(12.9765,0,0,12.9765,191.251,141.3)">
            </g>
            <text x="183.439px" y="141.3px" style="font-family:'Menlo-Regular', 'Menlo', monospace;font-size:12.976px;fill:rgb(77,153,0);">1</text>
        </g>
        <g transform="matrix(1,0,0,1,689.58,0)">
            <g transform="matrix(12.9765,0,0,12.9765,199.237,141.3)">
            </g>
            <text x="191.424px" y="141.3px" style="font-family:'Menlo-Regular', 'Menlo', monospace;font-size:12.976px;fill:rgb(77,153,0);">&quot;</text>
        </g>
        <g transform="matrix(1,0,0,1,689.58,0)">
            <g transform="matrix(7.93008,0,0,7.93008,196.908,250.158)">
            </g>
            <text x="177.954px" y="250.158px" style="font-family:'Helvetica';font-size:7.93px;fill:rgb(51,51,51);">value</text>
        </g>
        <g transform="matrix(1,0,0,1,689.58,0)">
            <g transform="matrix(12.9765,0,0,12.9765,183.266,227.81)">
            </g>
            <text x="175.453px" y="227.81px" style="font-family:'Menlo-Regular', 'Menlo', monospace;font-size:12.976px;fill:rgb(77,153,0);">&quot;</text>
        </g>
        <g transform="matrix(1,0,0,1,689.58,0)">
            <g transform="matrix(12.9765,0,0,12.9765,191.251,227.81)">
            </g>
            <text x="183.439px" y="227.81px" style="font-family:'Menlo-Regular', 'Menlo', monospace;font-size:12.976px;fill:rgb(77,153,0);">2</text>
        </g>
        <g transform="matrix(1,0,0,1,689.58,0)">
            <g transform="matrix(12.9765,0,0,12.9765,199.237,227.81)">
            </g>
            <text x="191.424px" y="227.81px" style="font-family:'Menlo-Regular', 'Menlo', monospace;font-size:12.976px;fill:rgb(77,153,0);">&quot;</text>
        </g>
        <g transform="matrix(1,0,0,1,689.58,0)">
            <g transform="matrix(7.93008,0,0,7.93008,196.908,336.668)">
            </g>
            <text x="177.954px" y="336.668px" style="font-family:'Helvetica';font-size:7.93px;fill:rgb(51,51,51);">value</text>
        </g>
        <g transform="matrix(1,0,0,1,689.58,0)">
            <g transform="matrix(12.9765,0,0,12.9765,183.266,314.32)">
            </g>
            <text x="175.453px" y="314.32px" style="font-family:'Menlo-Regular', 'Menlo', monospace;font-size:12.976px;fill:rgb(77,153,0);">&quot;</text>
        </g>
        <g transform="matrix(1,0,0,1,689.58,0)">
            <g transform="matrix(12.9765,0,0,12.9765,191.251,314.32)">
            </g>
            <text x="183.439px" y="314.32px" style="font-family:'Menlo-Regular', 'Menlo', monospace;font-size:12.976px;fill:rgb(77,153,0);">3</text>
        </g>
        <g transform="matrix(1,0,0,1,689.58,0)">
            <g transform="matrix(12.9765,0,0,12.9765,199.237,314.32)">
            </g>
            <text x="191.424px" y="314.32px" style="font-family:'Menlo-Regular', 'Menlo', monospace;font-size:12.976px;fill:rgb(77,153,0);">&quot;</text>
        </g>
        <g transform="matrix(1,0,0,1,689.58,0)">
            <g transform="matrix(8.651,0,0,8.651,129.279,77.859)">
            </g>
            <text x="72.553px" y="77.859px" style="font-family:'Helvetica';font-size:8.651px;">create_version</text>
        </g>
        <g transform="matrix(1,0,0,1,689.58,0)">
            <g transform="matrix(8.651,0,0,8.651,13.8593,42.5341)">
            </g>
            <text x="8.651px" y="42.534px" style="font-family:'Menlo-Regular', 'Menlo', monospace;font-size:8.651px;">m</text>
        </g>
        <g transform="matrix(1,0,0,1,689.58,0)">
            <g transform="matrix(8.651,0,0,8.651,19.183,42.5341)">
            </g>
            <text x="13.975px" y="42.534px" style="font-family:'Menlo-Regular', 'Menlo', monospace;font-size:8.651px;">a</text>
        </g>
        <g transform="matrix(1,0,0,1,689.58,0)">
            <g transform="matrix(8.651,0,0,8.651,24.5067,42.5341)">
            </g>
            <text x="19.298px" y="42.534px" style="font-family:'Menlo-Regular', 'Menlo', monospace;font-size:8.651px;">j</text>
        </g>
        <g transform="matrix(1,0,0,1,689.58,0)">
            <g transform="matrix(8.651,0,0,8.651,29.8304,42.5341)">
            </g>
            <text x="24.622px" y="42.534px" style="font-family:'Menlo-Regular', 'Menlo', monospace;font-size:8.651px;">o</text>
        </g>
        <g transform="matrix(1,0,0,1,689.58,0)">
            <g transform="matrix(8.651,0,0,8.651,40.4778,42.5341)">
            </g>
            <text x="29.946px" y="42.534px" style="font-family:'Menlo-Regular', 'Menlo', monospace;font-size:8.651px;">r<tspan x="35.269px " y="42.534px ">=</tspan></text>
        </g>
        <g transform="matrix(1,0,0,1,689.58,0)">
            <text x="40.593px" y="42.534px" style="font-family:'Menlo-Regular', 'Menlo', monospace;font-size:8.651px;">1</text>
            <text x="8.651px" y="52.625px" style="font-family:'Menlo-Regular', 'Menlo', monospace;font-size:8.651px;">m<tspan x="13.975px 19.298px 24.622px 29.946px 35.269px 40.593px " y="52.625px 52.625px 52.625px 52.625px 52.625px 52.625px ">inor=2</tspan></text>
            <g transform="matrix(8.651,0,0,8.651,45.8015,63.4361)">
            </g>
            <text x="8.651px" y="63.436px" style="font-family:'Menlo-Regular', 'Menlo', monospace;font-size:8.651px;">p<tspan x="13.975px 19.298px 24.622px 29.946px 35.269px 40.593px " y="63.436px 63.436px 63.436px 63.436px 63.436px 63.436px ">atch=3</tspan></text>
        </g>
        <g transform="matrix(1,0,0,1,689.58,0)">
            <g transform="matrix(7.93008,0,0,7.93008,314.826,111.742)">
            </g>
            <text x="224.926px" y="111.742px" style="font-family:'Helvetica';font-size:7.93px;">V<tspan x="229.78px 234.189px " y="111.742px 111.742px ">er</tspan>sion Component Spec</text>
        </g>
        <g transform="matrix(1,0,0,1,689.58,0)">
            <g transform="matrix(8.651,0,0,8.651,306.149,164.369)">
            </g>
            <text x="234.512px" y="164.369px" style="font-family:'Helvetica';font-size:8.651px;">create_component</text>
        </g>
        <g transform="matrix(1,0,0,1,689.58,0)">
            <text x="335.215px" y="164.369px" style="font-family:'Helvetica';font-size:8.651px;">V<tspan x="340.511px 345.322px " y="164.369px 164.369px ">er</tspan>sion</text>
            <g transform="matrix(8.651,0,0,8.651,371.989,174.46)">
            </g>
            <text x="327.274px" y="174.46px" style="font-family:'Helvetica';font-size:8.651px;">Component</text>
        </g>
        <g transform="matrix(1,0,0,1,689.58,0)">
            <g transform="matrix(7.93008,0,0,7.93008,314.826,198.252)">
            </g>
            <text x="224.926px" y="198.252px" style="font-family:'Helvetica';font-size:7.93px;">V<tspan x="229.78px 234.189px " y="198.252px 198.252px ">er</tspan>sion Component Spec</text>
        </g>
        <g transform="matrix(1,0,0,1,689.58,0)">
            <g transform="matrix(8.651,0,0,8.651,306.149,250.879)">
            </g>
            <text x="234.512px" y="250.879px" style="font-family:'Helvetica';font-size:8.651px;">create_component</text>
        </g>
        <g transform="matrix(1,0,0,1,689.58,0)">
            <text x="335.215px" y="250.879px" style="font-family:'Helvetica';font-size:8.651px;">V<tspan x="340.511px 345.322px " y="250.879px 250.879px ">er</tspan>sion</text>
            <g transform="matrix(8.651,0,0,8.651,371.989,260.97)">
            </g>
            <text x="327.274px" y="260.97px" style="font-family:'Helvetica';font-size:8.651px;">Component</text>
        </g>
        <g transform="matrix(1,0,0,1,689.58,0)">
            <g transform="matrix(7.93008,0,0,7.93008,314.826,284.762)">
            </g>
            <text x="224.926px" y="284.762px" style="font-family:'Helvetica';font-size:7.93px;">V<tspan x="229.78px 234.189px " y="284.762px 284.762px ">er</tspan>sion Component Spec</text>
        </g>
        <g transform="matrix(1,0,0,1,689.58,0)">
            <g transform="matrix(8.651,0,0,8.651,306.149,337.389)">
            </g>
            <text x="234.512px" y="337.389px" style="font-family:'Helvetica';font-size:8.651px;">create_component</text>
        </g>
        <g transform="matrix(1,0,0,1,689.58,0)">
            <text x="335.215px" y="337.389px" style="font-family:'Helvetica';font-size:8.651px;">V<tspan x="340.511px 345.322px " y="337.389px 337.389px ">er</tspan>sion</text>
            <g transform="matrix(8.651,0,0,8.651,371.989,347.48)">
            </g>
            <text x="327.274px" y="347.48px" style="font-family:'Helvetica';font-size:8.651px;">Component</text>
        </g>
        <g transform="matrix(1,0,0,1,689.58,0)">
            <g transform="matrix(7.93008,0,0,7.93008,292.588,77.1381)">
            </g>
            <text x="248.074px" y="77.138px" style="font-family:'Helvetica';font-size:7.93px;">V<tspan x="252.928px 257.337px " y="77.138px 77.138px ">er</tspan>sionSpec</text>
        </g>
        <g transform="matrix(1,0,0,1,689.58,0)">
            <g transform="matrix(7.93008,0,0,7.93008,460.442,25.2321)">
            </g>
            <text x="433.992px" y="25.232px" style="font-family:'Helvetica';font-size:7.93px;">V<tspan x="438.847px 443.256px " y="25.232px 25.232px ">er</tspan>sion</text>
        </g>
        <g transform="matrix(1,0,0,1,689.58,0)">
            <g transform="matrix(0.720917,0,0,-0.720917,0,273.948)">
                <path d="M280,190L344.76,190" style="fill:none;fill-rule:nonzero;stroke:rgb(130,179,102);stroke-width:2px;stroke-miterlimit:10;"/>
            </g>
        </g>
        <g transform="matrix(1,0,0,1,689.58,0)">
            <g transform="matrix(0.720917,0,0,-0.720917,0,273.948)">
                <path d="M352.76,190L344.76,187.33L344.76,192.67L352.76,190Z" style="fill:rgb(130,179,102);fill-rule:nonzero;stroke:rgb(130,179,102);stroke-width:2px;stroke-miterlimit:10;"/>
            </g>
        </g>
        <g transform="matrix(1,0,0,1,689.58,0)">
            <g transform="matrix(0.720917,0,0,-0.720917,0,446.968)">
                <path d="M280,310L344.76,310" style="fill:none;fill-rule:nonzero;stroke:rgb(108,142,191);stroke-width:2px;stroke-miterlimit:10;"/>
            </g>
        </g>
        <g transform="matrix(1,0,0,1,689.58,0)">
            <g transform="matrix(0.720917,0,0,-0.720917,0,446.968)">
                <path d="M352.76,310L344.76,307.33L344.76,312.67L352.76,310Z" style="fill:rgb(108,142,191);fill-rule:nonzero;stroke:rgb(108,142,191);stroke-width:2px;stroke-miterlimit:10;"/>
            </g>
        </g>
        <g transform="matrix(1,0,0,1,689.58,0)">
            <g transform="matrix(0.720917,0,0,-0.720917,0,619.988)">
                <path d="M280,430L344.76,430" style="fill:none;fill-rule:nonzero;stroke:rgb(214,182,86);stroke-width:2px;stroke-miterlimit:10;"/>
            </g>
        </g>
        <g transform="matrix(1,0,0,1,689.58,0)">
            <g transform="matrix(0.720917,0,0,-0.720917,0,619.988)">
                <path d="M352.76,430L344.76,427.33L344.76,432.67L352.76,430Z" style="fill:rgb(214,182,86);fill-rule:nonzero;stroke:rgb(214,182,86);stroke-width:2px;stroke-miterlimit:10;"/>
            </g>
        </g>
        <g transform="matrix(1,0,0,1,689.58,0)">
            <g transform="matrix(0.720917,0,0,-0.720917,0,273.948)">
                <rect x="470" y="170" width="30" height="40" style="fill:none;stroke:rgb(130,179,102);stroke-width:2px;"/>
            </g>
        </g>
        <g transform="matrix(1,0,0,1,689.58,0)">
            <g transform="matrix(0.720917,0,0,-0.720917,0,245.112)">
                <path d="M604.8,300L755.2,300C755.836,300 756.449,299.878 757.037,299.635C757.625,299.391 758.144,299.044 758.594,298.594C759.044,298.144 759.391,297.625 759.635,297.037C759.878,296.449 760,295.837 760,295.2L760,44.8C760,44.163 759.878,43.551 759.635,42.963C759.391,42.375 759.044,41.856 758.594,41.406C758.144,40.956 757.625,40.609 757.037,40.365C756.449,40.122 755.836,40 755.2,40L604.8,40C604.163,40 603.551,40.122 602.963,40.365C602.375,40.609 601.856,40.956 601.406,41.406C600.956,41.856 600.609,42.375 600.365,42.963C600.122,43.551 600,44.163 600,44.8L600,295.2C600,295.837 600.122,296.449 600.365,297.037C600.609,297.625 600.956,298.144 601.406,298.594C601.856,299.044 602.375,299.391 602.963,299.635C603.551,299.878 604.163,300 604.8,300Z" style="fill:rgb(249,247,237);fill-rule:nonzero;stroke:rgb(153,153,153);stroke-width:2px;"/>
            </g>
        </g>
        <g transform="matrix(1,0,0,1,689.58,0)">
            <clipPath id="_clip4">
                <rect x="443.364" y="72.092" width="21.628" height="28.837"/>
            </clipPath>
            <g clip-path="url(#_clip4)">
                <g transform="matrix(0.720917,0,0,-0.720917,443.364,100.928)">
                    <path d="M28.1,40C29.149,40 30,39.149 30,38.1L30,1.9C30,0.851 29.149,0 28.1,0L1.9,0C0.851,0 0,0.851 0,1.9L0,38.085C0,38.593 0.202,39.08 0.561,39.439C0.92,39.798 1.407,40 1.915,40L28.1,40Z" style="fill:rgb(243,243,243);"/>
                </g>
                <g transform="matrix(0.720917,0,0,-0.720917,443.364,100.928)">
                    <path d="M28.1,40C29.149,40 30,39.149 30,38.1L30,1.9C30,0.851 29.149,0 28.1,0L1.9,0C0.851,0 0,0.851 0,1.9L0,38.085C0,38.593 0.202,39.08 0.561,39.439C0.92,39.798 1.407,40 1.915,40L28.1,40ZM28.1,38.267L1.915,38.267C1.867,38.267 1.821,38.248 1.787,38.213C1.752,38.179 1.733,38.133 1.733,38.085L1.733,1.9C1.733,1.808 1.808,1.733 1.9,1.733L28.1,1.733C28.192,1.733 28.267,1.808 28.267,1.9L28.267,38.1C28.267,38.192 28.192,38.267 28.1,38.267Z"/>
                </g>
                <g transform="matrix(1.84457,0,0,-1.84457,426.171,74.8622)">
                    <path d="M14.303,-0.394L14.303,3.35C14.303,4.15 14.372,4.691 14.511,4.974C14.65,5.257 14.874,5.398 15.183,5.398C15.492,5.398 15.716,5.257 15.855,4.974C15.994,4.691 16.063,4.15 16.063,3.35L16.063,-0.394C16.063,-1.194 15.994,-1.735 15.855,-2.018C15.716,-2.301 15.492,-2.442 15.183,-2.442C14.874,-2.442 14.65,-2.301 14.511,-2.018C14.372,-1.735 14.303,-1.194 14.303,-0.394ZM11.327,1.478C11.327,0.326 11.404,-0.621 11.559,-1.362C11.714,-2.103 11.948,-2.69 12.263,-3.122C12.578,-3.554 12.978,-3.85 13.463,-4.01C13.948,-4.17 14.522,-4.25 15.183,-4.25C15.844,-4.25 16.418,-4.17 16.903,-4.01C17.388,-3.85 17.788,-3.554 18.103,-3.122C18.418,-2.69 18.652,-2.103 18.807,-1.362C18.962,-0.621 19.039,0.326 19.039,1.478C19.039,2.619 18.962,3.563 18.807,4.31C18.652,5.057 18.418,5.649 18.103,6.086C17.788,6.523 17.388,6.827 16.903,6.998C16.418,7.169 15.844,7.254 15.183,7.254C14.522,7.254 13.948,7.169 13.463,6.998C12.978,6.827 12.578,6.523 12.263,6.086C11.948,5.649 11.714,5.057 11.559,4.31C11.404,3.563 11.327,2.619 11.327,1.478Z" style="fill-rule:nonzero;"/>
                </g>
                <g transform="matrix(1.84457,0,0,-1.84457,427.676,131.076)">
                    <path d="M13.951,11.383L16.927,11.383L16.927,22.711L14.783,22.711C14.687,22.38 14.564,22.1 14.415,21.871C14.266,21.641 14.074,21.46 13.839,21.327C13.604,21.193 13.322,21.097 12.991,21.039C12.66,20.98 12.266,20.951 11.807,20.951L11.807,19.095L13.951,19.095L13.951,11.383Z" style="fill-rule:nonzero;"/>
                </g>
                <g transform="matrix(0.639213,0,0,-0.623172,444.613,85.7806)">
                    <rect x="0" y="0" width="30" height="20" style="fill-opacity:0.2;"/>
                </g>
                <g transform="matrix(0.639213,0,0,-0.659639,444.613,99.7028)">
                    <path d="M30,40L30,0L0,0L0,40L30,40ZM28.045,38.106L1.955,38.106L1.955,1.894L28.045,1.894L28.045,38.106Z" style="fill:white;"/>
                </g>
            </g>
        </g>
        <g transform="matrix(1,0,0,1,689.58,0)">
            <text x="466.433px" y="90.115px" style="font-family:'Helvetica';font-size:8.651px;">V<tspan x="471.729px 476.539px " y="90.115px 90.115px ">er</tspan>sion Component</text>
            <text x="466.433px" y="126.156px" style="font-family:'Helvetica';font-size:8.651px;">V<tspan x="471.729px 476.539px " y="126.156px 126.156px ">er</tspan>sion Component</text>
            <g transform="matrix(8.651,0,0,8.651,542.405,162.197)">
            </g>
            <text x="466.433px" y="162.197px" style="font-family:'Helvetica';font-size:8.651px;">V<tspan x="471.729px 476.539px " y="162.197px 162.197px ">er</tspan>sion Component</text>
        </g>
        <g transform="matrix(1,0,0,1,689.58,0)">
            <g transform="matrix(7.93008,0,0,7.93008,513.149,53.7083)">
            </g>
            <text x="466.433px" y="53.708px" style="font-family:'Helvetica';font-size:7.93px;">V<tspan x="471.287px 475.696px " y="53.708px 53.708px ">er</tspan>sion Spec</text>
        </g>
        <g transform="matrix(1,0,0,1,689.58,0)">
            <g transform="matrix(8.651,0,0,8.651,491.675,198.252)">
            </g>
            <text x="470.038px" y="198.252px" style="font-family:'Helvetica';font-size:8.651px;">bump</text>
        </g>
        <g transform="matrix(1,0,0,1,689.58,0)">
            <clipPath id="_clip5">
                <rect x="443.364" y="108.137" width="21.628" height="28.837"/>
            </clipPath>
            <g clip-path="url(#_clip5)">
                <g transform="matrix(0.720917,0,0,-0.720917,443.364,136.974)">
                    <path d="M28.1,40C29.149,40 30,39.149 30,38.1L30,1.9C30,0.851 29.149,0 28.1,0L1.9,0C0.851,0 0,0.851 0,1.9L0,38.085C0,38.593 0.202,39.08 0.561,39.439C0.92,39.798 1.407,40 1.915,40L28.1,40Z" style="fill:rgb(243,243,243);"/>
                </g>
                <g transform="matrix(0.720917,0,0,-0.720917,443.364,136.974)">
                    <path d="M28.1,40C29.149,40 30,39.149 30,38.1L30,1.9C30,0.851 29.149,0 28.1,0L1.9,0C0.851,0 0,0.851 0,1.9L0,38.085C0,38.593 0.202,39.08 0.561,39.439C0.92,39.798 1.407,40 1.915,40L28.1,40ZM28.1,38.267L1.915,38.267C1.867,38.267 1.821,38.248 1.787,38.213C1.752,38.179 1.733,38.133 1.733,38.085L1.733,1.9C1.733,1.808 1.808,1.733 1.9,1.733L28.1,1.733C28.192,1.733 28.267,1.808 28.267,1.9L28.267,38.1C28.267,38.192 28.192,38.267 28.1,38.267Z"/>
                </g>
                <g transform="matrix(1.84457,0,0,-1.84457,426.171,110.908)">
                    <path d="M14.303,-0.394L14.303,3.35C14.303,4.15 14.372,4.691 14.511,4.974C14.65,5.257 14.874,5.398 15.183,5.398C15.492,5.398 15.716,5.257 15.855,4.974C15.994,4.691 16.063,4.15 16.063,3.35L16.063,-0.394C16.063,-1.194 15.994,-1.735 15.855,-2.018C15.716,-2.301 15.492,-2.442 15.183,-2.442C14.874,-2.442 14.65,-2.301 14.511,-2.018C14.372,-1.735 14.303,-1.194 14.303,-0.394ZM11.327,1.478C11.327,0.326 11.404,-0.621 11.559,-1.362C11.714,-2.103 11.948,-2.69 12.263,-3.122C12.578,-3.554 12.978,-3.85 13.463,-4.01C13.948,-4.17 14.522,-4.25 15.183,-4.25C15.844,-4.25 16.418,-4.17 16.903,-4.01C17.388,-3.85 17.788,-3.554 18.103,-3.122C18.418,-2.69 18.652,-2.103 18.807,-1.362C18.962,-0.621 19.039,0.326 19.039,1.478C19.039,2.619 18.962,3.563 18.807,4.31C18.652,5.057 18.418,5.649 18.103,6.086C17.788,6.523 17.388,6.827 16.903,6.998C16.418,7.169 15.844,7.254 15.183,7.254C14.522,7.254 13.948,7.169 13.463,6.998C12.978,6.827 12.578,6.523 12.263,6.086C11.948,5.649 11.714,5.057 11.559,4.31C11.404,3.563 11.327,2.619 11.327,1.478Z" style="fill-rule:nonzero;"/>
                </g>
                <g transform="matrix(1.84457,0,0,-1.84457,427.676,167.122)">
                    <path d="M13.951,11.383L16.927,11.383L16.927,22.711L14.783,22.711C14.687,22.38 14.564,22.1 14.415,21.871C14.266,21.641 14.074,21.46 13.839,21.327C13.604,21.193 13.322,21.097 12.991,21.039C12.66,20.98 12.266,20.951 11.807,20.951L11.807,19.095L13.951,19.095L13.951,11.383Z" style="fill-rule:nonzero;"/>
                </g>
                <g transform="matrix(0.639213,0,0,-0.623172,444.613,121.826)">
                    <rect x="0" y="0" width="30" height="20" style="fill-opacity:0.2;"/>
                </g>
                <g transform="matrix(0.639213,0,0,-0.659639,444.613,135.749)">
                    <path d="M30,40L30,0L0,0L0,40L30,40ZM28.045,38.106L1.955,38.106L1.955,1.894L28.045,1.894L28.045,38.106Z" style="fill:white;"/>
                </g>
            </g>
        </g>
        <g transform="matrix(1,0,0,1,689.58,0)">
            <clipPath id="_clip6">
                <rect x="443.364" y="144.183" width="21.628" height="28.837"/>
            </clipPath>
            <g clip-path="url(#_clip6)">
                <g transform="matrix(0.720917,0,0,-0.720917,443.364,173.02)">
                    <path d="M28.1,40C29.149,40 30,39.149 30,38.1L30,1.9C30,0.851 29.149,0 28.1,0L1.9,0C0.851,0 0,0.851 0,1.9L0,38.085C0,38.593 0.202,39.08 0.561,39.439C0.92,39.798 1.407,40 1.915,40L28.1,40Z" style="fill:rgb(243,243,243);"/>
                </g>
                <g transform="matrix(0.720917,0,0,-0.720917,443.364,173.02)">
                    <path d="M28.1,40C29.149,40 30,39.149 30,38.1L30,1.9C30,0.851 29.149,0 28.1,0L1.9,0C0.851,0 0,0.851 0,1.9L0,38.085C0,38.593 0.202,39.08 0.561,39.439C0.92,39.798 1.407,40 1.915,40L28.1,40ZM28.1,38.267L1.915,38.267C1.867,38.267 1.821,38.248 1.787,38.213C1.752,38.179 1.733,38.133 1.733,38.085L1.733,1.9C1.733,1.808 1.808,1.733 1.9,1.733L28.1,1.733C28.192,1.733 28.267,1.808 28.267,1.9L28.267,38.1C28.267,38.192 28.192,38.267 28.1,38.267Z"/>
                </g>
                <g transform="matrix(1.84457,0,0,-1.84457,426.171,146.954)">
                    <path d="M14.303,-0.394L14.303,3.35C14.303,4.15 14.372,4.691 14.511,4.974C14.65,5.257 14.874,5.398 15.183,5.398C15.492,5.398 15.716,5.257 15.855,4.974C15.994,4.691 16.063,4.15 16.063,3.35L16.063,-0.394C16.063,-1.194 15.994,-1.735 15.855,-2.018C15.716,-2.301 15.492,-2.442 15.183,-2.442C14.874,-2.442 14.65,-2.301 14.511,-2.018C14.372,-1.735 14.303,-1.194 14.303,-0.394ZM11.327,1.478C11.327,0.326 11.404,-0.621 11.559,-1.362C11.714,-2.103 11.948,-2.69 12.263,-3.122C12.578,-3.554 12.978,-3.85 13.463,-4.01C13.948,-4.17 14.522,-4.25 15.183,-4.25C15.844,-4.25 16.418,-4.17 16.903,-4.01C17.388,-3.85 17.788,-3.554 18.103,-3.122C18.418,-2.69 18.652,-2.103 18.807,-1.362C18.962,-0.621 19.039,0.326 19.039,1.478C19.039,2.619 18.962,3.563 18.807,4.31C18.652,5.057 18.418,5.649 18.103,6.086C17.788,6.523 17.388,6.827 16.903,6.998C16.418,7.169 15.844,7.254 15.183,7.254C14.522,7.254 13.948,7.169 13.463,6.998C12.978,6.827 12.578,6.523 12.263,6.086C11.948,5.649 11.714,5.057 11.559,4.31C11.404,3.563 11.327,2.619 11.327,1.478Z" style="fill-rule:nonzero;"/>
                </g>
                <g transform="matrix(1.84457,0,0,-1.84457,427.676,203.167)">
                    <path d="M13.951,11.383L16.927,11.383L16.927,22.711L14.783,22.711C14.687,22.38 14.564,22.1 14.415,21.871C14.266,21.641 14.074,21.46 13.839,21.327C13.604,21.193 13.322,21.097 12.991,21.039C12.66,20.98 12.266,20.951 11.807,20.951L11.807,19.095L13.951,19.095L13.951,11.383Z" style="fill-rule:nonzero;"/>
                </g>
                <g transform="matrix(0.639213,0,0,-0.623172,444.613,157.872)">
                    <rect x="0" y="0" width="30" height="20" style="fill-opacity:0.2;"/>
                </g>
                <g transform="matrix(0.639213,0,0,-0.659639,444.613,171.794)">
                    <path d="M30,40L30,0L0,0L0,40L30,40ZM28.045,38.106L1.955,38.106L1.955,1.894L28.045,1.894L28.045,38.106Z" style="fill:white;"/>
                </g>
            </g>
        </g>
        <g transform="matrix(1,0,0,1,689.58,0)">
            <g transform="matrix(0.0569145,0,0,-0.0569145,439.892,64.7497)">
                <path d="M431,502L71,502C65.478,502 61,497.523 61,492L61,10C61,4.477 65.478,0 71,0L431,0C436.522,0 441,4.477 441,10L441,492C441,497.523 436.522,502 431,502Z"/>
            </g>
        </g>
        <g transform="matrix(1,0,0,1,689.58,0)">
            <g transform="matrix(0.0569145,0,0,-0.0569145,439.892,64.7497)">
                <rect x="81" y="20" width="340" height="462" style="fill:white;"/>
            </g>
        </g>
        <g transform="matrix(1,0,0,1,689.58,0)">
            <g transform="matrix(0.0569145,0,0,-0.0569145,439.892,64.9204)">
                <path d="M126,199L213,199C218.522,199 223,203.477 223,209L223,228C223,233.523 218.522,238 213,238C207.478,238 203,233.523 203,228L203,219L136,219L136,286L198,286C203.522,286 208,290.477 208,296C208,301.523 203.522,306 198,306L126,306C120.478,306 116,301.523 116,296L116,209C116,203.477 120.478,199 126,199Z" style="fill:rgb(0,116,22);fill-rule:nonzero;"/>
            </g>
        </g>
        <g transform="matrix(1,0,0,1,689.58,0)">
            <g transform="matrix(0.0569145,0,0,-0.0569145,439.892,72.8885)">
                <path d="M126,199L213,199C218.522,199 223,203.477 223,209L223,228C223,233.523 218.522,238 213,238C207.478,238 203,233.523 203,228L203,219L136,219L136,286L198,286C203.522,286 208,290.477 208,296C208,301.523 203.522,306 198,306L126,306C120.478,306 116,301.523 116,296L116,209C116,203.477 120.478,199 126,199Z" style="fill:rgb(0,116,22);fill-rule:nonzero;"/>
            </g>
        </g>
        <g transform="matrix(1,0,0,1,689.58,0)">
            <g transform="matrix(0.0569145,0,0,-0.0569145,439.949,56.8839)">
                <path d="M126,199L213,199C218.522,199 223,203.477 223,209L223,228C223,233.523 218.522,238 213,238C207.478,238 203,233.523 203,228L203,219L136,219L136,286L198,286C203.522,286 208,290.477 208,296C208,301.523 203.522,306 198,306L126,306C120.478,306 116,301.523 116,296L116,209C116,203.477 120.478,199 126,199Z" style="fill:rgb(0,116,22);fill-rule:nonzero;"/>
            </g>
        </g>
        <g transform="matrix(1,0,0,1,689.58,0)">
            <g transform="matrix(0.0569145,0,0,-0.0569145,439.892,46.3094)">
                <path d="M327,79L377,79C382.522,79 387,83.477 387,89C387,94.523 382.522,99 377,99L327,99C321.478,99 317,94.523 317,89C317,83.477 321.478,79 327,79Z" style="fill:rgb(0,116,22);fill-rule:nonzero;"/>
            </g>
        </g>
        <g transform="matrix(1,0,0,1,689.58,0)">
            <g transform="matrix(0.0569145,0,0,-0.0569145,439.892,46.3094)">
                <path d="M268,79L285,79C290.522,79 295,83.477 295,89C295,94.523 290.522,99 285,99L268,99C262.478,99 258,94.523 258,89C258,83.477 262.478,79 268,79Z" style="fill:rgb(0,116,22);fill-rule:nonzero;"/>
            </g>
        </g>
        <g transform="matrix(1,0,0,1,689.58,0)">
            <g transform="matrix(0.0569145,0,0,-0.0569145,439.892,50.9764)">
                <path d="M268,120L377,120C382.522,120 387,124.477 387,130C387,135.523 382.522,140 377,140L268,140C262.478,140 258,135.523 258,130C258,124.477 262.478,120 268,120Z" style="fill:rgb(0,116,22);fill-rule:nonzero;"/>
            </g>
        </g>
        <g transform="matrix(1,0,0,1,689.58,0)">
            <g transform="matrix(0.0569145,0,0,-0.0569145,439.892,62.4731)">
                <path d="M377,241L327,241C321.478,241 317,236.523 317,231C317,225.477 321.478,221 327,221L377,221C382.522,221 387,225.477 387,231C387,236.523 382.522,241 377,241Z" style="fill:rgb(0,116,22);fill-rule:nonzero;"/>
            </g>
        </g>
        <g transform="matrix(1,0,0,1,689.58,0)">
            <g transform="matrix(0.0569145,0,0,-0.0569145,439.892,62.4731)">
                <path d="M268,221L285,221C290.522,221 295,225.477 295,231C295,236.523 290.522,241 285,241L268,241C262.478,241 258,236.523 258,231C258,225.477 262.478,221 268,221Z" style="fill:rgb(0,116,22);fill-rule:nonzero;"/>
            </g>
        </g>
        <g transform="matrix(1,0,0,1,689.58,0)">
            <g transform="matrix(0.0569145,0,0,-0.0569145,439.892,67.1401)">
                <path d="M268,262L377,262C382.522,262 387,266.477 387,272C387,277.523 382.522,282 377,282L268,282C262.478,282 258,277.523 258,272C258,266.477 262.478,262 268,262Z" style="fill:rgb(0,116,22);fill-rule:nonzero;"/>
            </g>
        </g>
        <g transform="matrix(1,0,0,1,689.58,0)">
            <g transform="matrix(0.0569145,0,0,-0.0569145,439.892,78.2953)">
                <path d="M377,380L327,380C321.478,380 317,375.523 317,370C317,364.477 321.478,360 327,360L377,360C382.522,360 387,364.477 387,370C387,375.523 382.522,380 377,380Z" style="fill:rgb(0,116,22);fill-rule:nonzero;"/>
            </g>
        </g>
        <g transform="matrix(1,0,0,1,689.58,0)">
            <g transform="matrix(0.0569145,0,0,-0.0569145,439.892,78.2953)">
                <path d="M268,360L285,360C290.522,360 295,364.477 295,370C295,375.523 290.522,380 285,380L268,380C262.478,380 258,375.523 258,370C258,364.477 262.478,360 268,360Z" style="fill:rgb(0,116,22);fill-rule:nonzero;"/>
            </g>
        </g>
        <g transform="matrix(1,0,0,1,689.58,0)">
            <g transform="matrix(0.0569145,0,0,-0.0569145,439.892,82.9623)">
                <path d="M268,401L377,401C382.522,401 387,405.477 387,411C387,416.523 382.522,421 377,421L268,421C262.478,421 258,416.523 258,411C258,405.477 262.478,401 268,401Z" style="fill:rgb(0,116,22);fill-rule:nonzero;"/>
            </g>
        </g>
        <g transform="matrix(1,0,0,1,689.58,0)">
            <g transform="matrix(0.0569145,0,0,-0.0569145,439.892,63.2428)">
                <path d="M161.907,239.253C157.916,243.068 151.584,242.925 147.769,238.932C143.953,234.939 144.097,228.609 148.09,224.793L173.429,200.452C175.382,198.499 177.941,197.523 180.5,197.523C183.059,197.523 185.618,198.499 187.571,200.452L247.071,259.952C250.976,263.857 250.976,270.189 247.071,274.095C243.165,278 236.835,278 232.928,274.095L180.408,221.575L161.907,239.253Z" style="fill:rgb(0,116,22);fill-rule:nonzero;"/>
            </g>
        </g>
        <g transform="matrix(1,0,0,1,689.58,0)">
            <g transform="matrix(0.0569145,0,0,-0.0569145,439.892,71.2108)">
                <path d="M161.907,239.253C157.916,243.068 151.584,242.925 147.769,238.932C143.953,234.939 144.097,228.609 148.09,224.793L173.429,200.452C175.382,198.499 177.941,197.523 180.5,197.523C183.059,197.523 185.618,198.499 187.571,200.452L247.071,259.952C250.976,263.857 250.976,270.189 247.071,274.095C243.165,278 236.835,278 232.928,274.095L180.408,221.575L161.907,239.253Z" style="fill:rgb(0,116,22);fill-rule:nonzero;"/>
            </g>
        </g>
        <g transform="matrix(1,0,0,1,689.58,0)">
            <g transform="matrix(0.0569145,0,0,-0.0569145,439.949,55.2063)">
                <path d="M161.907,239.253C157.916,243.068 151.584,242.925 147.769,238.932C143.953,234.939 144.097,228.609 148.09,224.793L173.429,200.452C175.382,198.499 177.941,197.523 180.5,197.523C183.059,197.523 185.618,198.499 187.571,200.452L247.071,259.952C250.976,263.857 250.976,270.189 247.071,274.095C243.165,278 236.835,278 232.928,274.095L180.408,221.575L161.907,239.253Z" style="fill:rgb(0,116,22);fill-rule:nonzero;"/>
            </g>
        </g>
        <g transform="matrix(1,0,0,1,689.58,0)">
            <g transform="matrix(0.339255,0,0,-0.339255,437.215,211.592)">
                <path d="M50.358,65.732C50.856,66.365 51.087,67.162 51.496,67.846C51.908,68.534 51.673,68.659 50.978,68.654C48.229,68.631 45.479,68.665 42.73,68.634C41.997,68.625 41.746,68.786 41.886,69.587C42.495,73.063 43.08,76.543 43.966,79.961C44.49,81.985 45.05,84.01 46.169,85.813C47.284,87.611 48.837,88.078 50.749,87.148C52.347,86.372 53.647,85.212 54.72,83.803C55.189,83.187 55.806,82.704 56.521,83.115C57.898,83.907 59.107,84.873 59.808,86.429C60.213,87.329 60.441,88.338 59.97,89.26C59.316,90.538 58.107,91.429 56.779,91.92C54.573,92.735 52.189,92.543 50.002,91.774C47.478,90.887 45.055,89.421 42.953,87.777C42.177,87.17 41.424,86.528 40.714,85.843C38.103,83.326 36.16,80.331 34.792,76.978C33.82,74.594 33.044,72.162 32.653,69.613C32.582,69.144 32.43,68.724 31.912,68.644C31.273,68.545 30.519,68.642 29.87,68.64C28.417,68.636 26.912,68.947 25.836,67.688C25.357,67.128 24.852,66.475 24.442,65.861C24.037,65.252 24.068,64.657 24.783,64.387C25.568,64.092 26.599,64.282 27.402,64.308C28.463,64.342 29.524,64.288 30.585,64.311C31.315,64.326 31.553,64.189 31.413,63.365C31.279,62.566 31.122,61.802 31.005,61.011C30.604,58.292 30.148,55.58 29.69,52.869C29.053,49.109 28.425,45.346 27.737,41.592C27.08,38.006 26.614,34.387 25.802,30.824C25.168,28.036 24.763,25.194 24.088,22.417C23.522,20.089 23.038,17.709 21.748,15.615C20.809,14.091 19.437,13.447 17.714,13.854C16.156,14.225 14.687,14.811 13.418,15.844C12.58,16.527 11.622,17.036 10.598,16.448C9.635,15.895 8.942,14.869 8.41,13.921C6.702,10.874 9.489,7.978 12.497,7.519C14.517,7.212 16.51,7.937 18.285,8.836C20.655,10.037 22.703,11.726 24.421,13.718C25.829,15.351 27.304,16.908 28.477,18.726C29.259,19.939 29.976,21.193 30.629,22.478C32.944,27.039 34.383,31.961 35.571,36.916C36.142,39.299 36.764,41.667 37.291,44.061C38.009,47.318 38.6,50.63 39.138,53.921C39.405,55.554 39.63,57.184 39.971,58.804C40.252,60.14 40.485,61.524 40.665,62.876C40.875,64.449 41.873,64.351 43.234,64.501C44.382,64.628 45.538,64.687 46.69,64.772C47.614,64.839 48.675,64.756 49.545,65.125C49.856,65.257 50.137,65.449 50.358,65.732Z" style="fill-rule:nonzero;"/>
            </g>
        </g>
        <g transform="matrix(1,0,0,1,689.58,0)">
            <g transform="matrix(0.339255,0,0,-0.339255,437.215,212.006)">
                <path d="M91.938,68.238C91.75,68.867 91.409,69.433 90.966,69.917C90.561,70.359 89.989,70.938 89.444,71.199C87.678,72.045 85.295,71.303 83.766,70.267C82.953,69.715 82.227,69.025 81.5,68.364C80.779,67.708 80.08,67.032 79.439,66.297C78.107,64.77 76.902,63.133 75.746,61.471C75.184,60.661 73.601,57.714 73.118,58.004C72.609,58.309 71.972,61.25 71.73,62.077C71.394,63.226 71.17,64.414 70.634,65.494C69.902,66.97 69.445,68.582 68.417,69.912C67.282,71.383 65.979,71.806 64.206,71.269C62.464,70.742 61.059,69.645 59.68,68.534C57.659,66.907 56.153,64.819 54.639,62.743C53.507,61.189 53.497,61.196 54.819,59.783C55.647,58.896 55.632,58.907 56.38,59.817C57.448,61.121 58.485,62.462 59.919,63.4C60.967,64.087 61.595,63.949 62.243,62.868C62.561,62.336 62.832,61.764 63.046,61.18C64.392,57.514 65.413,53.744 66.623,50.037C66.776,49.565 66.578,49.259 66.354,48.92C64.924,46.759 63.469,44.612 61.85,42.589C60.565,40.98 59.27,39.365 57.543,38.187C56.79,37.67 55.908,37.314 54.993,37.558C54.055,37.81 53.494,38.66 52.637,39.056C52.613,39.068 52.586,39.077 52.561,39.088C52.161,39.251 51.559,39.244 51.145,39.151C49.324,38.74 48.347,36.688 47.976,35.045C47.64,33.554 47.971,31.924 49.024,30.784C49.942,29.79 51.319,29.375 52.64,29.355C53.398,29.344 54.244,29.542 54.948,29.814C57.636,30.865 59.687,33.372 61.385,35.596C62.53,37.098 63.593,38.66 64.712,40.182C65.637,41.44 67.463,45.186 67.984,45.198C68.299,45.205 68.382,44.453 68.442,44.231C68.576,43.735 68.709,43.239 68.852,42.746C69.524,40.426 70.231,38.108 70.958,35.806C71.443,34.265 72.225,32.667 73.207,31.381C73.505,30.99 73.878,30.616 74.262,30.311C75.751,29.12 77.626,29.21 79.34,29.817C80.108,30.088 80.824,30.471 81.503,30.922C84.639,33.007 86.88,35.912 88.997,38.953C89.496,39.67 89.428,40.071 88.859,40.67C87.386,42.219 87.427,42.233 86.031,40.59C84.984,39.361 83.917,38.133 82.504,37.306C81.518,36.726 80.846,36.892 80.127,37.781C79.531,38.517 79.139,39.372 78.798,40.247C77.395,43.861 76.436,47.621 75.248,51.306C74.376,54.01 74.352,54.035 76.088,56.314C77.883,58.671 79.6,61.114 81.952,62.977C83.681,64.347 84.887,64.271 86.48,62.74C86.796,62.436 87.312,62.183 87.751,62.148C89.234,62.029 90.523,63.361 91.284,64.471C92.038,65.565 92.324,66.951 91.938,68.238Z" style="fill-rule:nonzero;"/>
            </g>
        </g>
        <g transform="matrix(1,0,0,1,689.58,0)">
            <g transform="matrix(0.720917,0,0,-0.720917,0,173.02)">
                <rect x="615" y="100" width="30" height="40" style="fill:none;stroke:rgb(130,179,102);stroke-width:2px;"/>
            </g>
        </g>
        <g transform="matrix(1,0,0,1,689.58,0)">
            <g transform="matrix(0.720917,0,0,-0.720917,0,245.112)">
                <rect x="615" y="150" width="30" height="40" style="fill:none;stroke:rgb(108,142,191);stroke-width:2px;"/>
            </g>
        </g>
        <g transform="matrix(1,0,0,1,689.58,0)">
            <g transform="matrix(0.720917,0,0,-0.720917,0,446.968)">
                <rect x="470" y="290" width="30" height="40" style="fill:none;stroke:rgb(108,142,191);stroke-width:2px;"/>
            </g>
        </g>
        <g transform="matrix(1,0,0,1,689.58,0)">
            <g transform="matrix(0.720917,0,0,-0.720917,0,619.988)">
                <rect x="470" y="410" width="30" height="40" style="fill:none;stroke:rgb(214,182,86);stroke-width:2px;"/>
            </g>
        </g>
        <g transform="matrix(1,0,0,1,689.58,0)">
            <g transform="matrix(0.720917,0,0,-0.720917,0,317.203)">
                <rect x="615" y="200" width="30" height="40" style="fill:none;stroke:rgb(214,182,86);stroke-width:2px;"/>
            </g>
        </g>
    </g>
</svg>
