<?xml version="1.0" encoding="UTF-8" standalone="no"?>
<!DOCTYPE svg PUBLIC "-//W3C//DTD SVG 1.1//EN" "http://www.w3.org/Graphics/SVG/1.1/DTD/svg11.dtd">
<svg width="100%" height="100%" viewBox="0 0 385 207" version="1.1" xmlns="http://www.w3.org/2000/svg" xmlns:xlink="http://www.w3.org/1999/xlink" xml:space="preserve" xmlns:serif="http://www.serif.com/" style="fill-rule:evenodd;clip-rule:evenodd;stroke-miterlimit:10;">
    <g transform="matrix(1,0,0,1,-1390.61,-12.3348)">
        <g transform="matrix(1,0,0,1,1379.16,0)">
            <g transform="matrix(0.720917,0,0,-0.720917,0,317.203)">
                <path d="M210,180L245,180C251.667,180 255,183.333 255,190L255,250C255,256.667 258.333,260 265,260L289.76,260" style="fill:none;fill-rule:nonzero;stroke:rgb(35,68,93);stroke-width:2px;"/>
            </g>
            <g transform="matrix(0.720917,0,0,-0.720917,0,259.53)">
                <path d="M297.76,180L289.76,177.33L289.76,182.67L297.76,180Z" style="fill:rgb(35,68,93);fill-rule:nonzero;stroke:rgb(35,68,93);stroke-width:2px;"/>
            </g>
            <g transform="matrix(0.720917,0,0,-0.720917,0,374.877)">
                <path d="M22.4,300L207.6,300C207.918,300 208.224,299.939 208.518,299.817C208.812,299.696 209.072,299.522 209.297,299.297C209.522,299.072 209.695,298.812 209.817,298.518C209.939,298.224 210,297.918 210,297.6L210,222.4C210,222.082 209.939,221.776 209.817,221.482C209.695,221.188 209.522,220.928 209.297,220.703C209.072,220.478 208.812,220.305 208.518,220.183C208.224,220.061 207.918,220 207.6,220L22.4,220C22.082,220 21.776,220.061 21.482,220.183C21.188,220.305 20.928,220.478 20.703,220.703C20.478,220.928 20.304,221.188 20.183,221.482C20.061,221.776 20,222.082 20,222.4L20,297.6C20,297.918 20.061,298.224 20.183,298.518C20.304,298.812 20.478,299.072 20.703,299.297C20.928,299.522 21.188,299.696 21.482,299.817C21.776,299.939 22.082,300 22.4,300Z" style="fill:rgb(249,247,237);fill-rule:nonzero;stroke:rgb(153,153,153);stroke-width:2px;stroke-miterlimit:4;"/>
            </g>
            <g transform="matrix(0.720917,0,0,-0.720917,0,209.066)">
                <path d="M210,180L245,180C251.667,180 255,176.667 255,170L255,120C255,113.333 258.333,110 265,110L289.76,110" style="fill:none;fill-rule:nonzero;stroke:rgb(35,68,93);stroke-width:2px;"/>
            </g>
            <g transform="matrix(0.720917,0,0,-0.720917,0,259.53)">
                <path d="M297.76,180L289.76,177.33L289.76,182.67L297.76,180Z" style="fill:rgb(35,68,93);fill-rule:nonzero;stroke:rgb(35,68,93);stroke-width:2px;"/>
            </g>
            <g transform="matrix(0.720917,0,0,-0.720917,0,158.602)">
                <path d="M24.8,190L205.2,190C205.837,190 206.449,189.878 207.037,189.635C207.625,189.391 208.144,189.044 208.594,188.594C209.044,188.144 209.391,187.625 209.635,187.037C209.878,186.449 210,185.837 210,185.2L210,34.8C210,34.164 209.878,33.551 209.635,32.963C209.391,32.375 209.044,31.856 208.594,31.406C208.144,30.956 207.625,30.609 207.037,30.365C206.449,30.122 205.837,30 205.2,30L24.8,30C24.163,30 23.551,30.122 22.963,30.365C22.375,30.609 21.856,30.956 21.406,31.406C20.956,31.856 20.609,32.375 20.365,32.963C20.122,33.551 20,34.164 20,34.8L20,185.2C20,185.837 20.122,186.449 20.365,187.037C20.609,187.625 20.956,188.144 21.406,188.594C21.856,189.044 22.375,189.391 22.963,189.635C23.551,189.878 24.163,190 24.8,190Z" style="fill:rgb(249,247,237);fill-rule:nonzero;stroke:rgb(153,153,153);stroke-width:2px;stroke-miterlimit:4;"/>
            </g>
            <g>
                <clipPath id="_clip1">
                    <rect x="25.232" y="50.464" width="10.814" height="14.418"/>
                </clipPath>
                <g clip-path="url(#_clip1)">
                    <g transform="matrix(0.360458,0,0,-0.360458,25.2321,64.8825)">
                        <path d="M28.1,40C29.149,40 30,39.149 30,38.1L30,1.9C30,0.851 29.149,0 28.1,0L1.9,0C0.851,0 0,0.851 0,1.9L0,38.085C0,38.593 0.202,39.08 0.561,39.439C0.92,39.798 1.407,40 1.915,40L28.1,40Z" style="fill:rgb(243,243,243);"/>
                    </g>
                    <g transform="matrix(0.360458,0,0,-0.360458,25.2321,64.8825)">
                        <path d="M28.1,40C29.149,40 30,39.149 30,38.1L30,1.9C30,0.851 29.149,0 28.1,0L1.9,0C0.851,0 0,0.851 0,1.9L0,38.085C0,38.593 0.202,39.08 0.561,39.439C0.92,39.798 1.407,40 1.915,40L28.1,40ZM28.1,38.267L1.915,38.267C1.867,38.267 1.821,38.248 1.787,38.213C1.752,38.179 1.733,38.133 1.733,38.085L1.733,1.9C1.733,1.808 1.808,1.733 1.9,1.733L28.1,1.733C28.192,1.733 28.267,1.808 28.267,1.9L28.267,38.1C28.267,38.192 28.192,38.267 28.1,38.267Z"/>
                    </g>
                    <g transform="matrix(0.922283,0,0,-0.922283,16.6359,51.8494)">
                        <path d="M14.303,-0.394L14.303,3.35C14.303,4.15 14.372,4.691 14.511,4.974C14.65,5.257 14.874,5.398 15.183,5.398C15.492,5.398 15.716,5.257 15.855,4.974C15.994,4.691 16.063,4.15 16.063,3.35L16.063,-0.394C16.063,-1.194 15.994,-1.735 15.855,-2.018C15.716,-2.301 15.492,-2.442 15.183,-2.442C14.874,-2.442 14.65,-2.301 14.511,-2.018C14.372,-1.735 14.303,-1.194 14.303,-0.394ZM11.327,1.478C11.327,0.326 11.404,-0.621 11.559,-1.362C11.714,-2.103 11.948,-2.69 12.263,-3.122C12.578,-3.554 12.978,-3.85 13.463,-4.01C13.948,-4.17 14.522,-4.25 15.183,-4.25C15.844,-4.25 16.418,-4.17 16.903,-4.01C17.388,-3.85 17.788,-3.554 18.103,-3.122C18.418,-2.69 18.652,-2.103 18.807,-1.362C18.962,-0.621 19.039,0.326 19.039,1.478C19.039,2.619 18.962,3.563 18.807,4.31C18.652,5.057 18.418,5.649 18.103,6.086C17.788,6.523 17.388,6.827 16.903,6.998C16.418,7.169 15.844,7.254 15.183,7.254C14.522,7.254 13.948,7.169 13.463,6.998C12.978,6.827 12.578,6.523 12.263,6.086C11.948,5.649 11.714,5.057 11.559,4.31C11.404,3.563 11.327,2.619 11.327,1.478Z" style="fill-rule:nonzero;"/>
                    </g>
                    <g transform="matrix(0.922283,0,0,-0.922283,17.3885,79.9562)">
                        <path d="M13.951,11.383L16.927,11.383L16.927,22.711L14.783,22.711C14.687,22.38 14.564,22.1 14.415,21.871C14.266,21.641 14.074,21.46 13.839,21.327C13.604,21.193 13.322,21.097 12.991,21.039C12.66,20.98 12.266,20.951 11.807,20.951L11.807,19.095L13.951,19.095L13.951,11.383Z" style="fill-rule:nonzero;"/>
                    </g>
                    <g transform="matrix(0.319606,0,0,-0.311586,25.8566,57.3087)">
                        <rect x="0" y="0" width="30" height="20" style="fill-opacity:0.2;"/>
                    </g>
                    <g transform="matrix(0.319606,0,0,-0.329819,25.8566,64.2697)">
                        <path d="M30,40L30,0L0,0L0,40L30,40ZM28.045,38.106L1.955,38.106L1.955,1.894L28.045,1.894L28.045,38.106Z" style="fill:white;"/>
                    </g>
                </g>
            </g>
            <g>
                <clipPath id="_clip2">
                    <rect x="25.232" y="72.092" width="10.814" height="14.418"/>
                </clipPath>
                <g clip-path="url(#_clip2)">
                    <g transform="matrix(0.360458,0,0,-0.360458,25.2321,86.51)">
                        <path d="M28.1,40C29.149,40 30,39.149 30,38.1L30,1.9C30,0.851 29.149,0 28.1,0L1.9,0C0.851,0 0,0.851 0,1.9L0,38.085C0,38.593 0.202,39.08 0.561,39.439C0.92,39.798 1.407,40 1.915,40L28.1,40Z" style="fill:rgb(243,243,243);"/>
                    </g>
                    <g transform="matrix(0.360458,0,0,-0.360458,25.2321,86.51)">
                        <path d="M28.1,40C29.149,40 30,39.149 30,38.1L30,1.9C30,0.851 29.149,0 28.1,0L1.9,0C0.851,0 0,0.851 0,1.9L0,38.085C0,38.593 0.202,39.08 0.561,39.439C0.92,39.798 1.407,40 1.915,40L28.1,40ZM28.1,38.267L1.915,38.267C1.867,38.267 1.821,38.248 1.787,38.213C1.752,38.179 1.733,38.133 1.733,38.085L1.733,1.9C1.733,1.808 1.808,1.733 1.9,1.733L28.1,1.733C28.192,1.733 28.267,1.808 28.267,1.9L28.267,38.1C28.267,38.192 28.192,38.267 28.1,38.267Z"/>
                    </g>
                    <g transform="matrix(0.922283,0,0,-0.922283,16.6359,73.4769)">
                        <path d="M14.303,-0.394L14.303,3.35C14.303,4.15 14.372,4.691 14.511,4.974C14.65,5.257 14.874,5.398 15.183,5.398C15.492,5.398 15.716,5.257 15.855,4.974C15.994,4.691 16.063,4.15 16.063,3.35L16.063,-0.394C16.063,-1.194 15.994,-1.735 15.855,-2.018C15.716,-2.301 15.492,-2.442 15.183,-2.442C14.874,-2.442 14.65,-2.301 14.511,-2.018C14.372,-1.735 14.303,-1.194 14.303,-0.394ZM11.327,1.478C11.327,0.326 11.404,-0.621 11.559,-1.362C11.714,-2.103 11.948,-2.69 12.263,-3.122C12.578,-3.554 12.978,-3.85 13.463,-4.01C13.948,-4.17 14.522,-4.25 15.183,-4.25C15.844,-4.25 16.418,-4.17 16.903,-4.01C17.388,-3.85 17.788,-3.554 18.103,-3.122C18.418,-2.69 18.652,-2.103 18.807,-1.362C18.962,-0.621 19.039,0.326 19.039,1.478C19.039,2.619 18.962,3.563 18.807,4.31C18.652,5.057 18.418,5.649 18.103,6.086C17.788,6.523 17.388,6.827 16.903,6.998C16.418,7.169 15.844,7.254 15.183,7.254C14.522,7.254 13.948,7.169 13.463,6.998C12.978,6.827 12.578,6.523 12.263,6.086C11.948,5.649 11.714,5.057 11.559,4.31C11.404,3.563 11.327,2.619 11.327,1.478Z" style="fill-rule:nonzero;"/>
                    </g>
                    <g transform="matrix(0.922283,0,0,-0.922283,17.3885,101.584)">
                        <path d="M13.951,11.383L16.927,11.383L16.927,22.711L14.783,22.711C14.687,22.38 14.564,22.1 14.415,21.871C14.266,21.641 14.074,21.46 13.839,21.327C13.604,21.193 13.322,21.097 12.991,21.039C12.66,20.98 12.266,20.951 11.807,20.951L11.807,19.095L13.951,19.095L13.951,11.383Z" style="fill-rule:nonzero;"/>
                    </g>
                    <g transform="matrix(0.319606,0,0,-0.311586,25.8566,78.9362)">
                        <rect x="0" y="0" width="30" height="20" style="fill-opacity:0.2;"/>
                    </g>
                    <g transform="matrix(0.319606,0,0,-0.329819,25.8566,85.8972)">
                        <path d="M30,40L30,0L0,0L0,40L30,40ZM28.045,38.106L1.955,38.106L1.955,1.894L28.045,1.894L28.045,38.106Z" style="fill:white;"/>
                    </g>
                </g>
            </g>
            <g>
                <clipPath id="_clip3">
                    <rect x="25.232" y="93.719" width="10.814" height="14.418"/>
                </clipPath>
                <g clip-path="url(#_clip3)">
                    <g transform="matrix(0.360458,0,0,-0.360458,25.2321,108.137)">
                        <path d="M28.1,40C29.149,40 30,39.149 30,38.1L30,1.9C30,0.851 29.149,0 28.1,0L1.9,0C0.851,0 0,0.851 0,1.9L0,38.085C0,38.593 0.202,39.08 0.561,39.439C0.92,39.798 1.407,40 1.915,40L28.1,40Z" style="fill:rgb(243,243,243);"/>
                    </g>
                    <g transform="matrix(0.360458,0,0,-0.360458,25.2321,108.137)">
                        <path d="M28.1,40C29.149,40 30,39.149 30,38.1L30,1.9C30,0.851 29.149,0 28.1,0L1.9,0C0.851,0 0,0.851 0,1.9L0,38.085C0,38.593 0.202,39.08 0.561,39.439C0.92,39.798 1.407,40 1.915,40L28.1,40ZM28.1,38.267L1.915,38.267C1.867,38.267 1.821,38.248 1.787,38.213C1.752,38.179 1.733,38.133 1.733,38.085L1.733,1.9C1.733,1.808 1.808,1.733 1.9,1.733L28.1,1.733C28.192,1.733 28.267,1.808 28.267,1.9L28.267,38.1C28.267,38.192 28.192,38.267 28.1,38.267Z"/>
                    </g>
                    <g transform="matrix(0.922283,0,0,-0.922283,16.6359,95.1044)">
                        <path d="M14.303,-0.394L14.303,3.35C14.303,4.15 14.372,4.691 14.511,4.974C14.65,5.257 14.874,5.398 15.183,5.398C15.492,5.398 15.716,5.257 15.855,4.974C15.994,4.691 16.063,4.15 16.063,3.35L16.063,-0.394C16.063,-1.194 15.994,-1.735 15.855,-2.018C15.716,-2.301 15.492,-2.442 15.183,-2.442C14.874,-2.442 14.65,-2.301 14.511,-2.018C14.372,-1.735 14.303,-1.194 14.303,-0.394ZM11.327,1.478C11.327,0.326 11.404,-0.621 11.559,-1.362C11.714,-2.103 11.948,-2.69 12.263,-3.122C12.578,-3.554 12.978,-3.85 13.463,-4.01C13.948,-4.17 14.522,-4.25 15.183,-4.25C15.844,-4.25 16.418,-4.17 16.903,-4.01C17.388,-3.85 17.788,-3.554 18.103,-3.122C18.418,-2.69 18.652,-2.103 18.807,-1.362C18.962,-0.621 19.039,0.326 19.039,1.478C19.039,2.619 18.962,3.563 18.807,4.31C18.652,5.057 18.418,5.649 18.103,6.086C17.788,6.523 17.388,6.827 16.903,6.998C16.418,7.169 15.844,7.254 15.183,7.254C14.522,7.254 13.948,7.169 13.463,6.998C12.978,6.827 12.578,6.523 12.263,6.086C11.948,5.649 11.714,5.057 11.559,4.31C11.404,3.563 11.327,2.619 11.327,1.478Z" style="fill-rule:nonzero;"/>
                    </g>
                    <g transform="matrix(0.922283,0,0,-0.922283,17.3885,123.211)">
                        <path d="M13.951,11.383L16.927,11.383L16.927,22.711L14.783,22.711C14.687,22.38 14.564,22.1 14.415,21.871C14.266,21.641 14.074,21.46 13.839,21.327C13.604,21.193 13.322,21.097 12.991,21.039C12.66,20.98 12.266,20.951 11.807,20.951L11.807,19.095L13.951,19.095L13.951,11.383Z" style="fill-rule:nonzero;"/>
                    </g>
                    <g transform="matrix(0.319606,0,0,-0.311586,25.8566,100.564)">
                        <rect x="0" y="0" width="30" height="20" style="fill-opacity:0.2;"/>
                    </g>
                    <g transform="matrix(0.319606,0,0,-0.329819,25.8566,107.525)">
                        <path d="M30,40L30,0L0,0L0,40L30,40ZM28.045,38.106L1.955,38.106L1.955,1.894L28.045,1.894L28.045,38.106Z" style="fill:white;"/>
                    </g>
                </g>
            </g>
            <g transform="matrix(0.0284572,0,0,-0.0284572,23.4962,43.1886)">
                <path d="M431,502L71,502C65.478,502 61,497.523 61,492L61,10C61,4.477 65.478,0 71,0L431,0C436.522,0 441,4.477 441,10L441,492C441,497.523 436.522,502 431,502Z"/>
            </g>
            <g transform="matrix(0.0284572,0,0,-0.0284572,23.4962,43.1886)">
                <rect x="81" y="20" width="340" height="462" style="fill:white;"/>
            </g>
            <g transform="matrix(0.0284572,0,0,-0.0284572,23.4962,43.274)">
                <path d="M126,199L213,199C218.522,199 223,203.477 223,209L223,228C223,233.523 218.522,238 213,238C207.478,238 203,233.523 203,228L203,219L136,219L136,286L198,286C203.522,286 208,290.477 208,296C208,301.523 203.522,306 198,306L126,306C120.478,306 116,301.523 116,296L116,209C116,203.477 120.478,199 126,199Z" style="fill:rgb(0,116,22);fill-rule:nonzero;"/>
            </g>
            <g transform="matrix(0.0284572,0,0,-0.0284572,23.4962,47.258)">
                <path d="M126,199L213,199C218.522,199 223,203.477 223,209L223,228C223,233.523 218.522,238 213,238C207.478,238 203,233.523 203,228L203,219L136,219L136,286L198,286C203.522,286 208,290.477 208,296C208,301.523 203.522,306 198,306L126,306C120.478,306 116,301.523 116,296L116,209C116,203.477 120.478,199 126,199Z" style="fill:rgb(0,116,22);fill-rule:nonzero;"/>
            </g>
            <g transform="matrix(0.0284572,0,0,-0.0284572,23.5247,39.2557)">
                <path d="M126,199L213,199C218.522,199 223,203.477 223,209L223,228C223,233.523 218.522,238 213,238C207.478,238 203,233.523 203,228L203,219L136,219L136,286L198,286C203.522,286 208,290.477 208,296C208,301.523 203.522,306 198,306L126,306C120.478,306 116,301.523 116,296L116,209C116,203.477 120.478,199 126,199Z" style="fill:rgb(0,116,22);fill-rule:nonzero;"/>
            </g>
            <g transform="matrix(0.0284572,0,0,-0.0284572,23.4962,33.9684)">
                <path d="M327,79L377,79C382.522,79 387,83.477 387,89C387,94.523 382.522,99 377,99L327,99C321.478,99 317,94.523 317,89C317,83.477 321.478,79 327,79Z" style="fill:rgb(0,116,22);fill-rule:nonzero;"/>
            </g>
            <g transform="matrix(0.0284572,0,0,-0.0284572,23.4962,33.9684)">
                <path d="M268,79L285,79C290.522,79 295,83.477 295,89C295,94.523 290.522,99 285,99L268,99C262.478,99 258,94.523 258,89C258,83.477 262.478,79 268,79Z" style="fill:rgb(0,116,22);fill-rule:nonzero;"/>
            </g>
            <g transform="matrix(0.0284572,0,0,-0.0284572,23.4962,36.3019)">
                <path d="M268,120L377,120C382.522,120 387,124.477 387,130C387,135.523 382.522,140 377,140L268,140C262.478,140 258,135.523 258,130C258,124.477 262.478,120 268,120Z" style="fill:rgb(0,116,22);fill-rule:nonzero;"/>
            </g>
            <g transform="matrix(0.0284572,0,0,-0.0284572,23.4962,42.0503)">
                <path d="M377,241L327,241C321.478,241 317,236.523 317,231C317,225.477 321.478,221 327,221L377,221C382.522,221 387,225.477 387,231C387,236.523 382.522,241 377,241Z" style="fill:rgb(0,116,22);fill-rule:nonzero;"/>
            </g>
            <g transform="matrix(0.0284572,0,0,-0.0284572,23.4962,42.0503)">
                <path d="M268,221L285,221C290.522,221 295,225.477 295,231C295,236.523 290.522,241 285,241L268,241C262.478,241 258,236.523 258,231C258,225.477 262.478,221 268,221Z" style="fill:rgb(0,116,22);fill-rule:nonzero;"/>
            </g>
            <g transform="matrix(0.0284572,0,0,-0.0284572,23.4962,44.3838)">
                <path d="M268,262L377,262C382.522,262 387,266.477 387,272C387,277.523 382.522,282 377,282L268,282C262.478,282 258,277.523 258,272C258,266.477 262.478,262 268,262Z" style="fill:rgb(0,116,22);fill-rule:nonzero;"/>
            </g>
            <g transform="matrix(0.0284572,0,0,-0.0284572,23.4962,49.9614)">
                <path d="M377,380L327,380C321.478,380 317,375.523 317,370C317,364.477 321.478,360 327,360L377,360C382.522,360 387,364.477 387,370C387,375.523 382.522,380 377,380Z" style="fill:rgb(0,116,22);fill-rule:nonzero;"/>
            </g>
            <g transform="matrix(0.0284572,0,0,-0.0284572,23.4962,49.9614)">
                <path d="M268,360L285,360C290.522,360 295,364.477 295,370C295,375.523 290.522,380 285,380L268,380C262.478,380 258,375.523 258,370C258,364.477 262.478,360 268,360Z" style="fill:rgb(0,116,22);fill-rule:nonzero;"/>
            </g>
            <g transform="matrix(0.0284572,0,0,-0.0284572,23.4962,52.2949)">
                <path d="M268,401L377,401C382.522,401 387,405.477 387,411C387,416.523 382.522,421 377,421L268,421C262.478,421 258,416.523 258,411C258,405.477 262.478,401 268,401Z" style="fill:rgb(0,116,22);fill-rule:nonzero;"/>
            </g>
            <g transform="matrix(0.0284572,0,0,-0.0284572,23.4962,42.4351)">
                <path d="M161.907,239.253C157.916,243.068 151.584,242.925 147.769,238.932C143.953,234.939 144.097,228.609 148.09,224.793L173.429,200.452C175.382,198.499 177.941,197.523 180.5,197.523C183.059,197.523 185.618,198.499 187.571,200.452L247.071,259.952C250.976,263.857 250.976,270.189 247.071,274.095C243.165,278 236.835,278 232.928,274.095L180.408,221.575L161.907,239.253Z" style="fill:rgb(0,116,22);fill-rule:nonzero;"/>
            </g>
            <g transform="matrix(0.0284572,0,0,-0.0284572,23.4962,46.4191)">
                <path d="M161.907,239.253C157.916,243.068 151.584,242.925 147.769,238.932C143.953,234.939 144.097,228.609 148.09,224.793L173.429,200.452C175.382,198.499 177.941,197.523 180.5,197.523C183.059,197.523 185.618,198.499 187.571,200.452L247.071,259.952C250.976,263.857 250.976,270.189 247.071,274.095C243.165,278 236.835,278 232.928,274.095L180.408,221.575L161.907,239.253Z" style="fill:rgb(0,116,22);fill-rule:nonzero;"/>
            </g>
            <g transform="matrix(0.0284572,0,0,-0.0284572,23.5247,38.4169)">
                <path d="M161.907,239.253C157.916,243.068 151.584,242.925 147.769,238.932C143.953,234.939 144.097,228.609 148.09,224.793L173.429,200.452C175.382,198.499 177.941,197.523 180.5,197.523C183.059,197.523 185.618,198.499 187.571,200.452L247.071,259.952C250.976,263.857 250.976,270.189 247.071,274.095C243.165,278 236.835,278 232.928,274.095L180.408,221.575L161.907,239.253Z" style="fill:rgb(0,116,22);fill-rule:nonzero;"/>
            </g>
            <g transform="matrix(0.169627,0,0,-0.169627,22.1577,131.028)">
                <path d="M50.358,65.732C50.856,66.365 51.087,67.162 51.496,67.846C51.908,68.534 51.673,68.659 50.978,68.654C48.229,68.631 45.479,68.665 42.73,68.634C41.997,68.625 41.746,68.786 41.886,69.587C42.495,73.063 43.08,76.543 43.966,79.961C44.49,81.985 45.05,84.01 46.169,85.813C47.284,87.611 48.837,88.078 50.749,87.148C52.347,86.372 53.647,85.212 54.72,83.803C55.189,83.187 55.806,82.704 56.521,83.115C57.898,83.907 59.107,84.873 59.808,86.429C60.213,87.329 60.441,88.338 59.97,89.26C59.316,90.538 58.107,91.429 56.779,91.92C54.573,92.735 52.189,92.543 50.002,91.774C47.478,90.887 45.055,89.421 42.953,87.777C42.177,87.17 41.424,86.528 40.714,85.843C38.103,83.326 36.16,80.331 34.792,76.978C33.82,74.594 33.044,72.162 32.653,69.613C32.582,69.144 32.43,68.724 31.912,68.644C31.273,68.545 30.519,68.642 29.87,68.64C28.417,68.636 26.912,68.947 25.836,67.688C25.357,67.128 24.852,66.475 24.442,65.861C24.037,65.252 24.068,64.657 24.783,64.387C25.568,64.092 26.599,64.282 27.402,64.308C28.463,64.342 29.524,64.288 30.585,64.311C31.315,64.326 31.553,64.189 31.413,63.365C31.279,62.566 31.122,61.802 31.005,61.011C30.604,58.292 30.148,55.58 29.69,52.869C29.053,49.109 28.425,45.346 27.737,41.592C27.08,38.006 26.614,34.387 25.802,30.824C25.168,28.036 24.763,25.194 24.088,22.417C23.522,20.089 23.038,17.709 21.748,15.615C20.809,14.091 19.437,13.447 17.714,13.854C16.156,14.225 14.687,14.811 13.418,15.844C12.58,16.527 11.622,17.036 10.598,16.448C9.635,15.895 8.942,14.869 8.41,13.921C6.702,10.874 9.489,7.978 12.497,7.519C14.517,7.212 16.51,7.937 18.285,8.836C20.655,10.037 22.703,11.726 24.421,13.718C25.829,15.351 27.304,16.908 28.477,18.726C29.259,19.939 29.976,21.193 30.629,22.478C32.944,27.039 34.383,31.961 35.571,36.916C36.142,39.299 36.764,41.667 37.291,44.061C38.009,47.318 38.6,50.63 39.138,53.921C39.405,55.554 39.63,57.184 39.971,58.804C40.252,60.14 40.485,61.524 40.665,62.876C40.875,64.449 41.873,64.351 43.234,64.501C44.382,64.628 45.538,64.687 46.69,64.772C47.614,64.839 48.675,64.756 49.545,65.125C49.856,65.257 50.137,65.449 50.358,65.732Z" style="fill-rule:nonzero;"/>
            </g>
            <g transform="matrix(0.169627,0,0,-0.169627,22.1577,131.235)">
                <path d="M91.938,68.238C91.75,68.867 91.409,69.433 90.966,69.917C90.561,70.359 89.989,70.938 89.444,71.199C87.678,72.045 85.295,71.303 83.766,70.267C82.953,69.715 82.227,69.025 81.5,68.364C80.779,67.708 80.08,67.032 79.439,66.297C78.107,64.77 76.902,63.133 75.746,61.471C75.184,60.661 73.601,57.714 73.118,58.004C72.609,58.309 71.972,61.25 71.73,62.077C71.394,63.226 71.17,64.414 70.634,65.494C69.902,66.97 69.445,68.582 68.417,69.912C67.282,71.383 65.979,71.806 64.206,71.269C62.464,70.742 61.059,69.645 59.68,68.534C57.659,66.907 56.153,64.819 54.639,62.743C53.507,61.189 53.497,61.196 54.819,59.783C55.647,58.896 55.632,58.907 56.38,59.817C57.448,61.121 58.485,62.462 59.919,63.4C60.967,64.087 61.595,63.949 62.243,62.868C62.561,62.336 62.832,61.764 63.046,61.18C64.392,57.514 65.413,53.744 66.623,50.037C66.776,49.565 66.578,49.259 66.354,48.92C64.924,46.759 63.469,44.612 61.85,42.589C60.565,40.98 59.27,39.365 57.543,38.187C56.79,37.67 55.908,37.314 54.993,37.558C54.055,37.81 53.494,38.66 52.637,39.056C52.613,39.068 52.586,39.077 52.561,39.088C52.161,39.251 51.559,39.244 51.145,39.151C49.324,38.74 48.347,36.688 47.976,35.045C47.64,33.554 47.971,31.924 49.024,30.784C49.942,29.79 51.319,29.375 52.64,29.355C53.398,29.344 54.244,29.542 54.948,29.814C57.636,30.865 59.687,33.372 61.385,35.596C62.53,37.098 63.593,38.66 64.712,40.182C65.637,41.44 67.463,45.186 67.984,45.198C68.299,45.205 68.382,44.453 68.442,44.231C68.576,43.735 68.709,43.239 68.852,42.746C69.524,40.426 70.231,38.108 70.958,35.806C71.443,34.265 72.225,32.667 73.207,31.381C73.505,30.99 73.878,30.616 74.262,30.311C75.751,29.12 77.626,29.21 79.34,29.817C80.108,30.088 80.824,30.471 81.503,30.922C84.639,33.007 86.88,35.912 88.997,38.953C89.496,39.67 89.428,40.071 88.859,40.67C87.386,42.219 87.427,42.233 86.031,40.59C84.984,39.361 83.917,38.133 82.504,37.306C81.518,36.726 80.846,36.892 80.127,37.781C79.531,38.517 79.139,39.372 78.798,40.247C77.395,43.861 76.436,47.621 75.248,51.306C74.376,54.01 74.352,54.035 76.088,56.314C77.883,58.671 79.6,61.114 81.952,62.977C83.681,64.347 84.887,64.271 86.48,62.74C86.796,62.436 87.312,62.183 87.751,62.148C89.234,62.029 90.523,63.361 91.284,64.471C92.038,65.565 92.324,66.951 91.938,68.238Z" style="fill-rule:nonzero;"/>
            </g>
            <g transform="matrix(0.720917,0,0,-0.720917,0.360458,231.054)">
                <rect x="390" y="150" width="50" height="20" style="fill:rgb(245,245,245);"/>
            </g>
            <g transform="matrix(0.720917,0,0,-0.720917,0.360458,288.727)">
                <rect x="390" y="190" width="50" height="20" style="fill:rgb(245,245,245);"/>
            </g>
            <g transform="matrix(-0.720917,0,0,-0.720917,649.185,231.054)">
                <path d="M440,164.7L449.58,164.7L449.58,170L460,160L449.58,150L449.58,155.3L440,155.3L440,164.7Z" style="fill:rgb(213,232,212);fill-rule:nonzero;stroke:rgb(130,179,102);stroke-width:1px;"/>
            </g>
            <g transform="matrix(7.93008,0,0,7.93008,118.947,154.997)">
            </g>
            <text x="15.86px" y="154.997px" style="font-family:'Helvetica';font-size:7.93px;">V<tspan x="20.714px 25.123px " y="154.997px 154.997px ">er</tspan>sion Serialization Formats</text>
            <g transform="matrix(7.93008,0,0,7.93008,42.3106,18.0229)">
            </g>
            <text x="15.86px" y="18.023px" style="font-family:'Helvetica';font-size:7.93px;">V<tspan x="20.715px 25.125px " y="18.023px 18.023px ">er</tspan>sion</text>
            <g>
                <text x="37.488px" y="61.278px" style="font-family:'Helvetica';font-size:8.651px;">major = 1</text>
                <text x="37.488px" y="82.909px" style="font-family:'Helvetica';font-size:8.651px;">minor = 2</text>
                <g transform="matrix(8.651,0,0,8.651,73.2946,104.54)">
                </g>
                <text x="37.488px" y="104.54px" style="font-family:'Helvetica';font-size:8.651px;">patch = 3</text>
            </g>
            <g transform="matrix(7.93008,0,0,7.93008,84.2033,39.29)">
            </g>
            <text x="37.488px" y="39.29px" style="font-family:'Helvetica';font-size:7.93px;">V<tspan x="42.342px 46.751px " y="39.29px 39.29px ">er</tspan>sion Spec</text>
            <g transform="matrix(8.651,0,0,8.651,60.9274,126.16)">
            </g>
            <text x="39.29px" y="126.16px" style="font-family:'Helvetica';font-size:8.651px;">bump</text>
            <g transform="matrix(8.651,0,0,8.651,28.2777,175.183)">
            </g>
            <text x="23.069px" y="175.183px" style="font-family:'Menlo-Regular', 'Menlo', monospace;font-size:8.651px;">{</text>
            <g transform="matrix(8.651,0,0,8.651,33.6014,175.183)">
            </g>
            <text x="28.393px" y="175.183px" style="font-family:'Menlo-Regular', 'Menlo', monospace;font-size:8.651px;">m</text>
            <g transform="matrix(8.651,0,0,8.651,38.925,175.183)">
            </g>
            <text x="33.717px" y="175.183px" style="font-family:'Menlo-Regular', 'Menlo', monospace;font-size:8.651px;">a</text>
            <g transform="matrix(8.651,0,0,8.651,44.2487,175.183)">
            </g>
            <text x="39.04px" y="175.183px" style="font-family:'Menlo-Regular', 'Menlo', monospace;font-size:8.651px;">j</text>
            <g transform="matrix(8.651,0,0,8.651,49.5724,175.183)">
            </g>
            <text x="44.364px" y="175.183px" style="font-family:'Menlo-Regular', 'Menlo', monospace;font-size:8.651px;">o</text>
            <g transform="matrix(8.651,0,0,8.651,54.8961,175.183)">
            </g>
            <text x="49.688px" y="175.183px" style="font-family:'Menlo-Regular', 'Menlo', monospace;font-size:8.651px;">r</text>
            <g transform="matrix(8.651,0,0,8.651,60.2198,175.183)">
            </g>
            <text x="55.011px" y="175.183px" style="font-family:'Menlo-Regular', 'Menlo', monospace;font-size:8.651px;">}</text>
            <g transform="matrix(8.651,0,0,8.651,65.5435,175.183)">
            </g>
            <text x="60.335px" y="175.183px" style="font-family:'Menlo-Regular', 'Menlo', monospace;font-size:8.651px;">.</text>
            <g transform="matrix(8.651,0,0,8.651,70.8672,175.183)">
            </g>
            <text x="65.659px" y="175.183px" style="font-family:'Menlo-Regular', 'Menlo', monospace;font-size:8.651px;">{</text>
            <g transform="matrix(8.651,0,0,8.651,76.1909,175.183)">
            </g>
            <text x="70.983px" y="175.183px" style="font-family:'Menlo-Regular', 'Menlo', monospace;font-size:8.651px;">m</text>
            <g transform="matrix(8.651,0,0,8.651,81.5146,175.183)">
            </g>
            <text x="76.306px" y="175.183px" style="font-family:'Menlo-Regular', 'Menlo', monospace;font-size:8.651px;">i</text>
            <g transform="matrix(8.651,0,0,8.651,86.8383,175.183)">
            </g>
            <text x="81.63px" y="175.183px" style="font-family:'Menlo-Regular', 'Menlo', monospace;font-size:8.651px;">n</text>
            <g transform="matrix(8.651,0,0,8.651,92.1619,175.183)">
            </g>
            <text x="86.954px" y="175.183px" style="font-family:'Menlo-Regular', 'Menlo', monospace;font-size:8.651px;">o</text>
            <g transform="matrix(8.651,0,0,8.651,97.4856,175.183)">
            </g>
            <text x="92.277px" y="175.183px" style="font-family:'Menlo-Regular', 'Menlo', monospace;font-size:8.651px;">r</text>
            <g transform="matrix(8.651,0,0,8.651,102.809,175.183)">
            </g>
            <text x="97.601px" y="175.183px" style="font-family:'Menlo-Regular', 'Menlo', monospace;font-size:8.651px;">}</text>
            <g transform="matrix(8.651,0,0,8.651,108.133,175.183)">
            </g>
            <text x="102.925px" y="175.183px" style="font-family:'Menlo-Regular', 'Menlo', monospace;font-size:8.651px;">.</text>
            <g transform="matrix(8.651,0,0,8.651,113.457,175.183)">
            </g>
            <text x="108.248px" y="175.183px" style="font-family:'Menlo-Regular', 'Menlo', monospace;font-size:8.651px;">{</text>
            <g transform="matrix(8.651,0,0,8.651,118.78,175.183)">
            </g>
            <text x="113.572px" y="175.183px" style="font-family:'Menlo-Regular', 'Menlo', monospace;font-size:8.651px;">p</text>
            <g transform="matrix(8.651,0,0,8.651,124.104,175.183)">
            </g>
            <text x="118.896px" y="175.183px" style="font-family:'Menlo-Regular', 'Menlo', monospace;font-size:8.651px;">a</text>
            <g transform="matrix(8.651,0,0,8.651,129.428,175.183)">
            </g>
            <text x="124.219px" y="175.183px" style="font-family:'Menlo-Regular', 'Menlo', monospace;font-size:8.651px;">t</text>
            <g transform="matrix(8.651,0,0,8.651,134.751,175.183)">
            </g>
            <text x="129.543px" y="175.183px" style="font-family:'Menlo-Regular', 'Menlo', monospace;font-size:8.651px;">c</text>
            <g transform="matrix(8.651,0,0,8.651,140.075,175.183)">
            </g>
            <text x="134.867px" y="175.183px" style="font-family:'Menlo-Regular', 'Menlo', monospace;font-size:8.651px;">h</text>
            <g transform="matrix(8.651,0,0,8.651,145.399,175.183)">
            </g>
            <text x="140.19px" y="175.183px" style="font-family:'Menlo-Regular', 'Menlo', monospace;font-size:8.651px;">}</text>
            <g>
                <text x="23.069px" y="189.601px" style="font-family:'Menlo-Regular', 'Menlo', monospace;font-size:8.651px;">{<tspan x="28.393px 33.717px 39.04px 44.364px 49.688px 55.011px 60.335px 65.659px 70.983px 76.306px 81.63px 86.954px 92.277px 97.601px " y="189.601px 189.601px 189.601px 189.601px 189.601px 189.601px 189.601px 189.601px 189.601px 189.601px 189.601px 189.601px 189.601px 189.601px ">major}.{minor}</tspan></text>
                <g transform="matrix(8.651,0,0,8.651,60.2198,204.022)">
                </g>
                <text x="23.069px" y="204.022px" style="font-family:'Menlo-Regular', 'Menlo', monospace;font-size:8.651px;">{<tspan x="28.393px 33.717px 39.04px 44.364px 49.688px 55.011px " y="204.022px 204.022px 204.022px 204.022px 204.022px 204.022px ">major}</tspan></text>
            </g>
            <g transform="matrix(8.651,0,0,8.651,287.808,117.509)">
            </g>
            <text x="282.599px" y="117.509px" style="font-family:'Menlo-Regular', 'Menlo', monospace;font-size:8.651px;fill:rgb(77,153,0);">1</text>
            <g transform="matrix(8.651,0,0,8.651,293.131,117.509)">
            </g>
            <text x="287.923px" y="117.509px" style="font-family:'Menlo-Regular', 'Menlo', monospace;font-size:8.651px;fill:rgb(77,153,0);">.</text>
            <g transform="matrix(8.651,0,0,8.651,298.455,117.509)">
            </g>
            <text x="293.247px" y="117.509px" style="font-family:'Menlo-Regular', 'Menlo', monospace;font-size:8.651px;fill:rgb(77,153,0);">2</text>
            <g transform="matrix(8.651,0,0,8.651,303.779,117.509)">
            </g>
            <text x="298.57px" y="117.509px" style="font-family:'Menlo-Regular', 'Menlo', monospace;font-size:8.651px;fill:rgb(77,153,0);">.</text>
            <g>
                <text x="303.894px" y="117.509px" style="font-family:'Menlo-Regular', 'Menlo', monospace;font-size:8.651px;fill:rgb(77,153,0);">3</text>
                <g transform="matrix(8.651,0,0,8.651,298.455,131.93)">
                </g>
                <text x="282.599px" y="131.93px" style="font-family:'Menlo-Regular', 'Menlo', monospace;font-size:8.651px;fill:rgb(255,51,51);">1<tspan x="287.923px 293.247px " y="131.93px 131.93px ">.2</tspan></text>
            </g>
            <g transform="matrix(8.651,0,0,8.651,287.808,146.346)">
            </g>
            <text x="282.599px" y="146.346px" style="font-family:'Menlo-Regular', 'Menlo', monospace;font-size:8.651px;fill:rgb(255,51,51);">1</text>
            <g transform="matrix(8.651,0,0,8.651,396.496,118.23)">
            </g>
            <text x="333.063px" y="118.23px" style="font-family:'Helvetica';font-size:8.651px;">Selected Format</text>
            <g transform="matrix(0.720917,0,0,-0.720917,0,259.53)">
                <path d="M390,220L380,220L380,140L390,140" style="fill:none;fill-rule:nonzero;stroke:rgb(35,68,93);stroke-width:2px;"/>
            </g>
            <g transform="matrix(0.720917,0,0,-0.720917,0,259.53)">
                <path d="M370,180L380,180" style="fill:none;fill-rule:nonzero;stroke:rgb(35,68,93);stroke-width:2px;"/>
            </g>
            <g transform="matrix(0.720917,0,0,-0.720917,0,259.53)">
                <path d="M340,180L370,180" style="fill:none;fill-rule:nonzero;stroke:rgb(35,68,93);stroke-width:2px;"/>
            </g>
            <g transform="matrix(0.339255,0,0,-0.339255,213.731,146.71)">
                <path d="M50.358,65.732C50.856,66.365 51.087,67.162 51.496,67.846C51.908,68.534 51.673,68.659 50.978,68.654C48.229,68.631 45.479,68.665 42.73,68.634C41.997,68.625 41.746,68.786 41.886,69.587C42.495,73.063 43.08,76.543 43.966,79.961C44.49,81.985 45.05,84.01 46.169,85.813C47.284,87.611 48.837,88.078 50.749,87.148C52.347,86.372 53.647,85.212 54.72,83.803C55.189,83.187 55.806,82.704 56.521,83.115C57.898,83.907 59.107,84.873 59.808,86.429C60.213,87.329 60.441,88.338 59.97,89.26C59.316,90.538 58.107,91.429 56.779,91.92C54.573,92.735 52.189,92.543 50.002,91.774C47.478,90.887 45.055,89.421 42.953,87.777C42.177,87.17 41.424,86.528 40.714,85.843C38.103,83.326 36.16,80.331 34.792,76.978C33.82,74.594 33.044,72.162 32.653,69.613C32.582,69.144 32.43,68.724 31.912,68.644C31.273,68.545 30.519,68.642 29.87,68.64C28.417,68.636 26.912,68.947 25.836,67.688C25.357,67.128 24.852,66.475 24.442,65.861C24.037,65.252 24.068,64.657 24.783,64.387C25.568,64.092 26.599,64.282 27.402,64.308C28.463,64.342 29.524,64.288 30.585,64.311C31.315,64.326 31.553,64.189 31.413,63.365C31.279,62.566 31.122,61.802 31.005,61.011C30.604,58.292 30.148,55.58 29.69,52.869C29.053,49.109 28.425,45.346 27.737,41.592C27.08,38.006 26.614,34.387 25.802,30.824C25.168,28.036 24.763,25.194 24.088,22.417C23.522,20.089 23.038,17.709 21.748,15.615C20.809,14.091 19.437,13.447 17.714,13.854C16.156,14.225 14.687,14.811 13.418,15.844C12.58,16.527 11.622,17.036 10.598,16.448C9.635,15.895 8.942,14.869 8.41,13.921C6.702,10.874 9.489,7.978 12.497,7.519C14.517,7.212 16.51,7.937 18.285,8.836C20.655,10.037 22.703,11.726 24.421,13.718C25.829,15.351 27.304,16.908 28.477,18.726C29.259,19.939 29.976,21.193 30.629,22.478C32.944,27.039 34.383,31.961 35.571,36.916C36.142,39.299 36.764,41.667 37.291,44.061C38.009,47.318 38.6,50.63 39.138,53.921C39.405,55.554 39.63,57.184 39.971,58.804C40.252,60.14 40.485,61.524 40.665,62.876C40.875,64.449 41.873,64.351 43.234,64.501C44.382,64.628 45.538,64.687 46.69,64.772C47.614,64.839 48.675,64.756 49.545,65.125C49.856,65.257 50.137,65.449 50.358,65.732Z" style="fill-rule:nonzero;"/>
            </g>
            <g transform="matrix(0.339255,0,0,-0.339255,213.731,147.123)">
                <path d="M91.938,68.238C91.75,68.867 91.409,69.433 90.966,69.917C90.561,70.359 89.989,70.938 89.444,71.199C87.678,72.045 85.295,71.303 83.766,70.267C82.953,69.715 82.227,69.025 81.5,68.364C80.779,67.708 80.08,67.032 79.439,66.297C78.107,64.77 76.902,63.133 75.746,61.471C75.184,60.661 73.601,57.714 73.118,58.004C72.609,58.309 71.972,61.25 71.73,62.077C71.394,63.226 71.17,64.414 70.634,65.494C69.902,66.97 69.445,68.582 68.417,69.912C67.282,71.383 65.979,71.806 64.206,71.269C62.464,70.742 61.059,69.645 59.68,68.534C57.659,66.907 56.153,64.819 54.639,62.743C53.507,61.189 53.497,61.196 54.819,59.783C55.647,58.896 55.632,58.907 56.38,59.817C57.448,61.121 58.485,62.462 59.919,63.4C60.967,64.087 61.595,63.949 62.243,62.868C62.561,62.336 62.832,61.764 63.046,61.18C64.392,57.514 65.413,53.744 66.623,50.037C66.776,49.565 66.578,49.259 66.354,48.92C64.924,46.759 63.469,44.612 61.85,42.589C60.565,40.98 59.27,39.365 57.543,38.187C56.79,37.67 55.908,37.314 54.993,37.558C54.055,37.81 53.494,38.66 52.637,39.056C52.613,39.068 52.586,39.077 52.561,39.088C52.161,39.251 51.559,39.244 51.145,39.151C49.324,38.74 48.347,36.688 47.976,35.045C47.64,33.554 47.971,31.924 49.024,30.784C49.942,29.79 51.319,29.375 52.64,29.355C53.398,29.344 54.244,29.542 54.948,29.814C57.636,30.865 59.687,33.372 61.385,35.596C62.53,37.098 63.593,38.66 64.712,40.182C65.637,41.44 67.463,45.186 67.984,45.198C68.299,45.205 68.382,44.453 68.442,44.231C68.576,43.735 68.709,43.239 68.852,42.746C69.524,40.426 70.231,38.108 70.958,35.806C71.443,34.265 72.225,32.667 73.207,31.381C73.505,30.99 73.878,30.616 74.262,30.311C75.751,29.12 77.626,29.21 79.34,29.817C80.108,30.088 80.824,30.471 81.503,30.922C84.639,33.007 86.88,35.912 88.997,38.953C89.496,39.67 89.428,40.071 88.859,40.67C87.386,42.219 87.427,42.233 86.031,40.59C84.984,39.361 83.917,38.133 82.504,37.306C81.518,36.726 80.846,36.892 80.127,37.781C79.531,38.517 79.139,39.372 78.798,40.247C77.395,43.861 76.436,47.621 75.248,51.306C74.376,54.01 74.352,54.035 76.088,56.314C77.883,58.671 79.6,61.114 81.952,62.977C83.681,64.347 84.887,64.271 86.48,62.74C86.796,62.436 87.312,62.183 87.751,62.148C89.234,62.029 90.523,63.361 91.284,64.471C92.038,65.565 92.324,66.951 91.938,68.238Z" style="fill-rule:nonzero;"/>
            </g>
            <g transform="matrix(0.720917,0,0,-0.720917,0,308.552)">
                <rect x="296" y="207" width="47" height="14" style="fill:white;"/>
            </g>
            <g transform="matrix(8.651,0,0,8.651,246.546,157.16)">
            </g>
            <text x="214.822px" y="157.16px" style="font-family:'Helvetica';font-size:8.651px;">serialize</text>
        </g>
    </g>
</svg>
