<svg xmlns="http://www.w3.org/2000/svg" xml:space="preserve" style="fill-rule:evenodd;clip-rule:evenodd;stroke-linejoin:round;stroke-miterlimit:2" viewBox="0 0 180 117"><circle cx="100.457" cy="101.861" r="8.986" style="fill:#fff" transform="translate(-10.457 -2.853)"/><path d="M181.311 18.095v92.713c0 3.396-2.914 6.153-6.502 6.153h-64.674c-3.588 0-6.501-2.757-6.501-6.153V18.095c0-3.396 2.913-6.153 6.501-6.153h64.674c3.588 0 6.502 2.757 6.502 6.153" style="fill:#fff" transform="matrix(1.05136 0 0 1.11091 -10.623 -13.1)"/><path d="M181.311 18.095v92.713c0 3.396-2.914 6.153-6.502 6.153h-64.674c-3.588 0-6.501-2.757-6.501-6.153V18.095c0-3.396 2.913-6.153 6.501-6.153h64.674c3.588 0 6.502 2.757 6.502 6.153" style="fill:#fff" transform="matrix(1.05136 0 0 1.11091 -108.923 -13.1)"/><path d="M79.7 7.002v102.996a4.837 4.837 0 0 1-4.836 4.835H6.87a4.837 4.837 0 0 1-4.836-4.835V7.002A4.84 4.84 0 0 1 6.87 2.167h67.995A4.84 4.84 0 0 1 79.7 7.002m-2.667 0a2.17 2.17 0 0 0-2.169-2.168H6.87a2.17 2.17 0 0 0-2.17 2.168v102.996a2.17 2.17 0 0 0 2.17 2.169h67.995a2.17 2.17 0 0 0 2.17-2.169z"/><path d="M178.14 16.195v96.513c0 .691-.615 1.252-1.374 1.252h-68.588c-.758 0-1.374-.561-1.374-1.252V16.195c0-.691.616-1.253 1.374-1.253h68.588c.759 0 1.374.562 1.374 1.253" style="fill:#eaf4fe" transform="matrix(.93922 0 0 1.03012 -92.947 -7.892)"/><path d="M23.424 58.709h23.808V.493H30.08q-1.152 2.55-2.944 4.317-1.793 1.769-4.608 2.796-2.816 1.027-6.784 1.48-3.968.452-9.472.452v9.538h17.152z" style="fill-rule:nonzero" transform="matrix(1 0 0 1.55668 14.115 13.759)"/><path d="M178.14 18.095v92.713c0 1.74-1.493 3.152-3.331 3.152h-64.674c-1.838 0-3.331-1.412-3.331-3.152V18.095c0-1.74 1.493-3.153 3.331-3.153h64.674c1.838 0 3.331 1.413 3.331 3.153" style="fill:#fff" transform="matrix(1.05136 0 0 1.11091 -10.623 -13.1)"/><path d="M178 7.002v102.996a4.837 4.837 0 0 1-4.836 4.835H105.17a4.837 4.837 0 0 1-4.836-4.835V7.002a4.84 4.84 0 0 1 4.836-4.835h67.995A4.84 4.84 0 0 1 178 7.002m-2.667 0a2.17 2.17 0 0 0-2.169-2.168H105.17a2.17 2.17 0 0 0-2.17 2.168v102.996a2.17 2.17 0 0 0 2.17 2.169h67.995a2.17 2.17 0 0 0 2.17-2.169z"/><path d="M160.92 60.283v38.878c0 .9-.617 1.631-1.376 1.631h-47.037c-.759 0-1.376-.731-1.376-1.631V60.283z" style="fill:#d9e7f5" transform="matrix(1.34568 0 0 1.26009 -43.888 -17.487)"/><path d="M111 65.276V21.128c0-1.022.83-1.852 1.852-1.852h63.296c1.022 0 1.852.83 1.852 1.852v44.148z" style="fill:#eaf4fe" transform="matrix(1 0 0 1.10826 -5.341 -13.868)"/><path d="M170.014 7.494v.392q0 13.824-1.855 22.72-1.857 8.895-5.632 14.08-3.777 5.184-9.6 7.104-5.825 1.92-13.76 1.92-7.937 0-13.76-1.92-5.824-1.92-9.6-7.103-3.777-5.185-5.632-14.08-1.856-8.897-1.856-22.721v-.392h23.808v15.368q0 9.6 1.664 12.992t5.376 3.392 5.376-3.392 1.664-12.992V7.494zM135.838 109.52V93.508h-17.152V78.66q5.505 0 9.472-.703 3.969-.704 6.784-2.305a13.2 13.2 0 0 0 4.609-4.35q1.792-2.753 2.943-6.72h17.152v44.94z"/><circle cx="100.457" cy="101.861" r="6.653" transform="translate(-10.457 -2.853)"/></svg>
