<?xml version="1.0" encoding="UTF-8" standalone="no"?>
<!DOCTYPE svg PUBLIC "-//W3C//DTD SVG 1.1//EN" "http://www.w3.org/Graphics/SVG/1.1/DTD/svg11.dtd">
<svg width="100%" height="100%" viewBox="0 0 396 251" version="1.1" xmlns="http://www.w3.org/2000/svg" xmlns:xlink="http://www.w3.org/1999/xlink" xml:space="preserve" xmlns:serif="http://www.serif.com/" style="fill-rule:evenodd;clip-rule:evenodd;">
    <g transform="matrix(1,0,0,1,-11.4459,-4.97073)">
        <g transform="matrix(0.720917,0,0,-0.720917,0,266.739)">
            <path d="M288.4,350L551.6,350C552.152,350 552.698,349.946 553.239,349.839C553.78,349.731 554.305,349.572 554.814,349.361C555.324,349.15 555.808,348.891 556.267,348.584C556.725,348.278 557.15,347.93 557.54,347.54C557.93,347.15 558.278,346.725 558.584,346.267C558.891,345.808 559.149,345.324 559.361,344.815C559.572,344.305 559.731,343.78 559.839,343.239C559.946,342.698 560,342.152 560,341.6L560,28.4C560,27.848 559.946,27.302 559.839,26.761C559.731,26.22 559.572,25.695 559.361,25.185C559.149,24.676 558.891,24.192 558.584,23.733C558.278,23.275 557.93,22.85 557.54,22.46C557.15,22.07 556.725,21.722 556.267,21.416C555.808,21.109 555.324,20.851 554.814,20.639C554.305,20.428 553.78,20.269 553.239,20.161C552.698,20.054 552.152,20 551.6,20L288.4,20C287.848,20 287.302,20.054 286.761,20.161C286.22,20.269 285.695,20.428 285.185,20.639C284.676,20.851 284.192,21.109 283.733,21.416C283.275,21.722 282.85,22.07 282.46,22.46C282.07,22.85 281.722,23.275 281.416,23.733C281.109,24.192 280.85,24.676 280.639,25.185C280.428,25.695 280.269,26.22 280.161,26.761C280.054,27.302 280,27.848 280,28.4L280,341.6C280,342.152 280.054,342.698 280.161,343.239C280.269,343.78 280.428,344.305 280.639,344.815C280.85,345.324 281.109,345.808 281.416,346.267C281.722,346.725 282.07,347.15 282.46,347.54C282.85,347.93 283.275,348.278 283.733,348.584C284.192,348.891 284.676,349.15 285.185,349.361C285.695,349.572 286.22,349.731 286.761,349.839C287.302,349.946 287.848,350 288.4,350Z" style="fill:rgb(249,247,237);fill-rule:nonzero;stroke:rgb(153,153,153);stroke-width:2px;"/>
        </g>
        <g transform="matrix(0.720917,0,0,-0.720917,0,266.739)">
            <path d="M23.9,350L146.1,350C146.617,350 147.115,349.901 147.592,349.703C148.07,349.505 148.492,349.223 148.858,348.858C149.223,348.492 149.505,348.07 149.703,347.592C149.901,347.115 150,346.617 150,346.1L150,23.9C150,23.383 149.901,22.885 149.703,22.408C149.505,21.93 149.223,21.508 148.858,21.142C148.492,20.777 148.07,20.495 147.592,20.297C147.115,20.099 146.617,20 146.1,20L23.9,20C23.383,20 22.885,20.099 22.408,20.297C21.93,20.495 21.508,20.777 21.142,21.142C20.777,21.508 20.495,21.93 20.297,22.408C20.099,22.885 20,23.383 20,23.9L20,346.1C20,346.617 20.099,347.115 20.297,347.592C20.495,348.07 20.777,348.492 21.142,348.858C21.508,349.223 21.93,349.505 22.408,349.703C22.885,349.901 23.383,350 23.9,350Z" style="fill:rgb(249,247,237);fill-rule:nonzero;stroke:rgb(153,153,153);stroke-width:2px;"/>
        </g>
        <g transform="matrix(0.339255,0,0,-0.339255,336.287,52.9908)">
            <path d="M50.358,65.732C50.856,66.365 51.087,67.162 51.496,67.846C51.908,68.534 51.673,68.659 50.978,68.654C48.229,68.631 45.479,68.665 42.73,68.634C41.997,68.625 41.746,68.786 41.886,69.587C42.495,73.063 43.08,76.543 43.966,79.961C44.49,81.985 45.05,84.01 46.169,85.813C47.284,87.611 48.837,88.078 50.749,87.148C52.347,86.372 53.647,85.212 54.72,83.803C55.189,83.187 55.806,82.704 56.521,83.115C57.898,83.907 59.107,84.873 59.808,86.429C60.213,87.329 60.441,88.338 59.97,89.26C59.316,90.538 58.107,91.429 56.779,91.92C54.573,92.735 52.189,92.543 50.002,91.774C47.478,90.887 45.055,89.421 42.953,87.777C42.177,87.17 41.424,86.528 40.714,85.843C38.103,83.326 36.16,80.331 34.792,76.978C33.82,74.594 33.044,72.162 32.653,69.613C32.582,69.144 32.43,68.724 31.912,68.644C31.273,68.545 30.519,68.642 29.87,68.64C28.417,68.636 26.912,68.947 25.836,67.688C25.357,67.128 24.852,66.475 24.442,65.861C24.037,65.252 24.068,64.657 24.783,64.387C25.568,64.092 26.599,64.282 27.402,64.308C28.463,64.342 29.524,64.288 30.585,64.311C31.315,64.326 31.553,64.189 31.413,63.365C31.279,62.566 31.122,61.802 31.005,61.011C30.604,58.292 30.148,55.58 29.69,52.869C29.053,49.109 28.425,45.346 27.737,41.592C27.08,38.006 26.614,34.387 25.802,30.824C25.168,28.036 24.763,25.194 24.088,22.417C23.522,20.089 23.038,17.709 21.748,15.615C20.809,14.091 19.437,13.447 17.714,13.854C16.156,14.225 14.687,14.811 13.418,15.844C12.58,16.527 11.622,17.036 10.598,16.448C9.635,15.895 8.942,14.869 8.41,13.921C6.702,10.874 9.489,7.978 12.497,7.519C14.517,7.212 16.51,7.937 18.285,8.836C20.655,10.037 22.703,11.726 24.421,13.718C25.829,15.351 27.304,16.908 28.477,18.726C29.259,19.939 29.976,21.193 30.629,22.478C32.944,27.039 34.383,31.961 35.571,36.916C36.142,39.299 36.764,41.667 37.291,44.061C38.009,47.318 38.6,50.63 39.138,53.921C39.405,55.554 39.63,57.184 39.971,58.804C40.252,60.14 40.485,61.524 40.665,62.876C40.875,64.449 41.873,64.351 43.234,64.501C44.382,64.628 45.538,64.687 46.69,64.772C47.614,64.839 48.675,64.756 49.545,65.125C49.856,65.257 50.137,65.449 50.358,65.732Z" style="fill-rule:nonzero;"/>
        </g>
        <g transform="matrix(0.339255,0,0,-0.339255,336.287,53.404)">
            <path d="M91.938,68.238C91.75,68.867 91.409,69.433 90.966,69.917C90.561,70.359 89.989,70.938 89.444,71.199C87.678,72.045 85.295,71.303 83.766,70.267C82.953,69.715 82.227,69.025 81.5,68.364C80.779,67.708 80.08,67.032 79.439,66.297C78.107,64.77 76.902,63.133 75.746,61.471C75.184,60.661 73.601,57.714 73.118,58.004C72.609,58.309 71.972,61.25 71.73,62.077C71.394,63.226 71.17,64.414 70.634,65.494C69.902,66.97 69.445,68.582 68.417,69.912C67.282,71.383 65.979,71.806 64.206,71.269C62.464,70.742 61.059,69.645 59.68,68.534C57.659,66.907 56.153,64.819 54.639,62.743C53.507,61.189 53.497,61.196 54.819,59.783C55.647,58.896 55.632,58.907 56.38,59.817C57.448,61.121 58.485,62.462 59.919,63.4C60.967,64.087 61.595,63.949 62.243,62.868C62.561,62.336 62.832,61.764 63.046,61.18C64.392,57.514 65.413,53.744 66.623,50.037C66.776,49.565 66.578,49.259 66.354,48.92C64.924,46.759 63.469,44.612 61.85,42.589C60.565,40.98 59.27,39.365 57.543,38.187C56.79,37.67 55.908,37.314 54.993,37.558C54.055,37.81 53.494,38.66 52.637,39.056C52.613,39.068 52.586,39.077 52.561,39.088C52.161,39.251 51.559,39.244 51.145,39.151C49.324,38.74 48.347,36.688 47.976,35.045C47.64,33.554 47.971,31.924 49.024,30.784C49.942,29.79 51.319,29.375 52.64,29.355C53.398,29.344 54.244,29.542 54.948,29.814C57.636,30.865 59.687,33.372 61.385,35.596C62.53,37.098 63.593,38.66 64.712,40.182C65.637,41.44 67.463,45.186 67.984,45.198C68.299,45.205 68.382,44.453 68.442,44.231C68.576,43.735 68.709,43.239 68.852,42.746C69.524,40.426 70.231,38.108 70.958,35.806C71.443,34.265 72.225,32.667 73.207,31.381C73.505,30.99 73.878,30.616 74.262,30.311C75.751,29.12 77.626,29.21 79.34,29.817C80.108,30.088 80.824,30.471 81.503,30.922C84.639,33.007 86.88,35.912 88.997,38.953C89.496,39.67 89.428,40.071 88.859,40.67C87.386,42.219 87.427,42.233 86.031,40.59C84.984,39.361 83.917,38.133 82.504,37.306C81.518,36.726 80.846,36.892 80.127,37.781C79.531,38.517 79.139,39.372 78.798,40.247C77.395,43.861 76.436,47.621 75.248,51.306C74.376,54.01 74.352,54.035 76.088,56.314C77.883,58.671 79.6,61.114 81.952,62.977C83.681,64.347 84.887,64.271 86.48,62.74C86.796,62.436 87.312,62.183 87.751,62.148C89.234,62.029 90.523,63.361 91.284,64.471C92.038,65.565 92.324,66.951 91.938,68.238Z" style="fill-rule:nonzero;"/>
        </g>
        <g transform="matrix(0.720917,0,0,-0.720917,0,187.438)">
            <path d="M250,130L319.76,130" style="fill:none;fill-rule:nonzero;stroke:rgb(130,179,102);stroke-width:2px;stroke-miterlimit:10;"/>
        </g>
        <g transform="matrix(0.720917,0,0,-0.720917,0,187.438)">
            <path d="M327.76,130L319.76,127.33L319.76,132.67L327.76,130Z" style="fill:rgb(130,179,102);fill-rule:nonzero;stroke:rgb(130,179,102);stroke-width:2px;stroke-miterlimit:10;"/>
        </g>
        <g transform="matrix(0.644807,0.322404,-0.322404,0.644807,59.778,-63.8982)">
            <path d="M225.528,121.056L247.889,121.056L234.472,138.944L212.111,138.944L225.528,121.056Z" style="fill:rgb(213,232,212);fill-rule:nonzero;stroke:rgb(130,179,102);stroke-width:1px;stroke-miterlimit:10;"/>
        </g>
        <g transform="matrix(0.644807,0.322404,-0.322404,0.644807,85.5703,-57.8095)">
            <path d="M225.528,201.056L247.889,201.056L234.472,218.944L212.111,218.944L225.528,201.056Z" style="fill:rgb(218,232,252);fill-rule:nonzero;stroke:rgb(108,142,191);stroke-width:1px;stroke-miterlimit:10;"/>
        </g>
        <g transform="matrix(0.720917,0,0,-0.720917,0,418.132)">
            <path d="M250,290L319.76,290" style="fill:none;fill-rule:nonzero;stroke:rgb(214,182,86);stroke-width:2px;stroke-miterlimit:10;"/>
        </g>
        <g transform="matrix(0.720917,0,0,-0.720917,0,418.132)">
            <path d="M327.76,290L319.76,287.33L319.76,292.67L327.76,290Z" style="fill:rgb(214,182,86);fill-rule:nonzero;stroke:rgb(214,182,86);stroke-width:2px;stroke-miterlimit:10;"/>
        </g>
        <g transform="matrix(0.644807,0.322404,-0.322404,0.644807,111.363,-51.7207)">
            <path d="M225.528,281.056L247.889,281.056L234.472,298.944L212.111,298.944L225.528,281.056Z" style="fill:rgb(255,242,204);fill-rule:nonzero;stroke:rgb(214,182,86);stroke-width:1px;stroke-miterlimit:10;"/>
        </g>
        <g transform="matrix(0.720917,0,0,-0.720917,0,302.785)">
            <path d="M250,210L319.76,210" style="fill:none;fill-rule:nonzero;stroke:rgb(108,142,191);stroke-width:2px;stroke-miterlimit:10;"/>
        </g>
        <g transform="matrix(0.720917,0,0,-0.720917,0,302.785)">
            <path d="M327.76,210L319.76,207.33L319.76,212.67L327.76,210Z" style="fill:rgb(108,142,191);fill-rule:nonzero;stroke:rgb(108,142,191);stroke-width:2px;stroke-miterlimit:10;"/>
        </g>
        <g transform="matrix(0.720917,0,0,-0.720917,0,418.132)">
            <path d="M100,290L199.76,290" style="fill:none;fill-rule:nonzero;stroke:rgb(214,182,86);stroke-width:2px;stroke-miterlimit:10;"/>
        </g>
        <g transform="matrix(0.720917,0,0,-0.720917,0,418.132)">
            <path d="M207.76,290L199.76,287.33L199.76,292.67L207.76,290Z" style="fill:rgb(214,182,86);fill-rule:nonzero;stroke:rgb(214,182,86);stroke-width:2px;stroke-miterlimit:10;"/>
        </g>
        <g transform="matrix(0.720917,0,0,-0.720917,0,245.112)">
            <path d="M360,210L410,210C416.667,210 420,206.667 420,200L420,140C420,133.333 421.627,130 424.88,130L429.76,130" style="fill:none;fill-rule:nonzero;stroke:rgb(35,68,93);stroke-width:2px;stroke-miterlimit:10;"/>
        </g>
        <g transform="matrix(0.720917,0,0,-0.720917,0,302.785)">
            <path d="M437.76,210L429.76,207.33L429.76,212.67L437.76,210Z" style="fill:rgb(35,68,93);fill-rule:nonzero;stroke:rgb(35,68,93);stroke-width:2px;stroke-miterlimit:10;"/>
        </g>
        <g transform="matrix(0.0569145,0,0,-0.0569145,234.431,108.005)">
            <path d="M431,502L71,502C65.478,502 61,497.523 61,492L61,10C61,4.477 65.478,0 71,0L431,0C436.522,0 441,4.477 441,10L441,492C441,497.523 436.522,502 431,502Z"/>
        </g>
        <g transform="matrix(0.0569145,0,0,-0.0569145,234.431,108.005)">
            <rect x="81" y="20" width="340" height="462" style="fill:white;"/>
        </g>
        <g transform="matrix(0.0569145,0,0,-0.0569145,234.431,108.175)">
            <path d="M126,199L213,199C218.522,199 223,203.477 223,209L223,228C223,233.523 218.522,238 213,238C207.478,238 203,233.523 203,228L203,219L136,219L136,286L198,286C203.522,286 208,290.477 208,296C208,301.523 203.522,306 198,306L126,306C120.478,306 116,301.523 116,296L116,209C116,203.477 120.478,199 126,199Z" style="fill:rgb(0,116,22);fill-rule:nonzero;"/>
        </g>
        <g transform="matrix(0.0569145,0,0,-0.0569145,234.431,116.143)">
            <path d="M126,199L213,199C218.522,199 223,203.477 223,209L223,228C223,233.523 218.522,238 213,238C207.478,238 203,233.523 203,228L203,219L136,219L136,286L198,286C203.522,286 208,290.477 208,296C208,301.523 203.522,306 198,306L126,306C120.478,306 116,301.523 116,296L116,209C116,203.477 120.478,199 126,199Z" style="fill:rgb(0,116,22);fill-rule:nonzero;"/>
        </g>
        <g transform="matrix(0.0569145,0,0,-0.0569145,234.488,100.139)">
            <path d="M126,199L213,199C218.522,199 223,203.477 223,209L223,228C223,233.523 218.522,238 213,238C207.478,238 203,233.523 203,228L203,219L136,219L136,286L198,286C203.522,286 208,290.477 208,296C208,301.523 203.522,306 198,306L126,306C120.478,306 116,301.523 116,296L116,209C116,203.477 120.478,199 126,199Z" style="fill:rgb(0,116,22);fill-rule:nonzero;"/>
        </g>
        <g transform="matrix(0.0569145,0,0,-0.0569145,234.431,89.5644)">
            <path d="M327,79L377,79C382.522,79 387,83.477 387,89C387,94.523 382.522,99 377,99L327,99C321.478,99 317,94.523 317,89C317,83.477 321.478,79 327,79Z" style="fill:rgb(0,116,22);fill-rule:nonzero;"/>
        </g>
        <g transform="matrix(0.0569145,0,0,-0.0569145,234.431,89.5644)">
            <path d="M268,79L285,79C290.522,79 295,83.477 295,89C295,94.523 290.522,99 285,99L268,99C262.478,99 258,94.523 258,89C258,83.477 262.478,79 268,79Z" style="fill:rgb(0,116,22);fill-rule:nonzero;"/>
        </g>
        <g transform="matrix(0.0569145,0,0,-0.0569145,234.431,94.2314)">
            <path d="M268,120L377,120C382.522,120 387,124.477 387,130C387,135.523 382.522,140 377,140L268,140C262.478,140 258,135.523 258,130C258,124.477 262.478,120 268,120Z" style="fill:rgb(0,116,22);fill-rule:nonzero;"/>
        </g>
        <g transform="matrix(0.0569145,0,0,-0.0569145,234.431,105.728)">
            <path d="M377,241L327,241C321.478,241 317,236.523 317,231C317,225.477 321.478,221 327,221L377,221C382.522,221 387,225.477 387,231C387,236.523 382.522,241 377,241Z" style="fill:rgb(0,116,22);fill-rule:nonzero;"/>
        </g>
        <g transform="matrix(0.0569145,0,0,-0.0569145,234.431,105.728)">
            <path d="M268,221L285,221C290.522,221 295,225.477 295,231C295,236.523 290.522,241 285,241L268,241C262.478,241 258,236.523 258,231C258,225.477 262.478,221 268,221Z" style="fill:rgb(0,116,22);fill-rule:nonzero;"/>
        </g>
        <g transform="matrix(0.0569145,0,0,-0.0569145,234.431,110.395)">
            <path d="M268,262L377,262C382.522,262 387,266.477 387,272C387,277.523 382.522,282 377,282L268,282C262.478,282 258,277.523 258,272C258,266.477 262.478,262 268,262Z" style="fill:rgb(0,116,22);fill-rule:nonzero;"/>
        </g>
        <g transform="matrix(0.0569145,0,0,-0.0569145,234.431,121.55)">
            <path d="M377,380L327,380C321.478,380 317,375.523 317,370C317,364.477 321.478,360 327,360L377,360C382.522,360 387,364.477 387,370C387,375.523 382.522,380 377,380Z" style="fill:rgb(0,116,22);fill-rule:nonzero;"/>
        </g>
        <g transform="matrix(0.0569145,0,0,-0.0569145,234.431,121.55)">
            <path d="M268,360L285,360C290.522,360 295,364.477 295,370C295,375.523 290.522,380 285,380L268,380C262.478,380 258,375.523 258,370C258,364.477 262.478,360 268,360Z" style="fill:rgb(0,116,22);fill-rule:nonzero;"/>
        </g>
        <g transform="matrix(0.0569145,0,0,-0.0569145,234.431,126.217)">
            <path d="M268,401L377,401C382.522,401 387,405.477 387,411C387,416.523 382.522,421 377,421L268,421C262.478,421 258,416.523 258,411C258,405.477 262.478,401 268,401Z" style="fill:rgb(0,116,22);fill-rule:nonzero;"/>
        </g>
        <g transform="matrix(0.0569145,0,0,-0.0569145,234.431,106.498)">
            <path d="M161.907,239.253C157.916,243.068 151.584,242.925 147.769,238.932C143.953,234.939 144.097,228.609 148.09,224.793L173.429,200.452C175.382,198.499 177.941,197.523 180.5,197.523C183.059,197.523 185.618,198.499 187.571,200.452L247.071,259.952C250.976,263.857 250.976,270.189 247.071,274.095C243.165,278 236.835,278 232.928,274.095L180.408,221.575L161.907,239.253Z" style="fill:rgb(0,116,22);fill-rule:nonzero;"/>
        </g>
        <g transform="matrix(0.0569145,0,0,-0.0569145,234.431,114.466)">
            <path d="M161.907,239.253C157.916,243.068 151.584,242.925 147.769,238.932C143.953,234.939 144.097,228.609 148.09,224.793L173.429,200.452C175.382,198.499 177.941,197.523 180.5,197.523C183.059,197.523 185.618,198.499 187.571,200.452L247.071,259.952C250.976,263.857 250.976,270.189 247.071,274.095C243.165,278 236.835,278 232.928,274.095L180.408,221.575L161.907,239.253Z" style="fill:rgb(0,116,22);fill-rule:nonzero;"/>
        </g>
        <g transform="matrix(0.0569145,0,0,-0.0569145,234.488,98.4613)">
            <path d="M161.907,239.253C157.916,243.068 151.584,242.925 147.769,238.932C143.953,234.939 144.097,228.609 148.09,224.793L173.429,200.452C175.382,198.499 177.941,197.523 180.5,197.523C183.059,197.523 185.618,198.499 187.571,200.452L247.071,259.952C250.976,263.857 250.976,270.189 247.071,274.095C243.165,278 236.835,278 232.928,274.095L180.408,221.575L161.907,239.253Z" style="fill:rgb(0,116,22);fill-rule:nonzero;"/>
        </g>
        <g transform="matrix(7.93008,0,0,7.93008,250.014,10.8137)">
        </g>
        <text x="203.298px" y="10.814px" style="font-family:'Helvetica';font-size:7.93px;">V<tspan x="208.153px 212.561px " y="10.814px 10.814px ">er</tspan>sion Spec</text>
        <g transform="matrix(7.93008,0,0,7.93008,63.0136,10.8137)">
        </g>
        <text x="15.86px" y="10.814px" style="font-family:'Helvetica';font-size:7.93px;">Conﬁguration</text>
        <g transform="matrix(8.651,0,0,8.651,381.6,63.4407)">
        </g>
        <text x="324.874px" y="63.441px" style="font-family:'Helvetica';font-size:8.651px;">create_version</text>
        <g>
            <text x="151.866px" y="113.905px" style="font-family:'Helvetica';font-size:8.651px;">Named</text>
            <text x="150.424px" y="123.996px" style="font-family:'Helvetica';font-size:8.651px;">Capture</text>
            <g transform="matrix(8.651,0,0,8.651,177.826,134.807)">
            </g>
            <text x="153.792px" y="134.807px" style="font-family:'Helvetica';font-size:8.651px;">Group</text>
        </g>
        <g>
            <text x="151.866px" y="171.578px" style="font-family:'Helvetica';font-size:8.651px;">Named</text>
            <text x="150.424px" y="181.669px" style="font-family:'Helvetica';font-size:8.651px;">Capture</text>
            <g transform="matrix(8.651,0,0,8.651,177.826,192.48)">
            </g>
            <text x="153.792px" y="192.48px" style="font-family:'Helvetica';font-size:8.651px;">Group</text>
        </g>
        <g>
            <text x="151.866px" y="229.251px" style="font-family:'Helvetica';font-size:8.651px;">Named</text>
            <text x="150.424px" y="239.342px" style="font-family:'Helvetica';font-size:8.651px;">Capture</text>
            <g transform="matrix(8.651,0,0,8.651,177.826,250.153)">
            </g>
            <text x="153.792px" y="250.153px" style="font-family:'Helvetica';font-size:8.651px;">Group</text>
        </g>
        <g>
            <text x="210.722px" y="121.114px" style="font-family:'Helvetica';font-size:8.651px;">V<tspan x="216.018px 220.828px " y="121.114px 121.114px ">er</tspan>sion Component</text>
            <g transform="matrix(8.651,0,0,8.651,258.556,131.205)">
            </g>
            <text x="238.849px" y="131.205px" style="font-family:'Helvetica';font-size:8.651px;">Spec</text>
        </g>
        <g>
            <text x="210.722px" y="178.787px" style="font-family:'Helvetica';font-size:8.651px;">V<tspan x="216.018px 220.828px " y="178.787px 178.787px ">er</tspan>sion Component</text>
            <g transform="matrix(8.651,0,0,8.651,258.556,188.878)">
            </g>
            <text x="238.849px" y="188.878px" style="font-family:'Helvetica';font-size:8.651px;">Spec</text>
        </g>
        <g>
            <text x="210.722px" y="236.461px" style="font-family:'Helvetica';font-size:8.651px;">V<tspan x="216.018px 220.828px " y="236.461px 236.461px ">er</tspan>sion Component</text>
            <g transform="matrix(8.651,0,0,8.651,258.556,246.552)">
            </g>
            <text x="238.849px" y="246.552px" style="font-family:'Helvetica';font-size:8.651px;">Spec</text>
        </g>
        <g transform="matrix(8.651,0,0,8.651,89.6275,63.4407)">
        </g>
        <text x="32.903px" y="63.441px" style="font-family:'Helvetica';font-size:8.651px;">V<tspan x="38.199px 43.009px " y="63.441px 63.441px ">er</tspan>sion Parser</text>
        <g>
            <text x="23.283px" y="121.114px" style="font-family:'Helvetica';font-size:8.651px;">V<tspan x="28.579px 33.39px " y="121.114px 121.114px ">er</tspan>sion Component</text>
            <g transform="matrix(8.651,0,0,8.651,71.1173,131.205)">
            </g>
            <text x="51.41px" y="131.205px" style="font-family:'Helvetica';font-size:8.651px;">Spec</text>
        </g>
        <g>
            <text x="23.283px" y="236.461px" style="font-family:'Helvetica';font-size:8.651px;">V<tspan x="28.579px 33.39px " y="236.461px 236.461px ">er</tspan>sion Component</text>
            <g transform="matrix(8.651,0,0,8.651,71.1173,246.552)">
            </g>
            <text x="51.41px" y="246.552px" style="font-family:'Helvetica';font-size:8.651px;">Spec</text>
        </g>
        <g>
            <text x="238.06px" y="62.72px" style="font-family:'Helvetica';font-size:7.93px;">Group</text>
            <g transform="matrix(7.93008,0,0,7.93008,259.2,72.0898)">
            </g>
            <text x="238.939px" y="72.09px" style="font-family:'Helvetica';font-size:7.93px;">Order</text>
        </g>
        <g>
            <text x="335.451px" y="174.462px" style="font-family:'Helvetica';font-size:8.651px;">component</text>
            <g transform="matrix(8.651,0,0,8.651,380.408,185.273)">
            </g>
            <text x="333.277px" y="185.273px" style="font-family:'Helvetica';font-size:8.651px;">dependency</text>
        </g>
        <g transform="matrix(0.720917,0,0,-0.720917,0,302.785)">
            <path d="M360,210L429.76,210" style="fill:none;fill-rule:nonzero;stroke:rgb(35,68,93);stroke-width:2px;stroke-miterlimit:10;"/>
        </g>
        <g transform="matrix(0.720917,0,0,-0.720917,0,302.785)">
            <path d="M437.76,210L429.76,207.33L429.76,212.67L437.76,210Z" style="fill:rgb(35,68,93);fill-rule:nonzero;stroke:rgb(35,68,93);stroke-width:2px;stroke-miterlimit:10;"/>
        </g>
        <g transform="matrix(0.0569145,0,0,-0.0569145,234.431,165.678)">
            <path d="M431,502L71,502C65.478,502 61,497.523 61,492L61,10C61,4.477 65.478,0 71,0L431,0C436.522,0 441,4.477 441,10L441,492C441,497.523 436.522,502 431,502Z"/>
        </g>
        <g transform="matrix(0.0569145,0,0,-0.0569145,234.431,165.678)">
            <rect x="81" y="20" width="340" height="462" style="fill:white;"/>
        </g>
        <g transform="matrix(0.0569145,0,0,-0.0569145,234.431,165.849)">
            <path d="M126,199L213,199C218.522,199 223,203.477 223,209L223,228C223,233.523 218.522,238 213,238C207.478,238 203,233.523 203,228L203,219L136,219L136,286L198,286C203.522,286 208,290.477 208,296C208,301.523 203.522,306 198,306L126,306C120.478,306 116,301.523 116,296L116,209C116,203.477 120.478,199 126,199Z" style="fill:rgb(0,116,22);fill-rule:nonzero;"/>
        </g>
        <g transform="matrix(0.0569145,0,0,-0.0569145,234.431,173.817)">
            <path d="M126,199L213,199C218.522,199 223,203.477 223,209L223,228C223,233.523 218.522,238 213,238C207.478,238 203,233.523 203,228L203,219L136,219L136,286L198,286C203.522,286 208,290.477 208,296C208,301.523 203.522,306 198,306L126,306C120.478,306 116,301.523 116,296L116,209C116,203.477 120.478,199 126,199Z" style="fill:rgb(0,116,22);fill-rule:nonzero;"/>
        </g>
        <g transform="matrix(0.0569145,0,0,-0.0569145,234.488,157.812)">
            <path d="M126,199L213,199C218.522,199 223,203.477 223,209L223,228C223,233.523 218.522,238 213,238C207.478,238 203,233.523 203,228L203,219L136,219L136,286L198,286C203.522,286 208,290.477 208,296C208,301.523 203.522,306 198,306L126,306C120.478,306 116,301.523 116,296L116,209C116,203.477 120.478,199 126,199Z" style="fill:rgb(0,116,22);fill-rule:nonzero;"/>
        </g>
        <g transform="matrix(0.0569145,0,0,-0.0569145,234.431,147.238)">
            <path d="M327,79L377,79C382.522,79 387,83.477 387,89C387,94.523 382.522,99 377,99L327,99C321.478,99 317,94.523 317,89C317,83.477 321.478,79 327,79Z" style="fill:rgb(0,116,22);fill-rule:nonzero;"/>
        </g>
        <g transform="matrix(0.0569145,0,0,-0.0569145,234.431,147.238)">
            <path d="M268,79L285,79C290.522,79 295,83.477 295,89C295,94.523 290.522,99 285,99L268,99C262.478,99 258,94.523 258,89C258,83.477 262.478,79 268,79Z" style="fill:rgb(0,116,22);fill-rule:nonzero;"/>
        </g>
        <g transform="matrix(0.0569145,0,0,-0.0569145,234.431,151.905)">
            <path d="M268,120L377,120C382.522,120 387,124.477 387,130C387,135.523 382.522,140 377,140L268,140C262.478,140 258,135.523 258,130C258,124.477 262.478,120 268,120Z" style="fill:rgb(0,116,22);fill-rule:nonzero;"/>
        </g>
        <g transform="matrix(0.0569145,0,0,-0.0569145,234.431,163.401)">
            <path d="M377,241L327,241C321.478,241 317,236.523 317,231C317,225.477 321.478,221 327,221L377,221C382.522,221 387,225.477 387,231C387,236.523 382.522,241 377,241Z" style="fill:rgb(0,116,22);fill-rule:nonzero;"/>
        </g>
        <g transform="matrix(0.0569145,0,0,-0.0569145,234.431,163.401)">
            <path d="M268,221L285,221C290.522,221 295,225.477 295,231C295,236.523 290.522,241 285,241L268,241C262.478,241 258,236.523 258,231C258,225.477 262.478,221 268,221Z" style="fill:rgb(0,116,22);fill-rule:nonzero;"/>
        </g>
        <g transform="matrix(0.0569145,0,0,-0.0569145,234.431,168.068)">
            <path d="M268,262L377,262C382.522,262 387,266.477 387,272C387,277.523 382.522,282 377,282L268,282C262.478,282 258,277.523 258,272C258,266.477 262.478,262 268,262Z" style="fill:rgb(0,116,22);fill-rule:nonzero;"/>
        </g>
        <g transform="matrix(0.0569145,0,0,-0.0569145,234.431,179.224)">
            <path d="M377,380L327,380C321.478,380 317,375.523 317,370C317,364.477 321.478,360 327,360L377,360C382.522,360 387,364.477 387,370C387,375.523 382.522,380 377,380Z" style="fill:rgb(0,116,22);fill-rule:nonzero;"/>
        </g>
        <g transform="matrix(0.0569145,0,0,-0.0569145,234.431,179.224)">
            <path d="M268,360L285,360C290.522,360 295,364.477 295,370C295,375.523 290.522,380 285,380L268,380C262.478,380 258,375.523 258,370C258,364.477 262.478,360 268,360Z" style="fill:rgb(0,116,22);fill-rule:nonzero;"/>
        </g>
        <g transform="matrix(0.0569145,0,0,-0.0569145,234.431,183.891)">
            <path d="M268,401L377,401C382.522,401 387,405.477 387,411C387,416.523 382.522,421 377,421L268,421C262.478,421 258,416.523 258,411C258,405.477 262.478,401 268,401Z" style="fill:rgb(0,116,22);fill-rule:nonzero;"/>
        </g>
        <g transform="matrix(0.0569145,0,0,-0.0569145,234.431,164.171)">
            <path d="M161.907,239.253C157.916,243.068 151.584,242.925 147.769,238.932C143.953,234.939 144.097,228.609 148.09,224.793L173.429,200.452C175.382,198.499 177.941,197.523 180.5,197.523C183.059,197.523 185.618,198.499 187.571,200.452L247.071,259.952C250.976,263.857 250.976,270.189 247.071,274.095C243.165,278 236.835,278 232.928,274.095L180.408,221.575L161.907,239.253Z" style="fill:rgb(0,116,22);fill-rule:nonzero;"/>
        </g>
        <g transform="matrix(0.0569145,0,0,-0.0569145,234.431,172.139)">
            <path d="M161.907,239.253C157.916,243.068 151.584,242.925 147.769,238.932C143.953,234.939 144.097,228.609 148.09,224.793L173.429,200.452C175.382,198.499 177.941,197.523 180.5,197.523C183.059,197.523 185.618,198.499 187.571,200.452L247.071,259.952C250.976,263.857 250.976,270.189 247.071,274.095C243.165,278 236.835,278 232.928,274.095L180.408,221.575L161.907,239.253Z" style="fill:rgb(0,116,22);fill-rule:nonzero;"/>
        </g>
        <g transform="matrix(0.0569145,0,0,-0.0569145,234.488,156.135)">
            <path d="M161.907,239.253C157.916,243.068 151.584,242.925 147.769,238.932C143.953,234.939 144.097,228.609 148.09,224.793L173.429,200.452C175.382,198.499 177.941,197.523 180.5,197.523C183.059,197.523 185.618,198.499 187.571,200.452L247.071,259.952C250.976,263.857 250.976,270.189 247.071,274.095C243.165,278 236.835,278 232.928,274.095L180.408,221.575L161.907,239.253Z" style="fill:rgb(0,116,22);fill-rule:nonzero;"/>
        </g>
        <g transform="matrix(0.720917,0,0,-0.720917,0,360.458)">
            <path d="M360,210L410,210C416.667,210 420,213.333 420,220L420,280C420,286.667 421.627,290 424.88,290L429.76,290" style="fill:none;fill-rule:nonzero;stroke:rgb(35,68,93);stroke-width:2px;stroke-miterlimit:10;"/>
        </g>
        <g transform="matrix(0.720917,0,0,-0.720917,0,302.785)">
            <path d="M437.76,210L429.76,207.33L429.76,212.67L437.76,210Z" style="fill:rgb(35,68,93);fill-rule:nonzero;stroke:rgb(35,68,93);stroke-width:2px;stroke-miterlimit:10;"/>
        </g>
        <g transform="matrix(0.0569145,0,0,-0.0569145,234.431,223.351)">
            <path d="M431,502L71,502C65.478,502 61,497.523 61,492L61,10C61,4.477 65.478,0 71,0L431,0C436.522,0 441,4.477 441,10L441,492C441,497.523 436.522,502 431,502Z"/>
        </g>
        <g transform="matrix(0.0569145,0,0,-0.0569145,234.431,223.351)">
            <rect x="81" y="20" width="340" height="462" style="fill:white;"/>
        </g>
        <g transform="matrix(0.0569145,0,0,-0.0569145,234.431,223.522)">
            <path d="M126,199L213,199C218.522,199 223,203.477 223,209L223,228C223,233.523 218.522,238 213,238C207.478,238 203,233.523 203,228L203,219L136,219L136,286L198,286C203.522,286 208,290.477 208,296C208,301.523 203.522,306 198,306L126,306C120.478,306 116,301.523 116,296L116,209C116,203.477 120.478,199 126,199Z" style="fill:rgb(0,116,22);fill-rule:nonzero;"/>
        </g>
        <g transform="matrix(0.0569145,0,0,-0.0569145,234.431,231.49)">
            <path d="M126,199L213,199C218.522,199 223,203.477 223,209L223,228C223,233.523 218.522,238 213,238C207.478,238 203,233.523 203,228L203,219L136,219L136,286L198,286C203.522,286 208,290.477 208,296C208,301.523 203.522,306 198,306L126,306C120.478,306 116,301.523 116,296L116,209C116,203.477 120.478,199 126,199Z" style="fill:rgb(0,116,22);fill-rule:nonzero;"/>
        </g>
        <g transform="matrix(0.0569145,0,0,-0.0569145,234.488,215.486)">
            <path d="M126,199L213,199C218.522,199 223,203.477 223,209L223,228C223,233.523 218.522,238 213,238C207.478,238 203,233.523 203,228L203,219L136,219L136,286L198,286C203.522,286 208,290.477 208,296C208,301.523 203.522,306 198,306L126,306C120.478,306 116,301.523 116,296L116,209C116,203.477 120.478,199 126,199Z" style="fill:rgb(0,116,22);fill-rule:nonzero;"/>
        </g>
        <g transform="matrix(0.0569145,0,0,-0.0569145,234.431,204.911)">
            <path d="M327,79L377,79C382.522,79 387,83.477 387,89C387,94.523 382.522,99 377,99L327,99C321.478,99 317,94.523 317,89C317,83.477 321.478,79 327,79Z" style="fill:rgb(0,116,22);fill-rule:nonzero;"/>
        </g>
        <g transform="matrix(0.0569145,0,0,-0.0569145,234.431,204.911)">
            <path d="M268,79L285,79C290.522,79 295,83.477 295,89C295,94.523 290.522,99 285,99L268,99C262.478,99 258,94.523 258,89C258,83.477 262.478,79 268,79Z" style="fill:rgb(0,116,22);fill-rule:nonzero;"/>
        </g>
        <g transform="matrix(0.0569145,0,0,-0.0569145,234.431,209.578)">
            <path d="M268,120L377,120C382.522,120 387,124.477 387,130C387,135.523 382.522,140 377,140L268,140C262.478,140 258,135.523 258,130C258,124.477 262.478,120 268,120Z" style="fill:rgb(0,116,22);fill-rule:nonzero;"/>
        </g>
        <g transform="matrix(0.0569145,0,0,-0.0569145,234.431,221.075)">
            <path d="M377,241L327,241C321.478,241 317,236.523 317,231C317,225.477 321.478,221 327,221L377,221C382.522,221 387,225.477 387,231C387,236.523 382.522,241 377,241Z" style="fill:rgb(0,116,22);fill-rule:nonzero;"/>
        </g>
        <g transform="matrix(0.0569145,0,0,-0.0569145,234.431,221.075)">
            <path d="M268,221L285,221C290.522,221 295,225.477 295,231C295,236.523 290.522,241 285,241L268,241C262.478,241 258,236.523 258,231C258,225.477 262.478,221 268,221Z" style="fill:rgb(0,116,22);fill-rule:nonzero;"/>
        </g>
        <g transform="matrix(0.0569145,0,0,-0.0569145,234.431,225.742)">
            <path d="M268,262L377,262C382.522,262 387,266.477 387,272C387,277.523 382.522,282 377,282L268,282C262.478,282 258,277.523 258,272C258,266.477 262.478,262 268,262Z" style="fill:rgb(0,116,22);fill-rule:nonzero;"/>
        </g>
        <g transform="matrix(0.0569145,0,0,-0.0569145,234.431,236.897)">
            <path d="M377,380L327,380C321.478,380 317,375.523 317,370C317,364.477 321.478,360 327,360L377,360C382.522,360 387,364.477 387,370C387,375.523 382.522,380 377,380Z" style="fill:rgb(0,116,22);fill-rule:nonzero;"/>
        </g>
        <g transform="matrix(0.0569145,0,0,-0.0569145,234.431,236.897)">
            <path d="M268,360L285,360C290.522,360 295,364.477 295,370C295,375.523 290.522,380 285,380L268,380C262.478,380 258,375.523 258,370C258,364.477 262.478,360 268,360Z" style="fill:rgb(0,116,22);fill-rule:nonzero;"/>
        </g>
        <g transform="matrix(0.0569145,0,0,-0.0569145,234.431,241.564)">
            <path d="M268,401L377,401C382.522,401 387,405.477 387,411C387,416.523 382.522,421 377,421L268,421C262.478,421 258,416.523 258,411C258,405.477 262.478,401 268,401Z" style="fill:rgb(0,116,22);fill-rule:nonzero;"/>
        </g>
        <g transform="matrix(0.0569145,0,0,-0.0569145,234.431,221.844)">
            <path d="M161.907,239.253C157.916,243.068 151.584,242.925 147.769,238.932C143.953,234.939 144.097,228.609 148.09,224.793L173.429,200.452C175.382,198.499 177.941,197.523 180.5,197.523C183.059,197.523 185.618,198.499 187.571,200.452L247.071,259.952C250.976,263.857 250.976,270.189 247.071,274.095C243.165,278 236.835,278 232.928,274.095L180.408,221.575L161.907,239.253Z" style="fill:rgb(0,116,22);fill-rule:nonzero;"/>
        </g>
        <g transform="matrix(0.0569145,0,0,-0.0569145,234.431,229.812)">
            <path d="M161.907,239.253C157.916,243.068 151.584,242.925 147.769,238.932C143.953,234.939 144.097,228.609 148.09,224.793L173.429,200.452C175.382,198.499 177.941,197.523 180.5,197.523C183.059,197.523 185.618,198.499 187.571,200.452L247.071,259.952C250.976,263.857 250.976,270.189 247.071,274.095C243.165,278 236.835,278 232.928,274.095L180.408,221.575L161.907,239.253Z" style="fill:rgb(0,116,22);fill-rule:nonzero;"/>
        </g>
        <g transform="matrix(0.0569145,0,0,-0.0569145,234.488,213.808)">
            <path d="M161.907,239.253C157.916,243.068 151.584,242.925 147.769,238.932C143.953,234.939 144.097,228.609 148.09,224.793L173.429,200.452C175.382,198.499 177.941,197.523 180.5,197.523C183.059,197.523 185.618,198.499 187.571,200.452L247.071,259.952C250.976,263.857 250.976,270.189 247.071,274.095C243.165,278 236.835,278 232.928,274.095L180.408,221.575L161.907,239.253Z" style="fill:rgb(0,116,22);fill-rule:nonzero;"/>
        </g>
        <g transform="matrix(0.720917,0,0,-0.720917,50.4642,50.4642)">
            <path d="M30,0L0,0L0,40L20.838,40L30,30.94L30,0Z"/>
        </g>
        <g transform="matrix(0.720917,0,0,-0.720917,50.4642,50.4642)">
            <path d="M1.875,38.125L1.875,1.875L28.125,1.875L28.125,30.158L20.067,38.125L1.875,38.125Z" style="fill:white;"/>
        </g>
        <g transform="matrix(1.10018,0,0,-1.10018,41.5536,31.6625)">
            <path d="M20.212,9.121L21.754,9.121L27.757,3.185L27.757,1.706L20.212,1.706L20.212,9.121Z"/>
        </g>
        <g transform="matrix(1.10018,0,0,-1.10018,41.5536,31.8727)">
            <path d="M21.441,3.125L26.263,3.125L21.441,7.893L21.441,3.125Z" style="fill:rgb(208,208,208);"/>
        </g>
        <g transform="matrix(0.0569145,0,0,-0.0569145,46.9924,108.005)">
            <path d="M431,502L71,502C65.478,502 61,497.523 61,492L61,10C61,4.477 65.478,0 71,0L431,0C436.522,0 441,4.477 441,10L441,492C441,497.523 436.522,502 431,502Z"/>
        </g>
        <g transform="matrix(0.0569145,0,0,-0.0569145,46.9924,108.005)">
            <rect x="81" y="20" width="340" height="462" style="fill:white;"/>
        </g>
        <g transform="matrix(0.0569145,0,0,-0.0569145,46.9924,108.175)">
            <path d="M126,199L213,199C218.522,199 223,203.477 223,209L223,228C223,233.523 218.522,238 213,238C207.478,238 203,233.523 203,228L203,219L136,219L136,286L198,286C203.522,286 208,290.477 208,296C208,301.523 203.522,306 198,306L126,306C120.478,306 116,301.523 116,296L116,209C116,203.477 120.478,199 126,199Z" style="fill:rgb(0,116,22);fill-rule:nonzero;"/>
        </g>
        <g transform="matrix(0.0569145,0,0,-0.0569145,46.9924,116.143)">
            <path d="M126,199L213,199C218.522,199 223,203.477 223,209L223,228C223,233.523 218.522,238 213,238C207.478,238 203,233.523 203,228L203,219L136,219L136,286L198,286C203.522,286 208,290.477 208,296C208,301.523 203.522,306 198,306L126,306C120.478,306 116,301.523 116,296L116,209C116,203.477 120.478,199 126,199Z" style="fill:rgb(0,116,22);fill-rule:nonzero;"/>
        </g>
        <g transform="matrix(0.0569145,0,0,-0.0569145,47.0493,100.139)">
            <path d="M126,199L213,199C218.522,199 223,203.477 223,209L223,228C223,233.523 218.522,238 213,238C207.478,238 203,233.523 203,228L203,219L136,219L136,286L198,286C203.522,286 208,290.477 208,296C208,301.523 203.522,306 198,306L126,306C120.478,306 116,301.523 116,296L116,209C116,203.477 120.478,199 126,199Z" style="fill:rgb(0,116,22);fill-rule:nonzero;"/>
        </g>
        <g transform="matrix(0.0569145,0,0,-0.0569145,46.9924,89.5644)">
            <path d="M327,79L377,79C382.522,79 387,83.477 387,89C387,94.523 382.522,99 377,99L327,99C321.478,99 317,94.523 317,89C317,83.477 321.478,79 327,79Z" style="fill:rgb(0,116,22);fill-rule:nonzero;"/>
        </g>
        <g transform="matrix(0.0569145,0,0,-0.0569145,46.9924,89.5644)">
            <path d="M268,79L285,79C290.522,79 295,83.477 295,89C295,94.523 290.522,99 285,99L268,99C262.478,99 258,94.523 258,89C258,83.477 262.478,79 268,79Z" style="fill:rgb(0,116,22);fill-rule:nonzero;"/>
        </g>
        <g transform="matrix(0.0569145,0,0,-0.0569145,46.9924,94.2314)">
            <path d="M268,120L377,120C382.522,120 387,124.477 387,130C387,135.523 382.522,140 377,140L268,140C262.478,140 258,135.523 258,130C258,124.477 262.478,120 268,120Z" style="fill:rgb(0,116,22);fill-rule:nonzero;"/>
        </g>
        <g transform="matrix(0.0569145,0,0,-0.0569145,46.9924,105.728)">
            <path d="M377,241L327,241C321.478,241 317,236.523 317,231C317,225.477 321.478,221 327,221L377,221C382.522,221 387,225.477 387,231C387,236.523 382.522,241 377,241Z" style="fill:rgb(0,116,22);fill-rule:nonzero;"/>
        </g>
        <g transform="matrix(0.0569145,0,0,-0.0569145,46.9924,105.728)">
            <path d="M268,221L285,221C290.522,221 295,225.477 295,231C295,236.523 290.522,241 285,241L268,241C262.478,241 258,236.523 258,231C258,225.477 262.478,221 268,221Z" style="fill:rgb(0,116,22);fill-rule:nonzero;"/>
        </g>
        <g transform="matrix(0.0569145,0,0,-0.0569145,46.9924,110.395)">
            <path d="M268,262L377,262C382.522,262 387,266.477 387,272C387,277.523 382.522,282 377,282L268,282C262.478,282 258,277.523 258,272C258,266.477 262.478,262 268,262Z" style="fill:rgb(0,116,22);fill-rule:nonzero;"/>
        </g>
        <g transform="matrix(0.0569145,0,0,-0.0569145,46.9924,121.55)">
            <path d="M377,380L327,380C321.478,380 317,375.523 317,370C317,364.477 321.478,360 327,360L377,360C382.522,360 387,364.477 387,370C387,375.523 382.522,380 377,380Z" style="fill:rgb(0,116,22);fill-rule:nonzero;"/>
        </g>
        <g transform="matrix(0.0569145,0,0,-0.0569145,46.9924,121.55)">
            <path d="M268,360L285,360C290.522,360 295,364.477 295,370C295,375.523 290.522,380 285,380L268,380C262.478,380 258,375.523 258,370C258,364.477 262.478,360 268,360Z" style="fill:rgb(0,116,22);fill-rule:nonzero;"/>
        </g>
        <g transform="matrix(0.0569145,0,0,-0.0569145,46.9924,126.217)">
            <path d="M268,401L377,401C382.522,401 387,405.477 387,411C387,416.523 382.522,421 377,421L268,421C262.478,421 258,416.523 258,411C258,405.477 262.478,401 268,401Z" style="fill:rgb(0,116,22);fill-rule:nonzero;"/>
        </g>
        <g transform="matrix(0.0569145,0,0,-0.0569145,46.9924,106.498)">
            <path d="M161.907,239.253C157.916,243.068 151.584,242.925 147.769,238.932C143.953,234.939 144.097,228.609 148.09,224.793L173.429,200.452C175.382,198.499 177.941,197.523 180.5,197.523C183.059,197.523 185.618,198.499 187.571,200.452L247.071,259.952C250.976,263.857 250.976,270.189 247.071,274.095C243.165,278 236.835,278 232.928,274.095L180.408,221.575L161.907,239.253Z" style="fill:rgb(0,116,22);fill-rule:nonzero;"/>
        </g>
        <g transform="matrix(0.0569145,0,0,-0.0569145,46.9924,114.466)">
            <path d="M161.907,239.253C157.916,243.068 151.584,242.925 147.769,238.932C143.953,234.939 144.097,228.609 148.09,224.793L173.429,200.452C175.382,198.499 177.941,197.523 180.5,197.523C183.059,197.523 185.618,198.499 187.571,200.452L247.071,259.952C250.976,263.857 250.976,270.189 247.071,274.095C243.165,278 236.835,278 232.928,274.095L180.408,221.575L161.907,239.253Z" style="fill:rgb(0,116,22);fill-rule:nonzero;"/>
        </g>
        <g transform="matrix(0.0569145,0,0,-0.0569145,47.0493,98.4613)">
            <path d="M161.907,239.253C157.916,243.068 151.584,242.925 147.769,238.932C143.953,234.939 144.097,228.609 148.09,224.793L173.429,200.452C175.382,198.499 177.941,197.523 180.5,197.523C183.059,197.523 185.618,198.499 187.571,200.452L247.071,259.952C250.976,263.857 250.976,270.189 247.071,274.095C243.165,278 236.835,278 232.928,274.095L180.408,221.575L161.907,239.253Z" style="fill:rgb(0,116,22);fill-rule:nonzero;"/>
        </g>
        <g transform="matrix(0.0569145,0,0,-0.0569145,46.9924,223.351)">
            <path d="M431,502L71,502C65.478,502 61,497.523 61,492L61,10C61,4.477 65.478,0 71,0L431,0C436.522,0 441,4.477 441,10L441,492C441,497.523 436.522,502 431,502Z"/>
        </g>
        <g transform="matrix(0.0569145,0,0,-0.0569145,46.9924,223.351)">
            <rect x="81" y="20" width="340" height="462" style="fill:white;"/>
        </g>
        <g transform="matrix(0.0569145,0,0,-0.0569145,46.9924,223.522)">
            <path d="M126,199L213,199C218.522,199 223,203.477 223,209L223,228C223,233.523 218.522,238 213,238C207.478,238 203,233.523 203,228L203,219L136,219L136,286L198,286C203.522,286 208,290.477 208,296C208,301.523 203.522,306 198,306L126,306C120.478,306 116,301.523 116,296L116,209C116,203.477 120.478,199 126,199Z" style="fill:rgb(0,116,22);fill-rule:nonzero;"/>
        </g>
        <g transform="matrix(0.0569145,0,0,-0.0569145,46.9924,231.49)">
            <path d="M126,199L213,199C218.522,199 223,203.477 223,209L223,228C223,233.523 218.522,238 213,238C207.478,238 203,233.523 203,228L203,219L136,219L136,286L198,286C203.522,286 208,290.477 208,296C208,301.523 203.522,306 198,306L126,306C120.478,306 116,301.523 116,296L116,209C116,203.477 120.478,199 126,199Z" style="fill:rgb(0,116,22);fill-rule:nonzero;"/>
        </g>
        <g transform="matrix(0.0569145,0,0,-0.0569145,47.0493,215.486)">
            <path d="M126,199L213,199C218.522,199 223,203.477 223,209L223,228C223,233.523 218.522,238 213,238C207.478,238 203,233.523 203,228L203,219L136,219L136,286L198,286C203.522,286 208,290.477 208,296C208,301.523 203.522,306 198,306L126,306C120.478,306 116,301.523 116,296L116,209C116,203.477 120.478,199 126,199Z" style="fill:rgb(0,116,22);fill-rule:nonzero;"/>
        </g>
        <g transform="matrix(0.0569145,0,0,-0.0569145,46.9924,204.911)">
            <path d="M327,79L377,79C382.522,79 387,83.477 387,89C387,94.523 382.522,99 377,99L327,99C321.478,99 317,94.523 317,89C317,83.477 321.478,79 327,79Z" style="fill:rgb(0,116,22);fill-rule:nonzero;"/>
        </g>
        <g transform="matrix(0.0569145,0,0,-0.0569145,46.9924,204.911)">
            <path d="M268,79L285,79C290.522,79 295,83.477 295,89C295,94.523 290.522,99 285,99L268,99C262.478,99 258,94.523 258,89C258,83.477 262.478,79 268,79Z" style="fill:rgb(0,116,22);fill-rule:nonzero;"/>
        </g>
        <g transform="matrix(0.0569145,0,0,-0.0569145,46.9924,209.578)">
            <path d="M268,120L377,120C382.522,120 387,124.477 387,130C387,135.523 382.522,140 377,140L268,140C262.478,140 258,135.523 258,130C258,124.477 262.478,120 268,120Z" style="fill:rgb(0,116,22);fill-rule:nonzero;"/>
        </g>
        <g transform="matrix(0.0569145,0,0,-0.0569145,46.9924,221.075)">
            <path d="M377,241L327,241C321.478,241 317,236.523 317,231C317,225.477 321.478,221 327,221L377,221C382.522,221 387,225.477 387,231C387,236.523 382.522,241 377,241Z" style="fill:rgb(0,116,22);fill-rule:nonzero;"/>
        </g>
        <g transform="matrix(0.0569145,0,0,-0.0569145,46.9924,221.075)">
            <path d="M268,221L285,221C290.522,221 295,225.477 295,231C295,236.523 290.522,241 285,241L268,241C262.478,241 258,236.523 258,231C258,225.477 262.478,221 268,221Z" style="fill:rgb(0,116,22);fill-rule:nonzero;"/>
        </g>
        <g transform="matrix(0.0569145,0,0,-0.0569145,46.9924,225.742)">
            <path d="M268,262L377,262C382.522,262 387,266.477 387,272C387,277.523 382.522,282 377,282L268,282C262.478,282 258,277.523 258,272C258,266.477 262.478,262 268,262Z" style="fill:rgb(0,116,22);fill-rule:nonzero;"/>
        </g>
        <g transform="matrix(0.0569145,0,0,-0.0569145,46.9924,236.897)">
            <path d="M377,380L327,380C321.478,380 317,375.523 317,370C317,364.477 321.478,360 327,360L377,360C382.522,360 387,364.477 387,370C387,375.523 382.522,380 377,380Z" style="fill:rgb(0,116,22);fill-rule:nonzero;"/>
        </g>
        <g transform="matrix(0.0569145,0,0,-0.0569145,46.9924,236.897)">
            <path d="M268,360L285,360C290.522,360 295,364.477 295,370C295,375.523 290.522,380 285,380L268,380C262.478,380 258,375.523 258,370C258,364.477 262.478,360 268,360Z" style="fill:rgb(0,116,22);fill-rule:nonzero;"/>
        </g>
        <g transform="matrix(0.0569145,0,0,-0.0569145,46.9924,241.564)">
            <path d="M268,401L377,401C382.522,401 387,405.477 387,411C387,416.523 382.522,421 377,421L268,421C262.478,421 258,416.523 258,411C258,405.477 262.478,401 268,401Z" style="fill:rgb(0,116,22);fill-rule:nonzero;"/>
        </g>
        <g transform="matrix(0.0569145,0,0,-0.0569145,46.9924,221.844)">
            <path d="M161.907,239.253C157.916,243.068 151.584,242.925 147.769,238.932C143.953,234.939 144.097,228.609 148.09,224.793L173.429,200.452C175.382,198.499 177.941,197.523 180.5,197.523C183.059,197.523 185.618,198.499 187.571,200.452L247.071,259.952C250.976,263.857 250.976,270.189 247.071,274.095C243.165,278 236.835,278 232.928,274.095L180.408,221.575L161.907,239.253Z" style="fill:rgb(0,116,22);fill-rule:nonzero;"/>
        </g>
        <g transform="matrix(0.0569145,0,0,-0.0569145,46.9924,229.812)">
            <path d="M161.907,239.253C157.916,243.068 151.584,242.925 147.769,238.932C143.953,234.939 144.097,228.609 148.09,224.793L173.429,200.452C175.382,198.499 177.941,197.523 180.5,197.523C183.059,197.523 185.618,198.499 187.571,200.452L247.071,259.952C250.976,263.857 250.976,270.189 247.071,274.095C243.165,278 236.835,278 232.928,274.095L180.408,221.575L161.907,239.253Z" style="fill:rgb(0,116,22);fill-rule:nonzero;"/>
        </g>
        <g transform="matrix(0.0569145,0,0,-0.0569145,47.0493,213.808)">
            <path d="M161.907,239.253C157.916,243.068 151.584,242.925 147.769,238.932C143.953,234.939 144.097,228.609 148.09,224.793L173.429,200.452C175.382,198.499 177.941,197.523 180.5,197.523C183.059,197.523 185.618,198.499 187.571,200.452L247.071,259.952C250.976,263.857 250.976,270.189 247.071,274.095C243.165,278 236.835,278 232.928,274.095L180.408,221.575L161.907,239.253Z" style="fill:rgb(0,116,22);fill-rule:nonzero;"/>
        </g>
        <g transform="matrix(0.720917,0,0,-0.720917,0,187.438)">
            <path d="M100,130L199.76,130" style="fill:none;fill-rule:nonzero;stroke:rgb(130,179,102);stroke-width:2px;stroke-miterlimit:10;"/>
        </g>
        <g transform="matrix(0.720917,0,0,-0.720917,0,187.438)">
            <path d="M207.76,130L199.76,127.33L199.76,132.67L207.76,130Z" style="fill:rgb(130,179,102);fill-rule:nonzero;stroke:rgb(130,179,102);stroke-width:2px;stroke-miterlimit:10;"/>
        </g>
        <g transform="matrix(0.720917,0,0,-0.720917,0,187.438)">
            <path d="M100,210L160,210C166.667,210 170,206.667 170,200L170,134M170,126L170,60C170,53.333 173.333,50 180,50L199.76,50" style="fill:none;fill-rule:nonzero;stroke:rgb(108,142,191);stroke-width:2px;stroke-miterlimit:10;"/>
        </g>
        <g transform="matrix(0.720917,0,0,-0.720917,0,302.785)">
            <path d="M207.76,210L199.76,207.33L199.76,212.67L207.76,210Z" style="fill:rgb(108,142,191);fill-rule:nonzero;stroke:rgb(108,142,191);stroke-width:2px;stroke-miterlimit:10;"/>
        </g>
        <g transform="matrix(0.720917,0,0,-0.720917,0,245.112)">
            <path d="M100,290L150,290C156.667,290 160,286.667 160,280L160,214M160,206L160,60C160,53.333 163.333,50 170,50L199.76,50" style="fill:none;fill-rule:nonzero;stroke:rgb(214,182,86);stroke-width:2px;stroke-miterlimit:10;"/>
        </g>
        <g transform="matrix(0.720917,0,0,-0.720917,0,418.132)">
            <path d="M207.76,290L199.76,287.33L199.76,292.67L207.76,290Z" style="fill:rgb(214,182,86);fill-rule:nonzero;stroke:rgb(214,182,86);stroke-width:2px;stroke-miterlimit:10;"/>
        </g>
        <g transform="matrix(0.720917,0,0,-0.720917,0,72.0917)">
            <path d="M100,50L319.76,50" style="fill:none;fill-rule:nonzero;stroke:rgb(35,68,93);stroke-width:2px;stroke-miterlimit:10;"/>
        </g>
        <g transform="matrix(0.720917,0,0,-0.720917,0,72.0917)">
            <path d="M327.76,50L319.76,47.33L319.76,52.67L327.76,50Z" style="fill:rgb(35,68,93);fill-rule:nonzero;stroke:rgb(35,68,93);stroke-width:2px;stroke-miterlimit:10;"/>
        </g>
        <g transform="matrix(0.720917,0,0,-0.720917,0,129.765)">
            <path d="M100,130L170,130C176.667,130 180,126.667 180,120L180,60C180,53.333 183.293,50 189.88,50L199.76,50" style="fill:none;fill-rule:nonzero;stroke:rgb(130,179,102);stroke-width:2px;stroke-miterlimit:10;"/>
        </g>
        <g transform="matrix(0.720917,0,0,-0.720917,0,187.438)">
            <path d="M207.76,130L199.76,127.33L199.76,132.67L207.76,130Z" style="fill:rgb(130,179,102);fill-rule:nonzero;stroke:rgb(130,179,102);stroke-width:2px;stroke-miterlimit:10;"/>
        </g>
        <g transform="matrix(0.720917,0,0,-0.720917,0.360458,72.4521)">
            <path d="M325,70L335,70L340,50L335,30L325,30L330,50L325,70Z" style="fill:rgb(213,232,212);fill-rule:nonzero;stroke:rgb(130,179,102);stroke-width:1px;stroke-miterlimit:10;"/>
        </g>
        <g transform="matrix(0.720917,0,0,-0.720917,0.360458,72.4521)">
            <path d="M337.5,70L347.5,70L352.5,50L347.5,30L337.5,30L342.5,50L337.5,70Z" style="fill:rgb(218,232,252);fill-rule:nonzero;stroke:rgb(108,142,191);stroke-width:1px;stroke-miterlimit:10;"/>
        </g>
        <g transform="matrix(0.720917,0,0,-0.720917,0.360458,72.4521)">
            <path d="M350,70L360,70L365,50L360,30L350,30L355,50L350,70Z" style="fill:rgb(255,242,204);fill-rule:nonzero;stroke:rgb(214,182,86);stroke-width:1px;stroke-miterlimit:10;"/>
        </g>
        <g transform="matrix(0.720917,0,0,-0.720917,0,187.438)">
            <path d="M365,210L410,210C416.667,210 420,206.667 420,200L420,60C420,53.333 421.627,50 424.88,50L429.76,50" style="fill:none;fill-rule:nonzero;stroke:rgb(35,68,93);stroke-width:2px;stroke-miterlimit:10;"/>
        </g>
        <g transform="matrix(0.720917,0,0,-0.720917,0,302.785)">
            <path d="M437.76,210L429.76,207.33L429.76,212.67L437.76,210Z" style="fill:rgb(35,68,93);fill-rule:nonzero;stroke:rgb(35,68,93);stroke-width:2px;stroke-miterlimit:10;"/>
        </g>
        <g>
            <clipPath id="_clip1">
                <rect x="317.203" y="136.974" width="21.628" height="28.837"/>
            </clipPath>
            <g clip-path="url(#_clip1)">
                <g transform="matrix(0.720917,0,0,-0.720917,317.203,165.811)">
                    <path d="M28.1,40C29.149,40 30,39.149 30,38.1L30,1.9C30,0.851 29.149,0 28.1,0L1.9,0C0.851,0 0,0.851 0,1.9L0,38.085C0,38.593 0.202,39.08 0.561,39.439C0.92,39.798 1.407,40 1.915,40L28.1,40Z" style="fill:rgb(243,243,243);"/>
                </g>
                <g transform="matrix(0.720917,0,0,-0.720917,317.203,165.811)">
                    <path d="M28.1,40C29.149,40 30,39.149 30,38.1L30,1.9C30,0.851 29.149,0 28.1,0L1.9,0C0.851,0 0,0.851 0,1.9L0,38.085C0,38.593 0.202,39.08 0.561,39.439C0.92,39.798 1.407,40 1.915,40L28.1,40ZM28.1,38.267L1.915,38.267C1.867,38.267 1.821,38.248 1.787,38.213C1.752,38.179 1.733,38.133 1.733,38.085L1.733,1.9C1.733,1.808 1.808,1.733 1.9,1.733L28.1,1.733C28.192,1.733 28.267,1.808 28.267,1.9L28.267,38.1C28.267,38.192 28.192,38.267 28.1,38.267Z"/>
                </g>
                <g transform="matrix(1.84457,0,0,-1.84457,300.011,139.745)">
                    <path d="M14.303,-0.394L14.303,3.35C14.303,4.15 14.372,4.691 14.511,4.974C14.65,5.257 14.874,5.398 15.183,5.398C15.492,5.398 15.716,5.257 15.855,4.974C15.994,4.691 16.063,4.15 16.063,3.35L16.063,-0.394C16.063,-1.194 15.994,-1.735 15.855,-2.018C15.716,-2.301 15.492,-2.442 15.183,-2.442C14.874,-2.442 14.65,-2.301 14.511,-2.018C14.372,-1.735 14.303,-1.194 14.303,-0.394ZM11.327,1.478C11.327,0.326 11.404,-0.621 11.559,-1.362C11.714,-2.103 11.948,-2.69 12.263,-3.122C12.578,-3.554 12.978,-3.85 13.463,-4.01C13.948,-4.17 14.522,-4.25 15.183,-4.25C15.844,-4.25 16.418,-4.17 16.903,-4.01C17.388,-3.85 17.788,-3.554 18.103,-3.122C18.418,-2.69 18.652,-2.103 18.807,-1.362C18.962,-0.621 19.039,0.326 19.039,1.478C19.039,2.619 18.962,3.563 18.807,4.31C18.652,5.057 18.418,5.649 18.103,6.086C17.788,6.523 17.388,6.827 16.903,6.998C16.418,7.169 15.844,7.254 15.183,7.254C14.522,7.254 13.948,7.169 13.463,6.998C12.978,6.827 12.578,6.523 12.263,6.086C11.948,5.649 11.714,5.057 11.559,4.31C11.404,3.563 11.327,2.619 11.327,1.478Z" style="fill-rule:nonzero;"/>
                </g>
                <g transform="matrix(1.84457,0,0,-1.84457,301.516,195.958)">
                    <path d="M13.951,11.383L16.927,11.383L16.927,22.711L14.783,22.711C14.687,22.38 14.564,22.1 14.415,21.871C14.266,21.641 14.074,21.46 13.839,21.327C13.604,21.193 13.322,21.097 12.991,21.039C12.66,20.98 12.266,20.951 11.807,20.951L11.807,19.095L13.951,19.095L13.951,11.383Z" style="fill-rule:nonzero;"/>
                </g>
                <g transform="matrix(0.639213,0,0,-0.623172,318.452,150.663)">
                    <rect x="0" y="0" width="30" height="20" style="fill-opacity:0.2;"/>
                </g>
                <g transform="matrix(0.639213,0,0,-0.659639,318.452,164.585)">
                    <path d="M30,40L30,0L0,0L0,40L30,40ZM28.045,38.106L1.955,38.106L1.955,1.894L28.045,1.894L28.045,38.106Z" style="fill:white;"/>
                </g>
            </g>
        </g>
        <g transform="matrix(0.720917,0,0,-0.720917,0.360458,259.89)">
            <path d="M495,170C495,183.333 489.583,190 478.75,190C467.917,190 462.5,184.08 462.5,172.24" style="fill:none;fill-rule:nonzero;stroke:black;stroke-width:1px;stroke-miterlimit:10;"/>
        </g>
        <g transform="matrix(0.720917,0,0,-0.720917,0.360458,267.647)">
            <path d="M460.17,188.88L462.5,181.88L464.83,188.88" style="fill:none;fill-rule:nonzero;stroke:black;stroke-width:1px;stroke-miterlimit:10;"/>
        </g>
        <g>
            <clipPath id="_clip2">
                <rect x="346.04" y="136.974" width="21.627" height="28.837"/>
            </clipPath>
            <g clip-path="url(#_clip2)">
                <g transform="matrix(0.720917,0,0,-0.720917,346.04,165.811)">
                    <path d="M28.1,40C29.149,40 30,39.149 30,38.1L30,1.9C30,0.851 29.149,0 28.1,0L1.9,0C0.851,0 0,0.851 0,1.9L0,38.085C0,38.593 0.202,39.08 0.561,39.439C0.92,39.798 1.407,40 1.915,40L28.1,40Z" style="fill:rgb(243,243,243);"/>
                </g>
                <g transform="matrix(0.720917,0,0,-0.720917,346.04,165.811)">
                    <path d="M28.1,40C29.149,40 30,39.149 30,38.1L30,1.9C30,0.851 29.149,0 28.1,0L1.9,0C0.851,0 0,0.851 0,1.9L0,38.085C0,38.593 0.202,39.08 0.561,39.439C0.92,39.798 1.407,40 1.915,40L28.1,40ZM28.1,38.267L1.915,38.267C1.867,38.267 1.821,38.248 1.787,38.213C1.752,38.179 1.733,38.133 1.733,38.085L1.733,1.9C1.733,1.808 1.808,1.733 1.9,1.733L28.1,1.733C28.192,1.733 28.267,1.808 28.267,1.9L28.267,38.1C28.267,38.192 28.192,38.267 28.1,38.267Z"/>
                </g>
                <g transform="matrix(1.84457,0,0,-1.84457,328.848,139.745)">
                    <path d="M14.303,-0.394L14.303,3.35C14.303,4.15 14.372,4.691 14.511,4.974C14.65,5.257 14.874,5.398 15.183,5.398C15.492,5.398 15.716,5.257 15.855,4.974C15.994,4.691 16.063,4.15 16.063,3.35L16.063,-0.394C16.063,-1.194 15.994,-1.735 15.855,-2.018C15.716,-2.301 15.492,-2.442 15.183,-2.442C14.874,-2.442 14.65,-2.301 14.511,-2.018C14.372,-1.735 14.303,-1.194 14.303,-0.394ZM11.327,1.478C11.327,0.326 11.404,-0.621 11.559,-1.362C11.714,-2.103 11.948,-2.69 12.263,-3.122C12.578,-3.554 12.978,-3.85 13.463,-4.01C13.948,-4.17 14.522,-4.25 15.183,-4.25C15.844,-4.25 16.418,-4.17 16.903,-4.01C17.388,-3.85 17.788,-3.554 18.103,-3.122C18.418,-2.69 18.652,-2.103 18.807,-1.362C18.962,-0.621 19.039,0.326 19.039,1.478C19.039,2.619 18.962,3.563 18.807,4.31C18.652,5.057 18.418,5.649 18.103,6.086C17.788,6.523 17.388,6.827 16.903,6.998C16.418,7.169 15.844,7.254 15.183,7.254C14.522,7.254 13.948,7.169 13.463,6.998C12.978,6.827 12.578,6.523 12.263,6.086C11.948,5.649 11.714,5.057 11.559,4.31C11.404,3.563 11.327,2.619 11.327,1.478Z" style="fill-rule:nonzero;"/>
                </g>
                <g transform="matrix(1.84457,0,0,-1.84457,330.353,195.958)">
                    <path d="M13.951,11.383L16.927,11.383L16.927,22.711L14.783,22.711C14.687,22.38 14.564,22.1 14.415,21.871C14.266,21.641 14.074,21.46 13.839,21.327C13.604,21.193 13.322,21.097 12.991,21.039C12.66,20.98 12.266,20.951 11.807,20.951L11.807,19.095L13.951,19.095L13.951,11.383Z" style="fill-rule:nonzero;"/>
                </g>
                <g transform="matrix(0.639213,0,0,-0.623172,347.289,150.663)">
                    <rect x="0" y="0" width="30" height="20" style="fill-opacity:0.2;"/>
                </g>
                <g transform="matrix(0.639213,0,0,-0.659639,347.289,164.585)">
                    <path d="M30,40L30,0L0,0L0,40L30,40ZM28.045,38.106L1.955,38.106L1.955,1.894L28.045,1.894L28.045,38.106Z" style="fill:white;"/>
                </g>
            </g>
        </g>
        <g transform="matrix(0.720917,0,0,-0.720917,0.360458,259.89)">
            <path d="M535,170C535,183.333 529.583,190 518.75,190C507.917,190 502.5,184.08 502.5,172.24" style="fill:none;fill-rule:nonzero;stroke:black;stroke-width:1px;stroke-miterlimit:10;"/>
        </g>
        <g transform="matrix(0.720917,0,0,-0.720917,0.360458,267.647)">
            <path d="M500.17,188.88L502.5,181.88L504.83,188.88" style="fill:none;fill-rule:nonzero;stroke:black;stroke-width:1px;stroke-miterlimit:10;"/>
        </g>
        <g>
            <clipPath id="_clip3">
                <rect x="374.877" y="136.974" width="21.628" height="28.837"/>
            </clipPath>
            <g clip-path="url(#_clip3)">
                <g transform="matrix(0.720917,0,0,-0.720917,374.877,165.811)">
                    <path d="M28.1,40C29.149,40 30,39.149 30,38.1L30,1.9C30,0.851 29.149,0 28.1,0L1.9,0C0.851,0 0,0.851 0,1.9L0,38.085C0,38.593 0.202,39.08 0.561,39.439C0.92,39.798 1.407,40 1.915,40L28.1,40Z" style="fill:rgb(243,243,243);"/>
                </g>
                <g transform="matrix(0.720917,0,0,-0.720917,374.877,165.811)">
                    <path d="M28.1,40C29.149,40 30,39.149 30,38.1L30,1.9C30,0.851 29.149,0 28.1,0L1.9,0C0.851,0 0,0.851 0,1.9L0,38.085C0,38.593 0.202,39.08 0.561,39.439C0.92,39.798 1.407,40 1.915,40L28.1,40ZM28.1,38.267L1.915,38.267C1.867,38.267 1.821,38.248 1.787,38.213C1.752,38.179 1.733,38.133 1.733,38.085L1.733,1.9C1.733,1.808 1.808,1.733 1.9,1.733L28.1,1.733C28.192,1.733 28.267,1.808 28.267,1.9L28.267,38.1C28.267,38.192 28.192,38.267 28.1,38.267Z"/>
                </g>
                <g transform="matrix(1.84457,0,0,-1.84457,357.684,139.745)">
                    <path d="M14.303,-0.394L14.303,3.35C14.303,4.15 14.372,4.691 14.511,4.974C14.65,5.257 14.874,5.398 15.183,5.398C15.492,5.398 15.716,5.257 15.855,4.974C15.994,4.691 16.063,4.15 16.063,3.35L16.063,-0.394C16.063,-1.194 15.994,-1.735 15.855,-2.018C15.716,-2.301 15.492,-2.442 15.183,-2.442C14.874,-2.442 14.65,-2.301 14.511,-2.018C14.372,-1.735 14.303,-1.194 14.303,-0.394ZM11.327,1.478C11.327,0.326 11.404,-0.621 11.559,-1.362C11.714,-2.103 11.948,-2.69 12.263,-3.122C12.578,-3.554 12.978,-3.85 13.463,-4.01C13.948,-4.17 14.522,-4.25 15.183,-4.25C15.844,-4.25 16.418,-4.17 16.903,-4.01C17.388,-3.85 17.788,-3.554 18.103,-3.122C18.418,-2.69 18.652,-2.103 18.807,-1.362C18.962,-0.621 19.039,0.326 19.039,1.478C19.039,2.619 18.962,3.563 18.807,4.31C18.652,5.057 18.418,5.649 18.103,6.086C17.788,6.523 17.388,6.827 16.903,6.998C16.418,7.169 15.844,7.254 15.183,7.254C14.522,7.254 13.948,7.169 13.463,6.998C12.978,6.827 12.578,6.523 12.263,6.086C11.948,5.649 11.714,5.057 11.559,4.31C11.404,3.563 11.327,2.619 11.327,1.478Z" style="fill-rule:nonzero;"/>
                </g>
                <g transform="matrix(1.84457,0,0,-1.84457,359.189,195.958)">
                    <path d="M13.951,11.383L16.927,11.383L16.927,22.711L14.783,22.711C14.687,22.38 14.564,22.1 14.415,21.871C14.266,21.641 14.074,21.46 13.839,21.327C13.604,21.193 13.322,21.097 12.991,21.039C12.66,20.98 12.266,20.951 11.807,20.951L11.807,19.095L13.951,19.095L13.951,11.383Z" style="fill-rule:nonzero;"/>
                </g>
                <g transform="matrix(0.639213,0,0,-0.623172,376.126,150.663)">
                    <rect x="0" y="0" width="30" height="20" style="fill-opacity:0.2;"/>
                </g>
                <g transform="matrix(0.639213,0,0,-0.659639,376.126,164.585)">
                    <path d="M30,40L30,0L0,0L0,40L30,40ZM28.045,38.106L1.955,38.106L1.955,1.894L28.045,1.894L28.045,38.106Z" style="fill:white;"/>
                </g>
            </g>
        </g>
        <g transform="matrix(0.720917,0,0,-0.720917,0,302.785)">
            <rect x="440" y="190" width="30" height="40" style="fill:none;stroke:rgb(130,179,102);stroke-width:2px;"/>
        </g>
        <g transform="matrix(0.720917,0,0,-0.720917,0,302.785)">
            <rect x="480" y="190" width="30" height="40" style="fill:none;stroke:rgb(108,142,191);stroke-width:2px;"/>
        </g>
        <g transform="matrix(0.720917,0,0,-0.720917,0,302.785)">
            <rect x="520" y="190" width="30" height="40" style="fill:none;stroke:rgb(214,182,86);stroke-width:2px;"/>
        </g>
        <g transform="matrix(0.720917,0,0,-0.720917,0,418.132)">
            <rect x="330" y="270" width="30" height="40" style="fill:none;stroke:rgb(214,182,86);stroke-width:2px;"/>
        </g>
        <g transform="matrix(0.720917,0,0,-0.720917,0,302.785)">
            <rect x="330" y="190" width="30" height="40" style="fill:none;stroke:rgb(108,142,191);stroke-width:2px;"/>
        </g>
        <g transform="matrix(0.720917,0,0,-0.720917,0,187.438)">
            <rect x="330" y="110" width="30" height="40" style="fill:none;stroke:rgb(130,179,102);stroke-width:2px;"/>
        </g>
    </g>
</svg>
